<?xml version="1.0" encoding="utf-8"?>
<!-- Generator: Adobe Illustrator 24.3.0, SVG Export Plug-In . SVG Version: 6.00 Build 0)  -->
<svg version="1.1" id="Layer_1" xmlns="http://www.w3.org/2000/svg" xmlns:xlink="http://www.w3.org/1999/xlink" x="0px" y="0px"
	 viewBox="0 0 527.9 452" style="enable-background:new 0 0 527.9 452;" xml:space="preserve">
<style type="text/css">
	.st0{fill:#004259;}
</style>
<g>
	<path class="st0" d="M299.6,144c-7,1.1-10.6-2.2-15,0.5c-1.3,0.8-31.5-3.9-31.5-3.9c-0.2,0-0.5,0-0.7,0
		c-12.5-2.3-25.9-1.4-29.8-0.9c-0.3,0.2-7.5,2.1-16.3,4.5c-3.1-2.7-6.6-4.9-10.3-6.6c-5.1-2.3-10.6-3.6-16.3-3.8
		c-6.2-0.2-12.2,1.4-17.3,4.6c-4.7,3-8.5,7.4-10.7,12.3c-1.7,3.9-2.4,8.1-1.9,12.1c-2.2-1.8-4.3-2.3-5.6-2.4c-2.6-0.2-5,0.7-6.5,2.5
		c-1.7,2.1-2.3,4.8-1.8,7.3c0.7,3.6,3.6,6.9,8.6,9.7l0.1-0.2c-0.2,1.7,0.3,3.4,1.4,4.7c-0.1,0.2-0.3,0.3-0.4,0.5
		c0,0-6.1-0.2-11.3-3.5c-0.3-0.4-0.6-0.8-0.9-1.3c0-0.1-0.1-0.1-0.1-0.2c-0.2-0.3-0.5-0.7-0.8-1.1c-0.4-0.6-0.9-1.1-1.3-1.7
		c-1.1-1.4-2.2-2.7-3.6-3.8c-6.1-5.7-12.2-7-17.5-6.3c0,0,0,0-0.1,0c-7.2,1-12.8,6-14.3,9.1c-4.9,10-2.8,16.6-0.8,19.9
		c-1.4,2.8-2.6,5.6-2.8,6c-0.2,0.6,9.2,9.4,16.7,8.8c-1.3,3.5-2.3,7.8-1.1,10.8c0.8,2.1,2.6,3.6,5,4.3c2.3,0.6,4.9,0,6.9-1.8
		c0.2-0.1,0.3-0.3,0.5-0.4c0.8-0.8,1.4-1.6,1.8-2.6c1.8-0.1,3.1-0.9,3.3-1.9v-0.1V219l0.4-3.4c0.1-0.7-0.4-1.3-1.1-1.3l-1.5-0.2
		l0.1-1l0.8,0.1l0.2-1.6c1.6,0,2.9-0.5,3.6-1.7c1.5-2.7,2.5-5.1,3.1-7.2c0.9,0.3,2.2,0.8,3.5,1.4c2.4,5.6,4.6,12.7,4.4,19.4
		c-12.4,4.2-26.1,13.1-33,21c-20.3-7.2-38.3,2.4-53.9-1.8c-1.6-0.4-2.8-3.9-4.4-5c-1.4-1-6.6-2.6-8-4.4c-0.7-0.8-1.2-1.9-2-2.5
		c-0.7-0.5-1.7,0-1.9,0.8c-0.3,1-0.1,3.7,3.3,5.7c3.2,1.8,2.4,3,0.4,2.3c-5.6-1.9-11.5-4.3-13.9-4.5h-0.1c-0.7,0-1.4,0.4-1.6,1.1
		c-0.3,0.8,0.2,1.7,1,2c4.4,1.8,10.6,3.5,10.6,4.2c0,0.4-0.6,0.4-1.9,0.2l-7.5-1.4l0,0c-0.8-0.2-3.3-0.6-4-0.8l0,0l0,0h-0.1l0,0
		c-0.8-0.1-1.6,0.5-1.7,1.4c-0.2,0.9,0.4,1.8,1.2,2c0.8,0.2,4.1,1,5.2,1.2c5,1,8,1.3,7.9,2c0,0.2-0.2,0.3-0.4,0.3h-9.7
		c-0.3,0-0.6,0-0.9,0h-1.4c-0.9,0-1.6,0.7-1.6,1.6c0,0.8,0.6,1.4,1.3,1.5l0,0c0,0,0.7,0.1,7.6,0.3c3.7,0.1,5.2-0.4,5.4,0.4
		c0.1,0.6-1.9,0.9-2.9,1l-7.1,0.8c-0.9,0.1-1.5,0.9-1.4,1.8c0.1,0.7,0.6,1.3,1.3,1.4l0,0c0,0,2.2,0.3,10-0.9c7-1.1,10.6,2.2,15-0.5
		c1.3-0.8,31.5,3.9,31.5,3.9l0,0c12.6,2.5,26.4,1.5,30.3,1c0.5-0.3,32.2-8.7,55.5-15.2l-0.3,0.3c2.2,2.2,21.4,21.3,31.3,21.7
		c5.9,0.2,9.9-6.5,13.8-12.9c0.6-1,1.2-1.9,1.7-2.8c2.4,0.4,4.9,0.9,7.7,1.5c4.2,0.9,6.4-0.6,7.9-3.6c0.7,0.3,1.4,0.6,2.1,0.8
		c45.6,55,58.2,47,72.4,57.2c1.8,1.3,3.7,2.7,5.7,4.1c1.9,1.4,3,1.6,5.1,2.5c0,0,14.6-0.3,37.5-14.5c0.6,2.2,2,5.3,4.9,8.5
		c4.2,4.6,11.1,8.1,14.6,9.8c4.8,6,9.5,12.9,16.2,22.5c4,5.7,39.7,36,46.6,42.2c0,0,2.7-0.3,4.4-3.8c-23.4-21.2-45.6-40.7-51.1-48.8
		c-4.6-6.8-6.9-9.7-7.8-10.9c-0.1-0.1-0.2-0.1-0.2-0.2c-0.8-0.7-0.8-1.9-0.1-2.6l2.1-2.4l2.1-2.4c0.7-0.8,1.9-0.8,2.6-0.1
		c0.1,0.1,0.1,0.1,0.2,0.2c1.2,0.8,4.3,2.8,11.6,6.7c8.7,4.6,32.3,22.5,55.7,43.7c3.4-2.1,3.4-4.8,3.4-4.8
		c-6.9-6.3-42.6-36.5-48.7-39.9c-11.5-6.4-19.4-10.7-26.4-15.5c-1.5-1-4.8-3.4-8-5.6l0,0l0,0c-0.7-0.5-1.4-1-2.1-1.5
		c-2.9-2.4-5.8-6.3-8.1-7.2c-6.1-2.5-2.6-1-8.7-1.1c-0.4-0.3-0.8-0.4-1.3-0.3c-3.5,0.8-20.4,0.8-37.8,2.6
		c-13.4-17.6-37.2-39.2-50.6-48.4c0.1-2.4,0.9-4.9,3-7c9.8,1.7,50,8.7,71.7,5.6c2.1-0.3,5.9-1.1,9.2-1c0.2,0,0.4,0,0.7,0
		c0.3,0.1,0.7,0.2,1.2,0.3l0,0c1,0.2,2.1,0.5,2.3,0.7c8.7,8.7,21.1,4.4,36.3,4.5c1.5,0.9,2.7,2.1,6.3,3.2c2.4,0.7,7-0.5,10.8-0.6
		c4.4,0.3,10.1,0.6,12.3,0.7c8.5,0.6,17.3,2.2,30.3,4.4c6.9,1.2,55.5-1.2,64.8-1.8c0,0,1.7-2.1,0.3-5.8c-31.5,1.9-63,2.1-72.6,0.3
		c-8.1-1.5-11.8-1.9-13.2-2c-0.1,0-0.2,0-0.3,0c-1,0.1-1.9-0.7-2-1.7l-0.2-3.2l-0.2-3.2c-0.1-1,0.7-1.9,1.7-2c0.1,0,0.2,0,0.3,0
		c1.4-0.3,5-1.1,12.9-3.6c9.4-3,40.7-5.3,72.2-7.2c0.8-3.9-1.1-5.7-1.1-5.7c-9.3,0.6-57.9,2.9-64.6,4.8c-11.2,3.3-19.2,5.8-26.7,7.4
		c-3.8-0.9-11.4-2.4-17.5-1.5c-8.4,1.3-11.7,5.9-11.7,5.9l0.3,0.6c-16.5-7-22.7-10.2-33.8-9.6c-1.1,0.1-2.9,0.3-4.2,0.4
		c-0.7,0-1.5-0.4-2.3-0.9c-2.1-1-4.3-2.4-6.6-2.9c-2.3-0.6-4.6-1.1-6.8-1.7c-16.4-4-23.5-12.8-72.1-18.5c0.7-4.7-0.8-8.8-3.9-10.3
		l-13.8-6.4c0-1.9-0.4-3.2-1.3-3.6c-0.9-0.4-2.2,0.1-3.7,1.4L220,168.8c-0.3-1.9-0.8-3.7-1.3-5.6c3.7-2.8,7-5.6,9.4-8.4
		c0.4,0.1,0.9,0.1,1.4,0.2c19.8,6.5,37.4-2.7,52.8,1.5c1.6,0.4,2.8,3.9,4.4,5c1.5,1,6.6,2.6,8,4.4c0.7,0.8,1.2,1.9,2,2.5
		c0.7,0.5,1.7,0,1.9-0.8c0.3-1,0.1-3.7-3.3-5.7c-3.2-1.8-2.4-3-0.4-2.3c5.6,1.9,11.5,4.3,13.9,4.5h0.1c0.7,0,1.4-0.4,1.6-1.1
		c0.3-0.8-0.2-1.7-1-2c-4.4-1.8-10.6-3.5-10.6-4.2c0-0.4,0.6-0.4,1.9-0.2l7.5,1.4c0.8,0.2,3.3,0.6,4,0.8l0,0l0,0h0.1l0,0
		c0.8,0.1,1.6-0.5,1.7-1.4c0.2-0.9-0.4-1.8-1.2-2c-0.8-0.2-4.1-1-5.2-1.2c-5-1-8-1.3-7.9-2c0-0.2,0.2-0.3,0.4-0.3h9.7
		c0.3,0,0.6,0,0.9,0h1.4c0.9,0,1.6-0.7,1.6-1.6c0-0.8-0.6-1.4-1.3-1.5l0,0c0,0-0.7-0.1-7.6-0.3c-3.7-0.1-5.2,0.4-5.4-0.4
		c-0.1-0.6,1.9-0.8,2.9-1l7.1-0.8c0.9-0.1,1.5-0.9,1.4-1.8c-0.1-0.7-0.6-1.3-1.3-1.4l0,0C309.7,143.1,307.4,142.8,299.6,144z
		 M200.6,245.9c1.5,1.8,4.5,2.7,8.2,3.5c-0.3,0.5-0.6,1-0.9,1.6c-3.3,5.5-6.7,11.1-10.2,11c-6.6-0.2-20.7-12.8-27.2-19.1
		c2.7-0.8,5.3-1.5,7.6-2.2c5.7-0.1,14.1,0.6,22.9,1.2C200,243.4,199.7,244.9,200.6,245.9z M354.8,296.1l0.1-0.1
		c0.4,1.6,1,3.3,2.4,4.5c0,0,2.6,3,5.4,6.2c-1.2-0.1-2.7-0.8-4.5-2.9C355.7,301.1,354.9,298.2,354.8,296.1z M141.1,207.9
		c2,2.5,1.1,5.8,0.2,8.4c-0.6-3.6-1.6-7.2-2.8-10.4C139.6,206.6,140.6,207.3,141.1,207.9z M119.2,210.7v0.1l-0.7-0.1l-0.2,1.6
		l0.7,0.1l-0.1,1l-1.5-0.2c-0.7-0.1-1.3,0.4-1.3,1l-0.4,3.4v0.1v0.1c-0.1,0.7,0.4,1.5,1.3,2c-0.2,0.3-0.4,0.5-0.6,0.6
		c-0.8,0.7-1.8,1-2.5,0.8c-1.2-0.3-1.6-0.9-1.8-1.4c-0.8-1.9-0.7-4.5,3.1-10.7C116.5,209.8,117.9,210.3,119.2,210.7z M115.3,193
		c0,0.2,0.1,0.4,0.1,0.6c0,0.1,0,0.1,0,0.2c0,0.2,0,0.3-0.1,0.5c0,0.1,0,0.2-0.1,0.3c-0.1,0.2-0.1,0.5-0.2,0.7c0,0.1,0,0.1-0.1,0.2
		c-0.1,0.3-0.2,0.7-0.4,1c0,0,0,0.1-0.1,0.1c-0.1,0.3-0.3,0.6-0.4,1c0,0.1-0.1,0.2-0.1,0.3c-0.1,0.3-0.3,0.6-0.4,0.9
		c-0.1,0.1-0.1,0.2-0.2,0.3c-0.2,0.3-0.3,0.7-0.5,1c0,0.1-0.1,0.1-0.1,0.2c-0.2,0.4-0.4,0.8-0.6,1.2c-0.1,0.1-0.1,0.2-0.2,0.4
		c-0.1,0.3-0.3,0.5-0.4,0.8c-0.1,0.2-0.2,0.3-0.3,0.5c-0.1,0.2-0.2,0.4-0.3,0.5c-0.1,0.2-0.2,0.4-0.3,0.5c-0.1,0.1-0.1,0.2-0.2,0.3
		c-0.5,0.8-0.9,1.5-1.3,2c-0.6,0.9-1,1.5-1.1,1.5c-1.9,0.7-10.8-4.1-11.4-6.1c-0.2-0.5,0.4-2.2,1.3-4.2c0.2-0.4,0.3-0.8,0.5-1.2
		c0-0.1,0.1-0.2,0.1-0.3c0.2-0.3,0.3-0.6,0.5-1c0.1-0.1,0.1-0.2,0.2-0.3c0.2-0.3,0.4-0.7,0.5-1c0-0.1,0.1-0.2,0.1-0.2
		c0.2-0.4,0.5-0.8,0.7-1.2c0,0,0,0,0-0.1c0.2-0.4,0.4-0.7,0.7-1.1c0.1-0.1,0.1-0.2,0.2-0.3c0.2-0.3,0.3-0.5,0.5-0.7
		c0.1-0.1,0.2-0.2,0.2-0.3c0.2-0.2,0.3-0.4,0.5-0.6c0.1-0.1,0.1-0.2,0.2-0.3c0.2-0.3,0.5-0.5,0.7-0.8
		C107,184.9,114.5,189.9,115.3,193z M402.7,228.1c2.8-0.5,4.4-0.1,5.4,0.6c-4.2,0.8-8.1,1.5-8.1,1.5c-1.5,0.1-2.8,0.7-3.9,1.5
		c-0.2,0-0.3,0.1-0.5,0.1C397,230.3,399.3,228.7,402.7,228.1z M150.2,171.5c0.4,0.2,0.8,0.3,1.2,0.2l1.5,0.7l-0.9,1.9l0,0l-0.1,0.1
		c-1.9-0.5-3.8,0-5.3,1.2l0.1-0.1c-3.6-2-5.7-4.2-6.2-6.4c-0.3-1.7,0.5-2.9,0.9-3.3c0.3-0.4,1.1-0.8,2.2-0.7
		c1.9,0.2,3.8,1.6,5.4,4.1C148.9,170.2,149.4,171.1,150.2,171.5z M162.4,169.1c-0.2,0.2-0.3,0.5-0.5,0.7c-0.5-0.2-0.9-0.3-1.2-0.2
		c-0.5,0.2-0.9,1.9-0.9,1.9l-1.7-0.8l2-4.1c0.2,0.1,0.3,0.2,0.5,0.2c0.5,0.3,1.1,0.2,1.4-0.3c1-1.5,2.1-2.9,3.1-4.4
		C163.9,164.6,163,167,162.4,169.1z M215.6,166.6l-1.3-0.6c0.3-0.2,0.7-0.4,1-0.7C215.4,165.7,215.5,166.2,215.6,166.6z
		 M201.6,145.5c-12.7,3.4-26.6,7.2-26.9,7.3c-3.4,0.9-6,3.6-8.1,6.7c-0.1-0.4-0.3-0.7-0.7-1c-2.4-1.2-4-2-6.4-3.2
		c-0.8-0.3-1.6,0-1.7,0.5c-0.8,2.5-1.6,5-2.3,7.5c-0.2,0.5-0.1,0.9,0.7,1.3c0.2,0.1,0.3,0.2,0.5,0.2l-1.5,3
		c-2.4-4.8-2.5-10.3-0.1-15.7c3.4-7.6,12.2-15.1,24.4-14.6C187.8,137.9,195.5,140.8,201.6,145.5z"/>
	<path class="st0" d="M67.4,199.4c-0.5-2-2.5-3.2-4.4-2.7c-2,0.5-3.2,2.5-2.7,4.4c0.5,2,2.5,3.2,4.4,2.7
		C66.6,203.4,67.9,201.4,67.4,199.4z"/>
	<path class="st0" d="M71.6,206.4c-0.3-1.2-1.5-1.9-2.6-1.6c-1.2,0.3-1.9,1.5-1.6,2.6c0.3,1.2,1.5,1.9,2.6,1.6
		S71.9,207.5,71.6,206.4z"/>
	<path class="st0" d="M75.9,202.5c-1.2,0.3-1.9,1.5-1.6,2.6c0.3,1.2,1.5,1.9,2.6,1.6c1.2-0.3,1.9-1.5,1.6-2.6S77.1,202.3,75.9,202.5
		z"/>
	<path class="st0" d="M91.4,210.3c0.3,1.2,1.5,1.9,2.6,1.6c1.2-0.3,1.9-1.5,1.6-2.6c-0.3-1.2-1.5-1.9-2.6-1.6
		C91.8,207.9,91.1,209.1,91.4,210.3z"/>
	<path class="st0" d="M88.5,200.1c-0.3-1.2-1.5-1.9-2.6-1.6c-1.2,0.3-1.9,1.5-1.6,2.6c0.3,1.2,1.5,1.9,2.6,1.6
		C88,202.5,88.8,201.3,88.5,200.1z"/>
	<path class="st0" d="M397.1,318.8c-5.4-3.7-8.9-5.7-10.7-6.7c-0.1,0.2-0.2,0.4-0.4,0.6l-2.1,2.4l-2.1,2.4c-0.2,0.2-0.3,0.3-0.5,0.4
		c1.1,1.8,3.4,5,7.7,10c6.4,7.6,39.1,37.1,50.7,47.6l-0.1,0.3c1.6-1,4.4-1.5,7.8-5.3s3.7-6.6,4.5-8.3l-0.3,0.1
		C440,351.8,405.3,324.4,397.1,318.8z"/>
	<path class="st0" d="M441.7,228.7c-6.5,1.3-10.3,2.4-12.3,3c0.1,0.2,0.2,0.4,0.2,0.7l0.2,3.2l0.2,3.2c0,0.2,0,0.5-0.1,0.7
		c2.1,0.4,6,1.1,12.6,1.5c9.9,0.7,55.9,0,71.5-0.9l0.1,0.2c0.4-1.8,2-4.2,1.7-9.3s-2.2-7.3-2.8-9l-0.1,0.2
		C497.3,223.1,451.5,226.8,441.7,228.7z"/>
</g>
</svg>
