<?xml version="1.0" encoding="utf-8"?>
<!-- Generator: Adobe Illustrator 24.3.0, SVG Export Plug-In . SVG Version: 6.00 Build 0)  -->
<svg version="1.1" id="Layer_1" xmlns="http://www.w3.org/2000/svg" xmlns:xlink="http://www.w3.org/1999/xlink" x="0px" y="0px"
	 viewBox="0 0 135.5 151.3" style="enable-background:new 0 0 135.5 151.3;" xml:space="preserve">
<style type="text/css">
	.st0{opacity:0.24;}
	.st1{fill:#112747;}
	.st2{fill:#FFFFFF;}
	.st3{clip-path:url(#SVGID_2_);}
	.st4{fill-rule:evenodd;clip-rule:evenodd;fill:url(#SVGID_3_);}
	.st5{clip-path:url(#XMLID_4_);fill:#D7E8ED;}
	.st6{fill:#2182B9;}
	.st7{fill:#297D9E;}
	.st8{fill:#1A6489;}
	.st9{fill:#80C972;}
	.st10{fill:#1B76AF;}
	.st11{fill:#E2F2F6;}
	.st12{fill:#154073;}
	.st13{fill:#F3F888;}
	.st14{fill:#52A8CC;}
	.st15{fill:#2A7BB1;}
	.st16{fill:#87CCE1;}
	.st17{fill:#3A8EC0;}
	.st18{fill:#0E325C;}
	.st19{fill:#47B1D1;}
	.st20{opacity:0.16;}
	.st21{fill:#0B0B35;}
	.st22{enable-background:new    ;}
	.st23{clip-path:url(#SVGID_5_);}
	.st24{fill-rule:evenodd;clip-rule:evenodd;fill:url(#SVGID_6_);}
	.st25{clip-path:url(#XMLID_5_);fill:#D7E8ED;}
	.st26{clip-path:url(#SVGID_8_);}
	.st27{fill-rule:evenodd;clip-rule:evenodd;fill:url(#SVGID_9_);}
	.st28{opacity:0.5;fill-rule:evenodd;clip-rule:evenodd;fill:#57B8CD;}
	.st29{fill-rule:evenodd;clip-rule:evenodd;fill:#57B8CD;}
	.st30{opacity:0.56;fill-rule:evenodd;clip-rule:evenodd;fill:#4FB6CD;}
	.st31{opacity:0.56;fill-rule:evenodd;clip-rule:evenodd;fill:#38A8C7;}
	.st32{fill:#F1C91A;}
	.st33{opacity:0.7;fill:#CEA817;enable-background:new    ;}
	.st34{fill:#F7DD50;}
	.st35{opacity:0.1;fill:url(#SVGID_10_);enable-background:new    ;}
	.st36{opacity:0.1;fill:url(#SVGID_11_);enable-background:new    ;}
	.st37{fill:#DBDBD9;}
	.st38{opacity:0.1;fill:url(#SVGID_12_);enable-background:new    ;}
	.st39{opacity:0.7;fill:#999999;enable-background:new    ;}
	.st40{fill-rule:evenodd;clip-rule:evenodd;fill:#38A8C7;}
	.st41{fill-rule:evenodd;clip-rule:evenodd;fill:url(#SVGID_13_);}
	.st42{opacity:0.4;fill:#0E325C;}
	.st43{fill:#F2E08A;}
	.st44{fill:#F8F5D7;}
	.st45{fill:#F7EFA3;}
	.st46{fill:#C9B866;}
	.st47{fill:#E3D17D;}
	.st48{fill:#B29E47;}
	.st49{fill:url(#SVGID_14_);}
	.st50{fill:#F1F2F1;}
	.st51{fill:url(#SVGID_15_);}
	.st52{fill:url(#SVGID_16_);}
	.st53{fill:url(#SVGID_17_);}
	.st54{fill:url(#SVGID_18_);}
	.st55{fill:url(#SVGID_19_);}
	.st56{fill:url(#SVGID_20_);}
	.st57{fill:url(#SVGID_21_);}
	.st58{fill:#C6E89F;}
	.st59{fill:#DFF2C9;}
	.st60{fill:#F9D413;}
	.st61{fill:#F8E817;}
	.st62{fill:url(#SVGID_22_);}
	.st63{fill:#F8D914;}
	.st64{fill:#F8C610;}
	.st65{fill:url(#SVGID_23_);}
	.st66{fill:url(#SVGID_24_);}
	.st67{fill:url(#SVGID_25_);}
	.st68{fill:url(#SVGID_26_);}
	.st69{fill:url(#SVGID_27_);}
	.st70{fill:#F6F084;}
	.st71{fill:#FAFBED;}
	.st72{fill:#A9CCE2;}
	.st73{fill:#C2DCEA;}
	.st74{fill:url(#SVGID_28_);}
	.st75{fill:url(#SVGID_29_);}
	.st76{fill:url(#SVGID_30_);}
	.st77{fill:url(#SVGID_31_);}
	.st78{fill:url(#SVGID_32_);}
	.st79{fill:url(#SVGID_33_);}
	.st80{fill:url(#SVGID_34_);}
	.st81{fill:url(#SVGID_35_);}
	.st82{fill:url(#SVGID_36_);}
	.st83{fill:url(#SVGID_37_);}
	.st84{fill:url(#SVGID_38_);}
	.st85{fill:url(#SVGID_39_);}
	.st86{fill:url(#SVGID_40_);}
	.st87{fill:url(#SVGID_41_);}
	.st88{fill:url(#SVGID_42_);}
	.st89{opacity:0.4;}
	.st90{fill-rule:evenodd;clip-rule:evenodd;fill:url(#SVGID_43_);}
	.st91{opacity:0.1;fill:url(#SVGID_44_);enable-background:new    ;}
	.st92{opacity:0.1;fill:url(#SVGID_45_);enable-background:new    ;}
	.st93{opacity:0.1;fill:url(#SVGID_46_);enable-background:new    ;}
	.st94{fill-rule:evenodd;clip-rule:evenodd;fill:url(#SVGID_47_);}
	.st95{fill-rule:evenodd;clip-rule:evenodd;fill:none;}
	.st96{fill:url(#SVGID_48_);}
	.st97{fill:url(#SVGID_49_);}
	.st98{fill:url(#SVGID_50_);}
	.st99{fill:url(#SVGID_51_);}
	.st100{fill:url(#SVGID_52_);}
	.st101{fill:url(#SVGID_53_);}
	.st102{fill:url(#SVGID_54_);}
	.st103{fill:url(#SVGID_55_);}
	.st104{fill:url(#SVGID_56_);}
	.st105{fill:url(#SVGID_57_);}
	.st106{fill:url(#SVGID_58_);}
	.st107{fill:url(#SVGID_59_);}
	.st108{fill:url(#SVGID_60_);}
	.st109{fill:url(#SVGID_61_);}
	.st110{fill:url(#SVGID_62_);}
	.st111{fill:url(#SVGID_63_);}
	.st112{fill:url(#SVGID_64_);}
	.st113{fill:url(#SVGID_65_);}
	.st114{fill:url(#SVGID_66_);}
	.st115{fill:url(#SVGID_67_);}
	.st116{fill:url(#SVGID_68_);}
	.st117{fill:url(#SVGID_69_);}
	.st118{fill:url(#SVGID_70_);}
	.st119{fill:url(#SVGID_71_);}
	.st120{fill:url(#SVGID_72_);}
	.st121{fill:url(#SVGID_73_);}
	.st122{fill:url(#SVGID_74_);}
	.st123{fill:url(#SVGID_75_);}
	.st124{fill:url(#SVGID_76_);}
	.st125{fill:#B2263C;}
	.st126{fill:#841022;}
	.st127{fill:#99121C;}
	.st128{fill:#6D0C15;}
	.st129{fill:#514D4D;}
	.st130{fill:#848484;}
	.st131{fill:#686464;}
	.st132{fill:#B21728;}
	.st133{fill:#969696;}
	.st134{fill:#9B131F;}
	.st135{fill:#C1252D;}
	.st136{fill:#A81422;}
	.st137{fill:#828282;}
	.st138{fill:#B50822;}
	.st139{fill:#1A5F9B;}
	.st140{fill:#E8E8E8;}
</style>
<g>
	<path class="st9" d="M115.6,55.5c-4.8,6.3-11.1,11.1-18,14.9c-6.3,3.3-12.9,6.1-19.8,8.9c0.8,0.3,1.5,0.8,1.8,1.5
		c2.3,5.6,0,12.4-2.8,17.7c-2.8,5.8-6.8,11.1-11.1,16.2c-8.4,9.6-19.3,17.7-32.7,18c-14.9,0.5-21-14.9-21.3-27.6
		C11.5,91,18.3,76.8,29.2,67.9c5.1-4.3,10.9-7.3,17.2-8.9c2.5-0.5,5.3-1.3,8.4-1.3c-0.5-1.5-1-3.3-1-4.8c0-5.1,2-10.9,5.1-14.9
		c2.8-3.5,8.1-6.1,12.4-3.8c3.5,2,5.1,6.6,3.3,10.1c-1,2.3-4.3,0.8-3.5-1.5c0.5-2.5-1.5-5.1-4.1-4.3c-2.8,0.8-4.3,3.8-5.1,6.3
		c-1,2.8-1.8,5.8-1.5,8.9c0.5,3,2,4.6,3.5,6.8c0.3,0.3,0.3,0.8,0.3,1c1,1.8-1,4.1-2.8,3c-0.3-0.3-0.5-0.5-0.8-0.5
		c-0.5,0-1-0.3-1.5-0.5c-4.8-1.3-10.4,1.8-14.4,4.1c-5.1,2.8-9.9,6.6-13.7,11.1c-7.3,8.4-10.4,19.8-9.9,30.9
		c0.3,4.6,1.3,9.9,4.6,13.4c4.1,4.3,10.4,3.5,15.5,2.3c9.9-3,17.5-10.4,23.8-18.2C71,99.8,76.8,91,75.6,81.4v-1
		c-0.8,0.5-1.5,0.8-2.3,1c-7.9,3.5-20.5,7.1-21.3,17.2c-0.3,2.5-4.1,2.5-3.8,0c0.5-9.4,8.9-14.7,16.7-18.2
		c14.4-6.3,31.4-11.1,42.8-22.5c5.8-5.8,9.6-13.4,9.6-21.8c0.3-6.6-2.8-19.3-12.2-16.5c-2.5,0.8-3.5-3-1-3.8
		c9.6-3.5,16.5,6.3,17.5,14.7C122.9,39.3,120.6,48.4,115.6,55.5z"/>
</g>
</svg>
