<?xml version="1.0" encoding="utf-8"?>
<!-- Generator: Adobe Illustrator 24.3.0, SVG Export Plug-In . SVG Version: 6.00 Build 0)  -->
<svg version="1.1" id="Layer_1" xmlns="http://www.w3.org/2000/svg" xmlns:xlink="http://www.w3.org/1999/xlink" x="0px" y="0px"
	 viewBox="0 0 574.1 453.4" style="enable-background:new 0 0 574.1 453.4;" xml:space="preserve">
<style type="text/css">
	.st0{fill-rule:evenodd;clip-rule:evenodd;fill:url(#SVGID_1_);}
	.st1{fill-rule:evenodd;clip-rule:evenodd;fill:#3888E8;}
	.st2{fill-rule:evenodd;clip-rule:evenodd;fill:url(#SVGID_2_);}
	.st3{fill:url(#SVGID_3_);}
	.st4{fill:url(#SVGID_4_);}
	.st5{fill:url(#SVGID_5_);}
	.st6{fill:url(#SVGID_6_);}
	.st7{fill:url(#SVGID_7_);}
	.st8{fill:url(#SVGID_8_);}
	.st9{fill:url(#SVGID_9_);}
	.st10{fill:url(#SVGID_10_);}
	.st11{fill:#082647;}
	.st12{clip-path:url(#SVGID_12_);}
	.st13{fill:#D4ECFF;}
	.st14{fill:#1C88FF;}
	.st15{fill:#2A7D9E;}
	.st16{fill:#196389;}
	.st17{fill:#80E67B;}
	.st18{fill:#0277BD;}
	.st19{fill:#E1F5FE;}
	.st20{fill:#014073;}
	.st21{fill:#F5FF88;}
	.st22{fill:#53AAE0;}
	.st23{fill:#2A7BB7;}
	.st24{fill:#85D1FF;}
	.st25{fill:#3E90DC;}
	.st26{fill:#FFFFFF;}
	.st27{fill:#0A315C;}
	.st28{fill:#45B5FF;}
	.st29{opacity:0.56;fill-rule:evenodd;clip-rule:evenodd;fill:#3EAFD6;}
	.st30{fill:#F2C91C;}
	.st31{opacity:0.7;fill:#CEA809;enable-background:new    ;}
	.st32{fill:#FFDD50;}
	.st33{opacity:0.1;fill:url(#SVGID_13_);enable-background:new    ;}
	.st34{opacity:0.1;fill:url(#SVGID_14_);enable-background:new    ;}
	.st35{fill:#DBDBD9;}
	.st36{opacity:0.1;fill:url(#SVGID_15_);enable-background:new    ;}
	.st37{opacity:0.7;fill:#999999;enable-background:new    ;}
	.st38{fill-rule:evenodd;clip-rule:evenodd;fill:#3EAFD6;}
	.st39{opacity:0.5;}
	.st40{fill:#FDD400;}
	.st41{fill:#FFE800;}
	.st42{fill:url(#SVGID_16_);}
	.st43{fill:#FED900;}
	.st44{fill:#FCC600;}
	.st45{fill:url(#SVGID_17_);}
	.st46{fill:url(#SVGID_18_);}
	.st47{fill:url(#SVGID_19_);}
	.st48{fill:url(#SVGID_20_);}
	.st49{fill:url(#SVGID_21_);}
	.st50{fill:url(#SVGID_22_);}
	.st51{fill:url(#SVGID_23_);}
	.st52{fill:url(#SVGID_24_);}
	.st53{fill:#FFF284;}
	.st54{fill:#FFFDEE;}
	.st55{fill:#C7FFA6;}
	.st56{fill:#E0FFCC;}
	.st57{fill:#A6CEFF;}
	.st58{fill:#C0E0FF;}
	.st59{fill:url(#SVGID_25_);}
	.st60{fill:url(#SVGID_26_);}
	.st61{fill:url(#SVGID_27_);}
	.st62{fill:url(#SVGID_28_);}
	.st63{fill:url(#SVGID_29_);}
	.st64{fill:url(#SVGID_30_);}
	.st65{fill:url(#SVGID_31_);}
	.st66{fill:url(#SVGID_32_);}
	.st67{fill:url(#SVGID_33_);}
	.st68{fill:url(#SVGID_34_);}
	.st69{fill:url(#SVGID_35_);}
	.st70{fill:url(#SVGID_36_);}
	.st71{fill:url(#SVGID_37_);}
	.st72{fill:url(#SVGID_38_);}
	.st73{fill:url(#SVGID_39_);}
	.st74{fill:url(#SVGID_40_);}
	.st75{fill:url(#SVGID_41_);}
	.st76{fill:url(#SVGID_42_);}
	.st77{fill:url(#SVGID_43_);}
	.st78{fill:url(#SVGID_44_);}
	.st79{fill:url(#SVGID_45_);}
	.st80{fill:url(#SVGID_46_);}
	.st81{fill:url(#SVGID_47_);}
	.st82{fill:url(#SVGID_48_);}
	.st83{fill:url(#SVGID_49_);}
	.st84{fill:url(#SVGID_50_);}
	.st85{fill:url(#SVGID_51_);}
	.st86{fill:url(#SVGID_52_);}
	.st87{fill:url(#SVGID_53_);}
	.st88{fill:url(#SVGID_54_);}
	.st89{fill:url(#SVGID_55_);}
	.st90{fill:url(#SVGID_56_);}
	.st91{fill:url(#SVGID_57_);}
	.st92{fill:#E8C42A;}
	.st93{fill:url(#XMLID_20_);}
	.st94{fill:url(#XMLID_21_);}
	.st95{fill:url(#SVGID_58_);}
	.st96{fill:url(#SVGID_59_);}
	.st97{fill:url(#SVGID_60_);}
	.st98{fill:url(#SVGID_61_);}
	.st99{fill:url(#SVGID_62_);}
	.st100{fill:url(#SVGID_63_);}
	.st101{fill:url(#SVGID_64_);}
	.st102{fill:#033544;}
	.st103{fill:#005579;}
	.st104{fill:#F6E08A;}
	.st105{fill:#FFF7D7;}
	.st106{fill:#FFF0A3;}
	.st107{fill:#C9B866;}
	.st108{fill:#E3D17D;}
	.st109{fill:#B29E47;}
	.st110{fill:url(#SVGID_65_);}
	.st111{fill:#F1F2F2;}
	.st112{fill:url(#SVGID_66_);}
	.st113{fill:url(#SVGID_67_);}
	.st114{fill:url(#SVGID_68_);}
	.st115{fill:url(#SVGID_69_);}
	.st116{fill:url(#SVGID_70_);}
	.st117{fill:url(#SVGID_71_);}
	.st118{fill:url(#SVGID_72_);}
	.st119{opacity:0.46;}
	.st120{fill:url(#SVGID_73_);}
	.st121{fill:url(#SVGID_74_);}
	.st122{fill:url(#SVGID_75_);}
	.st123{fill:url(#SVGID_76_);}
	.st124{fill:url(#SVGID_77_);}
	.st125{fill:url(#SVGID_78_);}
	.st126{fill:url(#SVGID_79_);}
	.st127{fill:url(#SVGID_80_);}
	.st128{fill:url(#SVGID_81_);}
	.st129{fill:url(#SVGID_82_);}
	.st130{fill:url(#SVGID_83_);}
	.st131{fill:url(#SVGID_84_);}
	.st132{fill:url(#SVGID_85_);}
	.st133{fill:url(#SVGID_86_);}
	.st134{fill:url(#SVGID_87_);}
	.st135{fill:url(#SVGID_88_);}
	.st136{fill:url(#SVGID_89_);}
	.st137{fill:url(#SVGID_90_);}
	.st138{fill:url(#SVGID_91_);}
	.st139{fill:url(#SVGID_92_);}
	.st140{fill:url(#SVGID_93_);}
	.st141{fill:url(#SVGID_94_);}
	.st142{fill:url(#SVGID_95_);}
	.st143{fill:url(#SVGID_96_);}
	.st144{fill:url(#SVGID_97_);}
	.st145{fill:url(#SVGID_98_);}
	.st146{fill:url(#SVGID_99_);}
	.st147{fill:url(#SVGID_100_);}
	.st148{fill:url(#SVGID_101_);}
	.st149{fill:url(#SVGID_102_);}
	.st150{fill:url(#SVGID_103_);}
	.st151{fill:url(#SVGID_104_);}
	.st152{fill:url(#SVGID_105_);}
	.st153{fill:url(#SVGID_106_);}
	.st154{fill:url(#SVGID_107_);}
	.st155{fill:url(#SVGID_108_);}
	.st156{fill:url(#SVGID_109_);}
	.st157{fill:url(#SVGID_110_);}
	.st158{fill:url(#SVGID_111_);}
	.st159{fill:url(#SVGID_112_);}
	.st160{fill:url(#SVGID_113_);}
	.st161{fill:url(#SVGID_114_);}
	.st162{enable-background:new    ;}
	.st163{fill:#82C890;}
	.st164{fill:#E5E5E5;}
	.st165{fill:#64B161;}
	.st166{fill-rule:evenodd;clip-rule:evenodd;fill:#FFFFFF;}
</style>
<g>
	<g>
		<path class="st102" d="M193.3,275.8c-0.5-3.4-1.7-8-1.7-8c3.3,1.1,6.7,6.5,10,7.3c0.8,0.2,1.5,0.3,2.1,0.3v0c0,0-2.3-0.2-2.6-3.4
			c-0.4-3.2,2.6-4.2,4.3-8.4c1.7-4.2,0.7-10.7,0.7-10.7s2.4,0.1,8.1,3.6c5.7,3.4,7.4,6.3,9.9,7.1c2.5,0.8,5.5,1.2,10.3,5.8
			c4.8,4.6,2.3,3.9,4.5,5.1c2.2,1.2,4.8,1.5,4.7,2.3c-0.1,0.8-2.2,0.9-2.2,0.9s0.7,0.1,0.6,0.6c-0.2,0.5-1.9,1.2-2.7,2
			c-0.8,0.8-5.8,5.3-9,7.9c-3.2,2.6-8.3,6.9-11.4,10.8c-3.1,3.9-6.4,6.1-9.9,5.5c0,0,1-3.5,0.2-6.3c-0.7-2.8-3-5.6-4.8-8.2
			c-1.7-2.5-2.7-7.8-1-9.5c-2.9,0.4-4.8,2.5-6.6,4.8c-2.4,2.9-3.9,4.8-3.9,4.8s-0.9-2.9-0.2-5.9
			C193.5,281.7,193.9,279.2,193.3,275.8z"/>
	</g>
	<g>
		<path class="st102" d="M499.2,224c-0.5-3.4-1.7-8-1.7-8c3.3,1.1,6.7,6.5,10,7.3c0.8,0.2,1.5,0.3,2.1,0.3v0c0,0-2.3-0.2-2.6-3.4
			c-0.4-3.2,2.6-4.2,4.3-8.4c1.7-4.2,0.7-10.7,0.7-10.7s2.4,0.1,8.1,3.6c5.7,3.4,7.4,6.3,9.9,7.1c2.5,0.8,5.5,1.2,10.3,5.8
			c4.8,4.6,2.3,3.9,4.5,5.1c2.2,1.2,4.8,1.5,4.7,2.3c-0.1,0.8-2.2,0.9-2.2,0.9s0.7,0.1,0.6,0.6c-0.2,0.5-1.9,1.2-2.7,2
			c-0.8,0.8-5.8,5.3-9,7.9c-3.2,2.6-8.3,6.9-11.4,10.8c-3.1,3.9-6.4,6.1-9.9,5.5c0,0,1-3.5,0.2-6.3c-0.7-2.8-3-5.6-4.8-8.2
			c-1.7-2.5-2.7-7.8-1-9.5c-2.9,0.4-4.8,2.5-6.6,4.8c-2.4,2.9-3.9,4.8-3.9,4.8s-0.9-2.9-0.2-5.9C499.3,230,499.7,227.5,499.2,224z"
			/>
	</g>
	<g>
		<path class="st102" d="M136.8,240.3c-0.9-6.1-2.9-14.1-2.9-14.1c5.8,2,11.7,11.5,17.5,12.8c1.5,0.3,2.7,0.5,3.7,0.5v-0.1
			c0,0-4-0.3-4.6-5.9c-0.6-5.6,4.6-7.4,7.6-14.8c3-7.4,1.3-18.8,1.3-18.8s4.3,0.2,14.3,6.3c10,6.1,13,11.1,17.4,12.5
			c4.4,1.5,9.7,2.1,18.2,10.1c8.5,8,4.1,6.9,7.9,8.9c3.8,2,8.4,2.7,8.2,4.1c-0.2,1.4-3.8,1.6-3.8,1.6s1.3,0.3,1,1.1
			c-0.3,0.8-3.4,2.2-4.8,3.5c-1.4,1.4-10.1,9.3-15.8,13.9c-5.6,4.6-14.6,12.1-20,18.9c-5.4,6.8-11.2,10.6-17.3,9.7
			c0,0,1.7-6.2,0.4-11.1c-1.3-4.9-5.3-9.8-8.5-14.4c-3-4.5-4.8-13.8-1.7-16.7c-5,0.7-8.3,4.3-11.6,8.4c-4.2,5.1-6.9,8.5-6.9,8.5
			s-1.7-5.2-0.3-10.4C137,250.7,137.7,246.3,136.8,240.3z"/>
	</g>
	<g>
		<path class="st102" d="M265.5,218.3c-0.5-3.3-1.6-7.6-1.6-7.6c3.2,1.1,6.3,6.2,9.5,7c0.8,0.2,1.4,0.3,2,0.3v0c0,0-2.1-0.2-2.5-3.2
			c-0.3-3.1,2.5-4,4.1-8c1.6-4,0.7-10.2,0.7-10.2s2.3,0.1,7.7,3.4c5.4,3.3,7.1,6,9.4,6.8c2.4,0.8,5.3,1.1,9.8,5.5
			c4.6,4.4,2.2,3.7,4.3,4.8c2.1,1.1,4.6,1.4,4.4,2.2c-0.1,0.8-2.1,0.9-2.1,0.9s0.7,0.1,0.5,0.6c-0.2,0.5-1.8,1.2-2.6,1.9
			c-0.8,0.7-5.5,5.1-8.5,7.6c-3.1,2.5-7.9,6.6-10.9,10.2c-2.9,3.7-6.1,5.8-9.4,5.3c0,0,0.9-3.3,0.2-6c-0.7-2.7-2.9-5.3-4.6-7.8
			c-1.7-2.4-2.6-7.5-0.9-9c-2.7,0.4-4.5,2.3-6.3,4.5c-2.3,2.8-3.7,4.6-3.7,4.6s-0.9-2.8-0.2-5.6C265.6,223.9,266,221.6,265.5,218.3z
			"/>
	</g>
	<g>
		<path class="st102" d="M472.6,183.2c0,3,2.4,5.5,5.5,5.5c3,0,5.5-2.4,5.5-5.5c0-3-2.4-5.5-5.5-5.5
			C475,177.8,472.6,180.2,472.6,183.2z"/>
	</g>
	<g>
		<path class="st102" d="M355.2,239.5c0,4.6,3.7,8.4,8.4,8.4c4.6,0,8.4-3.7,8.4-8.4c0-4.6-3.7-8.4-8.4-8.4
			C358.9,231.1,355.2,234.9,355.2,239.5z"/>
	</g>
	<g>
		<path class="st102" d="M374.5,266c4.3,0,7.8-3.5,7.8-7.8c0-4.3-3.5-7.8-7.8-7.8c-4.3,0-7.8,3.5-7.8,7.8
			C366.7,262.5,370.2,266,374.5,266z M374.5,253.6c2.6,0,4.6,2.1,4.6,4.6c0,2.6-2.1,4.6-4.6,4.6c-2.6,0-4.6-2.1-4.6-4.6
			C369.8,255.7,371.9,253.6,374.5,253.6z"/>
	</g>
	<g>
		<circle class="st102" cx="362.8" cy="269.1" r="5.5"/>
	</g>
	<g>
		<path class="st102" d="M169.7,353.5c0,3,2.4,5.5,5.5,5.5c3,0,5.5-2.4,5.5-5.5c0-3-2.4-5.5-5.5-5.5
			C172.1,348.1,169.7,350.5,169.7,353.5z"/>
	</g>
	<g>
		<path class="st102" d="M365.8,284.8c0,2.1,1.7,3.7,3.7,3.7c2.1,0,3.7-1.7,3.7-3.7c0-2.1-1.7-3.7-3.7-3.7
			C367.5,281.1,365.8,282.7,365.8,284.8z"/>
	</g>
	<g>
		<path class="st102" d="M162.2,365.3c0,2.1,1.7,3.7,3.7,3.7c2.1,0,3.7-1.7,3.7-3.7s-1.7-3.7-3.7-3.7
			C163.8,361.5,162.2,363.2,162.2,365.3z"/>
	</g>
	<g>
		<circle class="st102" cx="543.4" cy="95.6" r="6.2"/>
	</g>
	<g>
		<path class="st102" d="M34.9,172.4c4.3,0,7.8-3.5,7.8-7.8c0-4.3-3.5-7.8-7.8-7.8c-4.3,0-7.8,3.5-7.8,7.8
			C27.1,168.9,30.6,172.4,34.9,172.4z M34.9,159.9c2.6,0,4.6,2.1,4.6,4.6c0,2.6-2.1,4.6-4.6,4.6c-2.6,0-4.6-2.1-4.6-4.6
			C30.2,162,32.3,159.9,34.9,159.9z"/>
	</g>
	<g>
		<path class="st102" d="M497.5,267.3c5,0,9.1-4.1,9.1-9.1c0-5-4.1-9.1-9.1-9.1c-5,0-9.1,4.1-9.1,9.1
			C488.4,263.2,492.5,267.3,497.5,267.3z M497.5,252.2c3.3,0,6,2.7,6,6c0,3.3-2.7,6-6,6c-3.3,0-6-2.7-6-6
			C491.5,254.9,494.2,252.2,497.5,252.2z"/>
	</g>
	<g>
		<path class="st102" d="M420.2,247.9c0,2.5,2.1,4.6,4.6,4.6c2.5,0,4.6-2.1,4.6-4.6c0-2.5-2.1-4.6-4.6-4.6
			C422.2,243.3,420.2,245.3,420.2,247.9z"/>
	</g>
	<g>
		<path class="st102" d="M112,258.9c3.4,0,6.1-2.8,6.1-6.1c0-3.4-2.8-6.1-6.1-6.1s-6.1,2.8-6.1,6.1
			C105.9,256.2,108.6,258.9,112,258.9z M112,249.8c1.7,0,3,1.4,3,3s-1.4,3-3,3s-3-1.4-3-3S110.3,249.8,112,249.8z"/>
	</g>
	<g>
		<path class="st102" d="M130,156.3c0,3.4,2.8,6.2,6.2,6.2c3.4,0,6.2-2.8,6.2-6.2c0-3.4-2.8-6.2-6.2-6.2
			C132.8,150,130,152.8,130,156.3z"/>
	</g>
	<g>
		<path class="st102" d="M33.5,100.6c0,3,2.4,5.5,5.5,5.5c3,0,5.5-2.4,5.5-5.5c0-3-2.4-5.5-5.5-5.5C35.9,95.1,33.5,97.6,33.5,100.6z
			"/>
	</g>
</g>
</svg>
