<?xml version="1.0" encoding="utf-8"?>
<!-- Generator: Adobe Illustrator 24.3.0, SVG Export Plug-In . SVG Version: 6.00 Build 0)  -->
<svg version="1.1" id="Layer_1" xmlns="http://www.w3.org/2000/svg" xmlns:xlink="http://www.w3.org/1999/xlink" x="0px" y="0px"
	 viewBox="0 0 574.1 446.9" style="enable-background:new 0 0 574.1 446.9;" xml:space="preserve">
<style type="text/css">
	.st0{fill-rule:evenodd;clip-rule:evenodd;fill:url(#SVGID_1_);}
	.st1{fill-rule:evenodd;clip-rule:evenodd;fill:#3888E8;}
	.st2{fill-rule:evenodd;clip-rule:evenodd;fill:url(#SVGID_2_);}
	.st3{fill:url(#SVGID_3_);}
	.st4{fill:url(#SVGID_4_);}
	.st5{fill:url(#SVGID_5_);}
	.st6{fill:url(#SVGID_6_);}
	.st7{fill:url(#SVGID_7_);}
	.st8{fill:url(#SVGID_8_);}
	.st9{fill:url(#SVGID_9_);}
	.st10{fill:url(#SVGID_10_);}
	.st11{fill:#082647;}
	.st12{clip-path:url(#SVGID_12_);}
	.st13{fill:#D4ECFF;}
	.st14{fill:#1C88FF;}
	.st15{fill:#2A7D9E;}
	.st16{fill:#196389;}
	.st17{fill:#80E67B;}
	.st18{fill:#0277BD;}
	.st19{fill:#E1F5FE;}
	.st20{fill:#014073;}
	.st21{fill:#F5FF88;}
	.st22{fill:#53AAE0;}
	.st23{fill:#2A7BB7;}
	.st24{fill:#85D1FF;}
	.st25{fill:#3E90DC;}
	.st26{fill:#FFFFFF;}
	.st27{fill:#0A315C;}
	.st28{fill:#45B5FF;}
	.st29{opacity:0.56;fill-rule:evenodd;clip-rule:evenodd;fill:#3EAFD6;}
	.st30{fill:#F2C91C;}
	.st31{opacity:0.7;fill:#CEA809;enable-background:new    ;}
	.st32{fill:#FFDD50;}
	.st33{opacity:0.1;fill:url(#SVGID_13_);enable-background:new    ;}
	.st34{opacity:0.1;fill:url(#SVGID_14_);enable-background:new    ;}
	.st35{fill:#DBDBD9;}
	.st36{opacity:0.1;fill:url(#SVGID_15_);enable-background:new    ;}
	.st37{opacity:0.7;fill:#999999;enable-background:new    ;}
	.st38{fill-rule:evenodd;clip-rule:evenodd;fill:#3EAFD6;}
	.st39{opacity:0.5;}
	.st40{fill:#FDD400;}
	.st41{fill:#FFE800;}
	.st42{fill:url(#SVGID_16_);}
	.st43{fill:#FED900;}
	.st44{fill:#FCC600;}
	.st45{fill:url(#SVGID_17_);}
	.st46{fill:url(#SVGID_18_);}
	.st47{fill:url(#SVGID_19_);}
	.st48{fill:url(#SVGID_20_);}
	.st49{fill:url(#SVGID_21_);}
	.st50{fill:url(#SVGID_22_);}
	.st51{fill:url(#SVGID_23_);}
	.st52{fill:url(#SVGID_24_);}
	.st53{fill:#FFF284;}
	.st54{fill:#FFFDEE;}
	.st55{fill:#C7FFA6;}
	.st56{fill:#E0FFCC;}
	.st57{fill:#A6CEFF;}
	.st58{fill:#C0E0FF;}
	.st59{fill:url(#SVGID_25_);}
	.st60{fill:url(#SVGID_26_);}
	.st61{fill:url(#SVGID_27_);}
	.st62{fill:url(#SVGID_28_);}
	.st63{fill:url(#SVGID_29_);}
	.st64{fill:url(#SVGID_30_);}
	.st65{fill:url(#SVGID_31_);}
	.st66{fill:url(#SVGID_32_);}
	.st67{fill:url(#SVGID_33_);}
	.st68{fill:url(#SVGID_34_);}
	.st69{fill:url(#SVGID_35_);}
	.st70{fill:url(#SVGID_36_);}
	.st71{fill:url(#SVGID_37_);}
	.st72{fill:url(#SVGID_38_);}
	.st73{fill:url(#SVGID_39_);}
	.st74{fill:url(#SVGID_40_);}
	.st75{fill:url(#SVGID_41_);}
	.st76{fill:url(#SVGID_42_);}
	.st77{fill:url(#SVGID_43_);}
	.st78{fill:url(#SVGID_44_);}
	.st79{fill:url(#SVGID_45_);}
	.st80{fill:url(#SVGID_46_);}
	.st81{fill:url(#SVGID_47_);}
	.st82{fill:url(#SVGID_48_);}
	.st83{fill:url(#SVGID_49_);}
	.st84{fill:url(#SVGID_50_);}
	.st85{fill:url(#SVGID_51_);}
	.st86{fill:url(#SVGID_52_);}
	.st87{fill:url(#SVGID_53_);}
	.st88{fill:url(#SVGID_54_);}
	.st89{fill:url(#SVGID_55_);}
	.st90{fill:url(#SVGID_56_);}
	.st91{fill:url(#SVGID_57_);}
	.st92{fill:#E8C42A;}
	.st93{fill:url(#XMLID_20_);}
	.st94{fill:url(#XMLID_21_);}
	.st95{fill:url(#SVGID_58_);}
	.st96{fill:url(#SVGID_59_);}
	.st97{fill:url(#SVGID_60_);}
	.st98{fill:url(#SVGID_61_);}
	.st99{fill:url(#SVGID_62_);}
	.st100{fill:url(#SVGID_63_);}
	.st101{fill:url(#SVGID_64_);}
	.st102{fill:#033544;}
	.st103{fill:#005579;}
	.st104{fill:#F6E08A;}
	.st105{fill:#FFF7D7;}
	.st106{fill:#FFF0A3;}
	.st107{fill:#C9B866;}
	.st108{fill:#E3D17D;}
	.st109{fill:#B29E47;}
	.st110{fill:url(#SVGID_65_);}
	.st111{fill:#F1F2F2;}
	.st112{fill:url(#SVGID_66_);}
	.st113{fill:url(#SVGID_67_);}
	.st114{fill:url(#SVGID_68_);}
	.st115{fill:url(#SVGID_69_);}
	.st116{fill:url(#SVGID_70_);}
	.st117{fill:url(#SVGID_71_);}
	.st118{fill:url(#SVGID_72_);}
	.st119{opacity:0.46;}
	.st120{fill:url(#SVGID_73_);}
	.st121{fill:url(#SVGID_74_);}
	.st122{fill:url(#SVGID_75_);}
	.st123{fill:url(#SVGID_76_);}
	.st124{fill:url(#SVGID_77_);}
	.st125{fill:url(#SVGID_78_);}
	.st126{fill:url(#SVGID_79_);}
	.st127{fill:url(#SVGID_80_);}
	.st128{fill:url(#SVGID_81_);}
	.st129{fill:url(#SVGID_82_);}
	.st130{fill:url(#SVGID_83_);}
	.st131{fill:url(#SVGID_84_);}
	.st132{fill:url(#SVGID_85_);}
	.st133{fill:url(#SVGID_86_);}
	.st134{fill:url(#SVGID_87_);}
	.st135{fill:url(#SVGID_88_);}
	.st136{fill:url(#SVGID_89_);}
	.st137{fill:url(#SVGID_90_);}
	.st138{fill:url(#SVGID_91_);}
	.st139{fill:url(#SVGID_92_);}
	.st140{fill:url(#SVGID_93_);}
	.st141{fill:url(#SVGID_94_);}
	.st142{fill:url(#SVGID_95_);}
	.st143{fill:url(#SVGID_96_);}
	.st144{fill:url(#SVGID_97_);}
	.st145{fill:url(#SVGID_98_);}
	.st146{fill:url(#SVGID_99_);}
	.st147{fill:url(#SVGID_100_);}
	.st148{fill:url(#SVGID_101_);}
	.st149{fill:url(#SVGID_102_);}
	.st150{fill:url(#SVGID_103_);}
	.st151{fill:url(#SVGID_104_);}
	.st152{fill:url(#SVGID_105_);}
	.st153{fill:url(#SVGID_106_);}
	.st154{fill:url(#SVGID_107_);}
	.st155{fill:url(#SVGID_108_);}
	.st156{fill:url(#SVGID_109_);}
	.st157{fill:url(#SVGID_110_);}
	.st158{fill:url(#SVGID_111_);}
	.st159{fill:url(#SVGID_112_);}
	.st160{fill:url(#SVGID_113_);}
	.st161{fill:url(#SVGID_114_);}
	.st162{enable-background:new    ;}
	.st163{fill:#82C890;}
	.st164{fill:#E5E5E5;}
	.st165{fill:#64B161;}
	.st166{fill-rule:evenodd;clip-rule:evenodd;fill:#FFFFFF;}
</style>
<g>
	<g>
		<g>
			<g>
				<path class="st102" d="M528.9,310.9c0.6-3.7,1.8-8.6,1.8-8.6c-3.6,1.2-7.2,7-10.8,7.9c-0.9,0.2-1.6,0.3-2.2,0.3v0
					c0,0,2.4-0.2,2.8-3.7c0.4-3.5-2.8-4.5-4.7-9.1c-1.9-4.5-0.8-11.5-0.8-11.5s-2.6,0.1-8.8,3.8c-6.1,3.7-8,6.8-10.7,7.7
					c-2.7,0.9-6,1.3-11.1,6.2c-5.2,4.9-2.5,4.2-4.8,5.5c-2.3,1.2-5.2,1.6-5,2.5s2.3,1,2.3,1s-0.8,0.2-0.6,0.7
					c0.2,0.5,2.1,1.3,2.9,2.2c0.9,0.8,6.2,5.7,9.7,8.6c3.5,2.8,9,7.4,12.3,11.6c3.3,4.2,6.9,6.5,10.6,6c0,0-1-3.8-0.3-6.8
					c0.8-3,3.3-6,5.2-8.8c1.9-2.7,2.9-8.5,1-10.2c3.1,0.5,5.1,2.6,7.1,5.1c2.6,3.1,4.2,5.2,4.2,5.2s1-3.2,0.2-6.4
					C528.8,317.3,528.3,314.6,528.9,310.9z"/>
			</g>
			<g>
				<g>
					<path class="st102" d="M353.8,315.8c0,0,8.9-2.6,22.4,5.9c13.5,8.5,21,27.8,49.7,33.2c10.7,2,19.8-2.8,20.4-5.2
						c0.5-2.4-19.7-19.2-35.6-28.2c-15.9-9.1-23.7-5.3-38.3-14.8C357.8,297.3,353.8,315.8,353.8,315.8z"/>
					<path class="st102" d="M353.8,315.8c0,0,8.9-2.6,22.4,5.9c13.5,8.5,21,27.8,49.7,33.2c10.7,2,19.8-2.8,20.4-5.2
						c0.5-2.4-19.7-19.2-35.6-28.2c-15.9-9.1-23.7-5.3-38.3-14.8C357.8,297.3,353.8,315.8,353.8,315.8z"/>
					<path class="st102" d="M386.4,418.6c-17.8,5.8-55.6-17.2-72.4-37.7c-16.9-20.4-25.6-36.3-25.6-36.3s-1.8,0.5-5,0.9
						c-5.6,0.8-15.5,1.7-26.9,0.2c-17.9-2.3-35.1-10.5-41.7-15.3c-6.6-4.8-12.3-7-20.5-0.7c-8.2,6.3-11,80.2-13.6,80.8
						c-2.6,0.5-14.1-25.2-16.4-46.3c-2.3-21.1-2.4-31.2,6-41.2c4.4-5.3,9.6-8.9,13.6-11.2c3.6-2,6.1-3,6.1-3s-10-3.2-18.1-8.4
						c-8.1-5.2-9.4-10.8-9.4-10.8l-2.7-0.5c-6.1-10.3,0.4-20.6,6.4-24.3c6.1-3.7,18.1-3.3,26.8-2.1c8.6,1.1,26.6,9.7,26.6,9.7
						s0,0,0,0c24.2-37.9,63.9-21.6,95.2-12.9c31.3,8.7,60.7,26,70.5,32.5c9.8,6.4,23.6,9.2,23.6,9.2s-20.7,8.3-32.1,14.6
						c-11.4,6.3-19.2,12.9-27.6,18.5c-1.2,0.8-2.4,1.4-3.6,1.9c-0.5,0.2-1,0.4-1.6,0.5c-0.2,0.1-0.4,0.1-0.6,0.2
						c-7.2,1.9-14.7,0.4-15,0.3c0,0,0,0,0,0c0.8,0.5,20.3,13.2,26.4,28.1c6.2,15.3,20.9,25.5,30.7,32.8
						C394.9,405.5,404.2,412.8,386.4,418.6z"/>
					<path class="st102" d="M408.7,301.2c0,0-87-3.8-105.5-11.9c-18.5-8.1-35.1-1.6-44-3.7c-8.9-2.1-10.8-7.8-23-12.4
						c-12-4.5-16.7-0.9-16.9-0.8c24.2-37.9,61.6-32.4,89.6-22c30.4,11.3,64.5,32.4,74.3,38.9C393.1,295.8,408.7,301.2,408.7,301.2z"
						/>
					<path class="st102" d="M408.7,301.2c0,0-73.3,1.9-105.5-11.9c-18.5-8-35.1-1.6-44-3.7c-8.9-2.1-10.8-7.8-23-12.4
						c-12-4.5-16.7-0.9-16.9-0.8c24.2-37.9,61.6-32.4,89.6-22c30.4,11.3,64.5,32.4,74.3,38.9C393.1,295.8,408.7,301.2,408.7,301.2z"
						/>
					<path class="st102" d="M288.3,344.7c0,0-1.8,0.5-5,0.9c-2.7-4.7-13.2-18.7-12.8-27.8c0.3-6.4,5-6.6,5-6.6
						c-1.9,0.1-4,6.1,0.4,15.2C279.6,334.1,288.3,344.7,288.3,344.7z"/>
					<path class="st102" d="M343.1,336.9c-7.2,1.9-14.7,0.4-15,0.3c0,0-9.9-7.9-13.7-12C315,325.7,336.9,338,343.1,336.9z"/>
					<path class="st102" d="M345.3,336.2c-0.5,0.2-1,0.4-1.6,0.5c0,0,0,0,0.1,0C344.4,336.5,344.9,336.3,345.3,336.2z"/>
					<path class="st102" d="M226.2,317.1c-0.4-0.1-7-2.5-14.7-2.2c-7.9,0.3-15.5,1-27.8-2.9c3.6-2,6.1-3,6.1-3s6.1,2.3,14.1,3.1
						C211.9,312.9,222.4,314.2,226.2,317.1z"/>
				</g>
			</g>
			<g>
				<g>
					<circle class="st102" cx="481.3" cy="239.4" r="8.5"/>
				</g>
				<g>
					<path class="st102" d="M468.1,265.6c-4.9,0-8.8-3.9-8.8-8.8c0-4.9,3.9-8.8,8.8-8.8c4.9,0,8.8,3.9,8.8,8.8
						C476.9,261.7,473,265.6,468.1,265.6z M468.1,251.6c-2.9,0-5.3,2.4-5.3,5.3c0,2.9,2.4,5.3,5.3,5.3c2.9,0,5.3-2.4,5.3-5.3
						C473.4,253.9,471,251.6,468.1,251.6z"/>
				</g>
				<g>
					<path class="st102" d="M487.5,269.2c0,3.4-2.8,6.2-6.2,6.2c-3.4,0-6.2-2.8-6.2-6.2c0-3.4,2.8-6.2,6.2-6.2
						C484.7,263,487.5,265.8,487.5,269.2z"/>
				</g>
				<g>
					<path class="st102" d="M477.9,286.9c0,2.3-1.9,4.2-4.2,4.2c-2.3,0-4.2-1.9-4.2-4.2c0-2.3,1.9-4.2,4.2-4.2
						C476,282.7,477.9,284.6,477.9,286.9z"/>
				</g>
			</g>
		</g>
		<g>
			<path class="st102" d="M113.2,266.6c0,3.1-2.5,5.5-5.5,5.5c-3.1,0-5.5-2.5-5.5-5.5c0-3.1,2.5-5.5,5.5-5.5
				C110.7,261,113.2,263.5,113.2,266.6z"/>
		</g>
		<g>
			<path class="st102" d="M85,173.1c0,3.1-2.5,5.5-5.5,5.5s-5.5-2.5-5.5-5.5c0-3.1,2.5-5.5,5.5-5.5S85,170,85,173.1z"/>
		</g>
		<g>
			<path class="st102" d="M89.3,230c2.9,5.4,0.8,12.1-4.6,15c-5.4,2.9-12.1,0.8-15-4.6c-2.9-5.4-0.8-12.1,4.6-15
				C79.7,222.5,86.4,224.6,89.3,230z"/>
		</g>
		<g>
			<path class="st102" d="M128,190.9c4.3,8.2,1.2,18.3-7,22.6c-8.2,4.3-18.3,1.2-22.6-7c-4.3-8.2-1.2-18.3,7-22.6
				C113.6,179.6,123.7,182.7,128,190.9z"/>
		</g>
		<g>
			<circle class="st102" cx="110.7" cy="146.7" r="5.5"/>
		</g>
		<g>
			<path class="st102" d="M48.4,53.2c0,3.1-2.5,5.5-5.5,5.5c-3.1,0-5.5-2.5-5.5-5.5s2.5-5.5,5.5-5.5C45.9,47.7,48.4,50.2,48.4,53.2z
				"/>
		</g>
		<g>
			<path class="st102" d="M92.3,110.2c2.9,5.4,0.8,12.1-4.6,15c-5.4,2.9-12.1,0.8-15-4.6c-2.9-5.4-0.8-12.1,4.6-15
				C82.7,102.7,89.4,104.8,92.3,110.2z"/>
		</g>
		<g>
			<path class="st102" d="M161.2,73.9c4.3,8.2,1.2,18.3-7,22.6c-8.2,4.3-18.3,1.2-22.6-7c-4.3-8.2-1.2-18.3,7-22.6
				C146.8,62.6,156.9,65.7,161.2,73.9z"/>
		</g>
		<g>
			<path class="st102" d="M124.7,27c0,3.1-2.5,5.5-5.5,5.5c-3.1,0-5.5-2.5-5.5-5.5s2.5-5.5,5.5-5.5C122.2,21.4,124.7,23.9,124.7,27z
				"/>
		</g>
		<g>
			<circle class="st102" cx="48.4" cy="124.9" r="5.5"/>
		</g>
		<g>
			
				<ellipse transform="matrix(0.9642 -0.265 0.265 0.9642 -12.2367 26.8903)" class="st102" cx="93.5" cy="58.8" rx="11.1" ry="11.1"/>
		</g>
	</g>
</g>
</svg>
