<?xml version="1.0" encoding="utf-8"?>
<!-- Generator: Adobe Illustrator 24.3.0, SVG Export Plug-In . SVG Version: 6.00 Build 0)  -->
<svg version="1.1" id="Layer_1" xmlns="http://www.w3.org/2000/svg" xmlns:xlink="http://www.w3.org/1999/xlink" x="0px" y="0px"
	 viewBox="0 0 355.1 198" style="enable-background:new 0 0 355.1 198;" xml:space="preserve">
<style type="text/css">
	.st0{fill-rule:evenodd;clip-rule:evenodd;fill:#3888E8;}
	.st1{fill:#F2C91C;}
	.st2{opacity:0.7;fill:#CEA809;}
	.st3{fill:#FFDD50;}
	.st4{fill:#FFFFFF;}
	.st5{opacity:0.1;fill:url(#SVGID_1_);}
	.st6{opacity:0.1;fill:url(#SVGID_2_);}
	.st7{fill:#DBDBD9;}
	.st8{opacity:0.1;fill:url(#SVGID_3_);}
	.st9{opacity:0.7;fill:#999999;}
</style>
<g>
	<g>
		<polygon class="st1" points="16.1,72.6 169.5,98.3 323,77.8 169,129.1 		"/>
		<g>
			<polygon class="st2" points="169,129.1 233.4,107.7 223.2,91.2 169.5,98.3 124.4,90.8 113.5,108.6 			"/>
		</g>
		<polygon class="st3" points="116.8,109.8 173.4,16.7 230,108.8 169,129.1 		"/>
		<polygon class="st4" points="169,129.1 271.5,177.5 323,77.8 		"/>
		<linearGradient id="SVGID_1_" gradientUnits="userSpaceOnUse" x1="239.2251" y1="127.6179" x2="169.6665" y2="127.6179">
			<stop  offset="0" style="stop-color:#000000;stop-opacity:0"/>
			<stop  offset="0.8655" style="stop-color:#000000;stop-opacity:0.8655"/>
			<stop  offset="1" style="stop-color:#000000"/>
		</linearGradient>
		<polygon class="st5" points="169,129.1 271.5,177.5 323,77.8 		"/>
		<polygon class="st4" points="68.1,177.5 169,129.1 16.1,72.6 		"/>
		<linearGradient id="SVGID_2_" gradientUnits="userSpaceOnUse" x1="115.4158" y1="151.2938" x2="37.9996" y2="101.5666">
			<stop  offset="0" style="stop-color:#000000;stop-opacity:0"/>
			<stop  offset="1" style="stop-color:#000000"/>
		</linearGradient>
		<polygon class="st6" points="68.1,177.5 169,129.1 16.1,72.6 		"/>
		<polygon class="st7" points="68.1,177.5 271.5,177.5 169,129.1 		"/>
		<radialGradient id="SVGID_3_" cx="172.5072" cy="17.4862" r="159.5767" gradientUnits="userSpaceOnUse">
			<stop  offset="0" style="stop-color:#000000;stop-opacity:0"/>
			<stop  offset="0.8655" style="stop-color:#000000;stop-opacity:0.8655"/>
			<stop  offset="1" style="stop-color:#000000"/>
		</radialGradient>
		<polygon class="st8" points="68.1,177.5 271.5,177.5 169,129.1 		"/>
		<path class="st4" d="M164.9,127.6c0,0-0.5-92.8,8.5-110.9c0,0,3.6,91.2,0,111l-4.4,1.5L164.9,127.6z"/>
		<path class="st9" d="M173.4,16.7c0,0.1-0.1,0.2-0.1,0.3c0.2,21,0.5,86.6-2.1,111.5l2.2-0.7C177,107.9,173.4,16.7,173.4,16.7z"/>
	</g>
</g>
</svg>
