<?xml version="1.0" encoding="utf-8"?>
<!-- Generator: Adobe Illustrator 24.3.0, SVG Export Plug-In . SVG Version: 6.00 Build 0)  -->
<svg version="1.1" id="Layer_1" xmlns="http://www.w3.org/2000/svg" xmlns:xlink="http://www.w3.org/1999/xlink" x="0px" y="0px"
	 viewBox="0 0 527.9 452" style="enable-background:new 0 0 527.9 452;" xml:space="preserve">
<style type="text/css">
	.st0{fill:#004259;}
</style>
<g>
	<path class="st0" d="M344,95.6c0.4,1.4-0.5,2.9-1.9,3.3s-2.9-0.5-3.3-1.9s0.5-2.9,1.9-3.3C342.2,93.3,343.6,94.1,344,95.6z"/>
	<path class="st0" d="M341.3,105.1c0.3,1.1-0.3,2.3-1.5,2.6c-1.1,0.3-2.3-0.3-2.6-1.5c-0.3-1.1,0.3-2.3,1.5-2.6
		C339.8,103.3,341,104,341.3,105.1z"/>
	<path class="st0" d="M341.2,87.5c-0.8,0.2-1.5,0.1-2.2-0.3c-1.4-0.8-1.9-2.6-1.1-4c0.4-0.7,1-1.2,1.8-1.4c0.8-0.2,1.5-0.1,2.2,0.3
		s1.2,1,1.4,1.8c0.2,0.8,0.1,1.5-0.3,2.2C342.5,86.9,341.9,87.3,341.2,87.5z"/>
	<path class="st0" d="M328.7,78.5c-1.1-1.1-1.1-2.8,0-3.8c1.1-1.1,2.8-1,3.8,0c1.1,1.1,1,2.8,0,3.8S329.8,79.6,328.7,78.5z"/>
	<path class="st0" d="M331.9,87.3c-0.8-0.8-0.8-2.1,0-3c0.8-0.8,2.1-0.8,3,0c0.8,0.8,0.8,2.1,0,3C334,88.1,332.7,88.1,331.9,87.3z"
		/>
	<path class="st0" d="M326.1,69.1c-0.6,0.6-1.3,0.9-2.1,0.9c-1.6,0-2.9-1.3-2.9-2.9c0-0.8,0.3-1.5,0.9-2.1s1.3-0.9,2.1-0.9
		c0.8,0,1.5,0.3,2.1,0.9s0.9,1.3,0.9,2.1C326.9,67.9,326.6,68.6,326.1,69.1z"/>
	<path class="st0" d="M88.5,335.5c1.1,2.5,45.3-17.9,58.9-40.6c4.7-7.8,19.6-8.5,22.9-8.6c12.4,1.3,39.8,4.1,49.6,3.8
		c0.3-0.3,0.6-0.5,0.9-0.8c2.4-2.2,6.7-6.2,12-11.6c-0.4,4.2-0.5,9.1-0.1,14.9c-8.3,0.1-23,0.6-45.9,14.6l0,0c0,0-5.3,2-9.2-0.9
		c-2.6-2-7,5.3-7.5,6.4c-17.9,38.9-48.9,47.7-49.7,49.1c-0.8,1.4,0.5,17.1,9.5,27.4c1.8,2.1,30.6-9,46-59c3-9.7,20-15,20-15
		c12.6-2.5,38.9-8,48.1-11c8.5-9.7,26.3-40.8,36.1-74.2c2.9-2.9,6-6,9.2-9.2c4.7,10.1,10.6,19,10.6,19l6.9-4.1
		c-5.5-8-9-14.1-11.2-18.3c1.4-1.4,3.7-3.7,6.4-6.4c1.5,2.5,3.2,5.2,5.2,8l-0.1,0.1c-1,1.8-0.8,4.2,0.5,6c2.9,4.3,6.1,9.4,6.8,10.4
		c0,0.1,0.1,0.1,0.1,0.2l0,0c0.1,0.1,0.2,0.3,0.3,0.4c2.2,2.9,6.3,3.4,9.2,1.2c2.9-2.2,3.4-6.3,1.2-9.2c-0.1-0.1-0.2-0.2-0.3-0.4
		l0,0l0,0c-0.1-0.1-0.1-0.1-0.2-0.2c-0.2-0.2-0.5-0.5-0.8-0.9c0.7-1.9,0.5-4-0.7-5.5c-1.3-1.7-3.6-2.5-6-2v0.1
		c-0.3-0.3-0.5-0.6-0.8-0.9c-1.5-1.7-3.8-2.6-6-1.8c-2.2-3.1-4.1-5.9-5.6-8.5c3.9-4.1,8.1-8.8,10.9-12.6l45.9-31.5
		c9.4-6.3,15-20,21.6-32c1.7-3.2,3.6-11.9,5.8-18.9c2-1.8,3.8-4.2,4.9-7.5c2.6-7.4-1-3.9,6.9-12.4c4.8-5.1,4.9-9.1-0.1-6.1
		s-7.8,3-10.2,7.5c-2.4,4.5-11.9,23.1-11.9,23.1c-1.7,2.1-3.4,4.1-4.8,5.9c-16.9,20.7-10.8,14.8-15.4,19.6c0,0-23.9,16.6-33.3,17.4
		l30.1-19.3c7.3-6,12.2-19.7,20.1-31.1c1.9-2.7,5-8.9,8.1-14.5c2.6-1.5,5.3-4,7.2-8c3.5-7.3-0.5-4.1,8.3-11.8c5.3-4.7,6-8.7,0.7-6.3
		c-5.2,2.4-8,2.1-10.9,6.5c-2.9,4.3-14.6,22-14.6,22l0,0c-1.9,1.9-3.8,3.8-5.4,5.4c-19.1,19-17.2,21-19.2,22.8c0,0-0.7,0.4-1.9,1.2
		c0,0,0,0,0-0.1c0.6-2.2,0.2-4.3-1.2-5.9c-2.5-2.9-6.9-3.8-9.3-3.8c1.1-5.4-1.5-13-1.9-13c-0.3,0-1.9,0.1-3.7,0.3
		c-0.7-1.2-1.7-2.6-3.2-4c-1-1-2.1-1.7-3.2-2.4c-0.3-0.2-0.7-0.4-1.1-0.6h-0.1c-2.8-1.3-6.4-2-10.9-1.5c-6.9,0.8-17,8.4-16.3,19.4
		c-0.9-0.9-2-1.6-3.2-2c-2-0.7-4.5-0.2-6.4,1.2c-0.7,0.5-1.5,1.4-2.3,2.6c-0.1-0.2-0.1-0.4-0.2-0.5c-1.6-3.6-4.2-6.7-7.7-9.1
		c-4.2-2.8-9.4-4.4-14.6-4.4c-5.7,0-11.3,1.7-16.1,4.9c-4.4,3-8.2,6.8-11.1,11.2c-2.8,4.3-4.8,8.9-5.8,13.9s-1.1,10-0.2,14.9
		c0.9,5.1,2.9,9.9,5.8,14.2c2.3,3.4,5.2,6.4,8.4,8.8l-4.3,6.9c-1.8-0.2-3.1,0-3.6,0.8s-0.1,2.1,0.8,3.5l-7.5,12.1
		c-2.4,3.8,0.4,9.8,6.2,13.4c3.8,2.4,8,3,11.1,2.1c0.1,0.1,0.1,0.1,0.2,0.2c-1.9,1.9-3.5,3.7-4.6,5.4c-5.9,9.6-4.5,16.9-5.3,21.5
		c-1,5.5-15.6,15.1-23,37.6c-7.9-2.3-22.1-6.3-48.4,0.6l0,0l0,0c-0.2,0-0.3,0.1-0.5,0.1c-1.4,0.3-4.9,0.5-8-3.6
		c-3.4-4.7-15.4,8.9-16.4,9.7c-37.6,31.6-50.3,28.7-51.5,29.8C87.1,313,82.9,323.1,88.5,335.5z M335.8,134.4
		c-4.5,2.5-9.6,5.3-14.8,7.8l1.5-4.6c1.7-0.1,3.4-0.4,5-1.2c2.3-1.1,3.7-3.4,4.5-6.3l0,0l0.9,0.4l-0.5,1.3c-0.2,0.6,0,1.2,0.6,1.5
		L335.8,134.4z M297.1,140c-0.2,0.1-0.5,0.3-0.7,0.4c-2.2,1.3-4.7,3.1-7.7,5.4c-1.3,0.9-2.6,2-3.9,3.1c0.5-3.5-0.5-7.1-2.7-9.8
		l2.5-4.1l-1.7-1l0.9-1.5l1.7,1l0.4,0.2l0,0c-0.3,2.2,0.7,4.4,2.7,5.6c2,1.2,4.4,1.1,6.2-0.1L297.1,140z M282.2,127.1l-3.2-1.9
		c0.1-0.1,0.2-0.3,0.3-0.4c0.4-0.7,0.3-1-0.1-1.4c-1.9-1.6-3.7-3.2-5.6-4.8c-0.4-0.3-1.1-0.2-1.6,0.5c-1.3,2.1-2.2,3.6-3.5,5.7
		c-0.3,0.7-0.2,1.4,0.3,1.6c2.3,1,4.5,1.9,6.8,2.9c0.5,0.2,1.1,0,1.3-0.5c0.1-0.2,0.2-0.3,0.3-0.4l3.6,2.3l-0.9,1.5l-1.7-1l-2.5,4.1
		c-5-1.2-10.5,0.8-13.4,5.5l-4,6.4c-1.8-0.2-3.1,0-3.6,0.8c-0.1,0.2-0.2,0.4-0.2,0.7c-0.1,0.8,0.3,1.8,1.1,2.9l0,0l-10.4,16.8
		c-3.1-2.1-5.7-4.5-7.6-7.4c-10.8-15.9-6.2-37.9,10.3-49.1c9.4-6.4,20.2-4.9,26.7-0.5C280.1,115,282.9,120.8,282.2,127.1z
		 M292.2,128.7l0.1,0.1c-1.8-0.2-3.6,0.4-4.8,1.7l-0.1-0.1l0,0l-1.7-1l0.8-1.3c0.3-0.2,0.6-0.4,0.8-0.8c0.5-0.8,0.4-1.7-0.1-2.4
		c0.1-2.8,0.9-4.9,2.3-6c0.8-0.6,1.6-0.7,2.1-0.5s1.8,0.8,2.3,2.2C294.7,122.5,294.1,125.3,292.2,128.7z M298.7,124.1
		c1,2,2.4,4,4.1,6c0,0.1,0.1,0.1,0.1,0.2c0.6,1.2,1,2.3,0.8,3.6c-0.2,1-1.2,2.4-2.7,3.8l-4.1-1.3c0.7-1.9,0.3-4-1-5.5l0.2,0.1
		C297.6,128.5,298.4,126.2,298.7,124.1z M334.3,118.9c0,0-0.6,0.1-1.3,0.2c-2.6,0.4-8.1,0.8-9.4-0.3c-1.9-1.6-2.7-7.8,0.7-9
		c2.2-0.8,5.5-1.2,7.5-1.1c0.9,0,1.6,0.2,1.8,0.4C334.8,110.1,335.4,117.9,334.3,118.9z M343.1,126.5c-0.2,0.7-0.9,1.3-1.8,1.7
		c-0.2,0.1-0.4,0.1-0.8,0.2c-0.1-1-0.4-1.7-1.1-2h-0.1h-0.1l-3-1.2c-0.6-0.2-1.2,0-1.5,0.6l-0.5,1.3l-0.9-0.4l0.3-0.6l-0.9-0.4
		c0.1-1.2,0.2-2.4,0.2-3.7c4.7-0.3,8.7,1.2,9.8,2.5C343.1,124.8,343.4,125.4,343.1,126.5z"/>
</g>
</svg>
