<?xml version="1.0" encoding="utf-8"?>
<!-- Generator: Adobe Illustrator 24.3.0, SVG Export Plug-In . SVG Version: 6.00 Build 0)  -->
<svg version="1.1" id="Layer_1" xmlns="http://www.w3.org/2000/svg" xmlns:xlink="http://www.w3.org/1999/xlink" x="0px" y="0px"
	 viewBox="0 0 527.9 452" style="enable-background:new 0 0 527.9 452;" xml:space="preserve">
<style type="text/css">
	.st0{fill-rule:evenodd;clip-rule:evenodd;fill:#1E599F;}
	.st1{opacity:0.56;fill-rule:evenodd;clip-rule:evenodd;fill:#3EAFD6;}
	.st2{fill-rule:evenodd;clip-rule:evenodd;fill:#3888E8;}
	.st3{fill:#F2C91C;}
	.st4{opacity:0.7;fill:#CEA809;enable-background:new    ;}
	.st5{fill:#FFDD50;}
	.st6{fill:#FFFFFF;}
	.st7{opacity:0.1;fill:url(#SVGID_1_);enable-background:new    ;}
	.st8{opacity:0.1;fill:url(#SVGID_2_);enable-background:new    ;}
	.st9{fill:#DBDBD9;}
	.st10{opacity:0.1;fill:url(#SVGID_3_);enable-background:new    ;}
	.st11{opacity:0.7;fill:#999999;enable-background:new    ;}
	.st12{fill:#E72D00;}
	.st13{fill:#333333;}
	.st14{fill:#CCCCCC;}
	.st15{fill:#999999;}
	.st16{fill:#FEFEFE;}
	.st17{fill:none;stroke:#000000;stroke-miterlimit:10;}
	.st18{clip-path:url(#SVGID_5_);}
	.st19{enable-background:new    ;}
	.st20{filter:url(#Adobe_OpacityMaskFilter);}
	.st21{clip-path:url(#SVGID_7_);}
	.st22{clip-path:url(#SVGID_9_);}
	.st23{clip-path:url(#SVGID_7_);mask:url(#Layer_1_copy_2_);}
	.st24{fill-rule:evenodd;clip-rule:evenodd;fill:#3EAFD6;}
	.st25{fill-rule:evenodd;clip-rule:evenodd;fill:url(#SVGID_13_);}
	.st26{fill:#082647;}
	.st27{clip-path:url(#SVGID_14_);}
	.st28{fill:#D4ECFF;}
	.st29{fill:#1C88FF;}
	.st30{fill:#3E90DC;}
	.st31{fill:#2A7D9E;}
	.st32{fill:#196389;}
	.st33{fill:#80E67B;}
	.st34{fill:#0277BD;}
	.st35{fill:#E1F5FE;}
	.st36{fill:#014073;}
	.st37{fill:#F5FF88;}
	.st38{fill:#53AAE0;}
	.st39{fill:#2A7BB7;}
	.st40{fill:#85D1FF;}
	.st41{fill:url(#SVGID_15_);}
	.st42{fill:url(#SVGID_16_);}
	.st43{fill:url(#SVGID_17_);}
	.st44{fill:url(#SVGID_18_);}
	.st45{fill:url(#SVGID_19_);}
	.st46{fill:url(#SVGID_20_);}
	.st47{fill:url(#SVGID_21_);}
	.st48{fill:url(#SVGID_22_);}
	.st49{fill:url(#SVGID_23_);}
	.st50{fill:url(#SVGID_24_);}
	.st51{fill:url(#SVGID_25_);}
	.st52{fill:url(#SVGID_26_);}
	.st53{fill:url(#SVGID_27_);}
	.st54{fill:url(#SVGID_28_);}
	.st55{fill:url(#SVGID_29_);}
	.st56{fill:#0A315C;}
	.st57{fill:#45B5FF;}
	.st58{opacity:0.1;fill:url(#SVGID_30_);enable-background:new    ;}
	.st59{opacity:0.1;fill:url(#SVGID_31_);enable-background:new    ;}
	.st60{opacity:0.1;fill:url(#SVGID_32_);enable-background:new    ;}
	.st61{fill:url(#SVGID_33_);}
	.st62{fill:url(#SVGID_34_);}
	.st63{fill:url(#SVGID_35_);}
	.st64{fill:url(#SVGID_36_);}
	.st65{fill:url(#SVGID_37_);}
	.st66{fill:url(#SVGID_38_);}
	.st67{opacity:0.5;}
	.st68{fill:#E8C42A;}
	.st69{opacity:0.46;}
	.st70{fill:url(#XMLID_20_);}
	.st71{fill:url(#XMLID_21_);}
	.st72{fill:url(#XMLID_22_);}
	.st73{fill:url(#XMLID_23_);}
	.st74{fill:url(#XMLID_24_);}
	.st75{fill:url(#XMLID_25_);}
	.st76{fill:url(#XMLID_26_);}
	.st77{fill:url(#XMLID_27_);}
	.st78{fill:url(#XMLID_28_);}
	.st79{fill:url(#XMLID_29_);}
	.st80{fill:url(#SVGID_39_);}
	.st81{fill:url(#SVGID_40_);}
	.st82{fill:url(#SVGID_41_);}
	.st83{fill:url(#SVGID_42_);}
	.st84{fill:url(#SVGID_43_);}
	.st85{fill:url(#SVGID_44_);}
	.st86{fill:url(#SVGID_45_);}
</style>
<g>
	
		<linearGradient id="SVGID_1_" gradientUnits="userSpaceOnUse" x1="-8189.3828" y1="490.4746" x2="-8053.3745" y2="740.9464" gradientTransform="matrix(-0.9841 0.1777 0.1777 0.9841 -7787.2559 1015.418)">
		<stop  offset="0" style="stop-color:#2883C0"/>
		<stop  offset="0.1267" style="stop-color:#1C74AA"/>
		<stop  offset="0.2949" style="stop-color:#0F6494"/>
		<stop  offset="0.4802" style="stop-color:#075985"/>
		<stop  offset="0.6937" style="stop-color:#02537C"/>
		<stop  offset="1" style="stop-color:#005179"/>
	</linearGradient>
	<path style="fill:url(#SVGID_1_);" d="M344,95.6c0.4,1.4-0.5,2.9-1.9,3.3c-1.4,0.4-2.9-0.5-3.3-1.9c-0.4-1.4,0.5-2.9,1.9-3.3
		C342.2,93.3,343.6,94.1,344,95.6z"/>
	
		<linearGradient id="SVGID_2_" gradientUnits="userSpaceOnUse" x1="-8190.1699" y1="490.9038" x2="-8054.1646" y2="741.3691" gradientTransform="matrix(-0.9841 0.1777 0.1777 0.9841 -7787.2559 1015.418)">
		<stop  offset="0" style="stop-color:#2883C0"/>
		<stop  offset="0.1267" style="stop-color:#1C74AA"/>
		<stop  offset="0.2949" style="stop-color:#0F6494"/>
		<stop  offset="0.4802" style="stop-color:#075985"/>
		<stop  offset="0.6937" style="stop-color:#02537C"/>
		<stop  offset="1" style="stop-color:#005179"/>
	</linearGradient>
	<path style="fill:url(#SVGID_2_);" d="M341.3,105.1c0.3,1.1-0.3,2.3-1.5,2.6c-1.1,0.3-2.3-0.3-2.6-1.5c-0.3-1.1,0.3-2.3,1.5-2.6
		C339.8,103.3,341,104,341.3,105.1z"/>
	
		<linearGradient id="SVGID_3_" gradientUnits="userSpaceOnUse" x1="-8185.3257" y1="488.2707" x2="-8049.3159" y2="738.7449" gradientTransform="matrix(-0.9841 0.1777 0.1777 0.9841 -7787.2559 1015.418)">
		<stop  offset="0" style="stop-color:#2883C0"/>
		<stop  offset="0.1267" style="stop-color:#1C74AA"/>
		<stop  offset="0.2949" style="stop-color:#0F6494"/>
		<stop  offset="0.4802" style="stop-color:#075985"/>
		<stop  offset="0.6937" style="stop-color:#02537C"/>
		<stop  offset="1" style="stop-color:#005179"/>
	</linearGradient>
	<path style="fill:url(#SVGID_3_);" d="M341.2,87.5c-0.8,0.2-1.5,0.1-2.2-0.3c-1.4-0.8-1.9-2.6-1.1-4c0.4-0.7,1-1.2,1.8-1.4
		c0.8-0.2,1.5-0.1,2.2,0.3c0.7,0.4,1.2,1,1.4,1.8c0.2,0.8,0.1,1.5-0.3,2.2C342.5,86.9,341.9,87.3,341.2,87.5z"/>
	
		<linearGradient id="SVGID_5_" gradientUnits="userSpaceOnUse" x1="-8174.9346" y1="482.6285" x2="-8038.9268" y2="733.0994" gradientTransform="matrix(-0.9841 0.1777 0.1777 0.9841 -7787.2559 1015.418)">
		<stop  offset="0" style="stop-color:#2883C0"/>
		<stop  offset="0.1267" style="stop-color:#1C74AA"/>
		<stop  offset="0.2949" style="stop-color:#0F6494"/>
		<stop  offset="0.4802" style="stop-color:#075985"/>
		<stop  offset="0.6937" style="stop-color:#02537C"/>
		<stop  offset="1" style="stop-color:#005179"/>
	</linearGradient>
	<path style="fill:url(#SVGID_5_);" d="M328.7,78.5c-1.1-1.1-1.1-2.8,0-3.8c1.1-1.1,2.8-1,3.8,0c1.1,1.1,1,2.8,0,3.8
		S329.8,79.6,328.7,78.5z"/>
	
		<linearGradient id="SVGID_7_" gradientUnits="userSpaceOnUse" x1="-8179.7671" y1="485.2523" x2="-8043.7578" y2="735.7252" gradientTransform="matrix(-0.9841 0.1777 0.1777 0.9841 -7787.2559 1015.418)">
		<stop  offset="0" style="stop-color:#2883C0"/>
		<stop  offset="0.1267" style="stop-color:#1C74AA"/>
		<stop  offset="0.2949" style="stop-color:#0F6494"/>
		<stop  offset="0.4802" style="stop-color:#075985"/>
		<stop  offset="0.6937" style="stop-color:#02537C"/>
		<stop  offset="1" style="stop-color:#005179"/>
	</linearGradient>
	<path style="fill:url(#SVGID_7_);" d="M331.9,87.3c-0.8-0.8-0.8-2.1,0-3c0.8-0.8,2.1-0.8,3,0c0.8,0.8,0.8,2.1,0,3
		C334,88.1,332.7,88.1,331.9,87.3z"/>
	
		<linearGradient id="SVGID_9_" gradientUnits="userSpaceOnUse" x1="-8166.8062" y1="478.2145" x2="-8030.7998" y2="728.6819" gradientTransform="matrix(-0.9841 0.1777 0.1777 0.9841 -7787.2559 1015.418)">
		<stop  offset="0" style="stop-color:#2883C0"/>
		<stop  offset="0.1267" style="stop-color:#1C74AA"/>
		<stop  offset="0.2949" style="stop-color:#0F6494"/>
		<stop  offset="0.4802" style="stop-color:#075985"/>
		<stop  offset="0.6937" style="stop-color:#02537C"/>
		<stop  offset="1" style="stop-color:#005179"/>
	</linearGradient>
	<path style="fill:url(#SVGID_9_);" d="M326.1,69.1c-0.6,0.6-1.3,0.9-2.1,0.9c-1.6,0-2.9-1.3-2.9-2.9c0-0.8,0.3-1.5,0.9-2.1
		c0.6-0.6,1.3-0.9,2.1-0.9c0.8,0,1.5,0.3,2.1,0.9c0.6,0.6,0.9,1.3,0.9,2.1C326.9,67.9,326.6,68.6,326.1,69.1z"/>
	
		<linearGradient id="SVGID_12_" gradientUnits="userSpaceOnUse" x1="-8685.0508" y1="-842.8502" x2="-8538.6465" y2="-573.2338" gradientTransform="matrix(-0.9914 -0.1305 -0.1305 0.9914 -8341.3877 -260.8488)">
		<stop  offset="0" style="stop-color:#2883C0"/>
		<stop  offset="0.1267" style="stop-color:#1C74AA"/>
		<stop  offset="0.2949" style="stop-color:#0F6494"/>
		<stop  offset="0.4802" style="stop-color:#075985"/>
		<stop  offset="0.6937" style="stop-color:#02537C"/>
		<stop  offset="1" style="stop-color:#005179"/>
	</linearGradient>
	<path style="fill:url(#SVGID_12_);" d="M88.5,335.5c1.1,2.5,45.3-17.9,58.9-40.6c4.7-7.8,19.6-8.5,22.9-8.6
		c12.4,1.3,39.8,4.1,49.6,3.8c0.3-0.3,0.6-0.5,0.9-0.8c2.4-2.2,6.7-6.2,12-11.6c-0.4,4.2-0.5,9.1-0.1,14.9
		c-8.3,0.1-23,0.6-45.9,14.6l0,0c0,0-5.3,2-9.2-0.9c-2.6-2-7,5.3-7.5,6.4c-17.9,38.9-48.9,47.7-49.7,49.1
		c-0.8,1.4,0.5,17.1,9.5,27.4c1.8,2.1,30.6-9,46-59c3-9.7,20-15,20-15c12.6-2.5,38.9-8,48.1-11c8.5-9.7,26.3-40.8,36.1-74.2
		c2.9-2.9,6-6,9.2-9.2c4.7,10.1,10.6,19,10.6,19l6.9-4.1c-5.5-8-9-14.1-11.2-18.3c1.4-1.4,3.7-3.7,6.4-6.4c1.5,2.5,3.2,5.2,5.2,8
		l-0.1,0.1c-1,1.8-0.8,4.2,0.5,6c2.9,4.3,6.1,9.4,6.8,10.4c0,0.1,0.1,0.1,0.1,0.2c0,0,0,0,0,0c0.1,0.1,0.2,0.3,0.3,0.4
		c2.2,2.9,6.3,3.4,9.2,1.2c2.9-2.2,3.4-6.3,1.2-9.2c-0.1-0.1-0.2-0.2-0.3-0.4l0,0c0,0,0,0,0,0c-0.1-0.1-0.1-0.1-0.2-0.2
		c-0.2-0.2-0.5-0.5-0.8-0.9c0.7-1.9,0.5-4-0.7-5.5c-1.3-1.7-3.6-2.5-6-2l0,0.1c-0.3-0.3-0.5-0.6-0.8-0.9c-1.5-1.7-3.8-2.6-6-1.8
		c-2.2-3.1-4.1-5.9-5.6-8.5c3.9-4.1,8.1-8.8,10.9-12.6l45.9-31.5c9.4-6.3,15-20,21.6-32c1.7-3.2,3.6-11.9,5.8-18.9
		c2-1.8,3.8-4.2,4.9-7.5c2.6-7.4-1-3.9,6.9-12.4c4.8-5.1,4.9-9.1-0.1-6.1c-5,3-7.8,3-10.2,7.5c-2.4,4.5-11.9,23.1-11.9,23.1
		c-1.7,2.1-3.4,4.1-4.8,5.9c-16.9,20.7-10.8,14.8-15.4,19.6c0,0-23.9,16.6-33.3,17.4l30.1-19.3c7.3-6,12.2-19.7,20.1-31.1
		c1.9-2.7,5-8.9,8.1-14.5c2.6-1.5,5.3-4,7.2-8c3.5-7.3-0.5-4.1,8.3-11.8c5.3-4.7,6-8.7,0.7-6.3c-5.2,2.4-8,2.1-10.9,6.5
		c-2.9,4.3-14.6,22-14.6,22l0,0c-1.9,1.9-3.8,3.8-5.4,5.4c-19.1,19-17.2,21-19.2,22.8c0,0-0.7,0.4-1.9,1.2c0,0,0,0,0-0.1
		c0.6-2.2,0.2-4.3-1.2-5.9c-2.5-2.9-6.9-3.8-9.3-3.8c1.1-5.4-1.5-13-1.9-13c-0.3,0-1.9,0.1-3.7,0.3c-0.7-1.2-1.7-2.6-3.2-4
		c-1-1-2.1-1.7-3.2-2.4c-0.3-0.2-0.7-0.4-1.1-0.6c0,0-0.1,0-0.1,0c-2.8-1.3-6.4-2-10.9-1.5c-6.9,0.8-17,8.4-16.3,19.4
		c-0.9-0.9-2-1.6-3.2-2c-2-0.7-4.5-0.2-6.4,1.2c-0.7,0.5-1.5,1.4-2.3,2.6c-0.1-0.2-0.1-0.4-0.2-0.5c-1.6-3.6-4.2-6.7-7.7-9.1
		c-4.2-2.8-9.4-4.4-14.6-4.4c-5.7,0-11.3,1.7-16.1,4.9c-4.4,3-8.2,6.8-11.1,11.2c-2.8,4.3-4.8,8.9-5.8,13.9c-1,5-1.1,10-0.2,14.9
		c0.9,5.1,2.9,9.9,5.8,14.2c2.3,3.4,5.2,6.4,8.4,8.8l-4.3,6.9c-1.8-0.2-3.1,0-3.6,0.8c-0.5,0.8-0.1,2.1,0.8,3.5l-7.5,12.1
		c-2.4,3.8,0.4,9.8,6.2,13.4c3.8,2.4,8,3,11.1,2.1c0.1,0.1,0.1,0.1,0.2,0.2c-1.9,1.9-3.5,3.7-4.6,5.4c-5.9,9.6-4.5,16.9-5.3,21.5
		c-1,5.5-15.6,15.1-23,37.6c-7.9-2.3-22.1-6.3-48.4,0.6l0,0c0,0,0,0,0,0c-0.2,0-0.3,0.1-0.5,0.1c-1.4,0.3-4.9,0.5-8-3.6
		c-3.4-4.7-15.4,8.9-16.4,9.7c-37.6,31.6-50.3,28.7-51.5,29.8C87.1,313,82.9,323.1,88.5,335.5z M335.8,134.4
		c-4.5,2.5-9.6,5.3-14.8,7.8l1.5-4.6c1.7-0.1,3.4-0.4,5-1.2c2.3-1.1,3.7-3.4,4.5-6.3l0,0l0.9,0.4l-0.5,1.3c-0.2,0.6,0,1.2,0.6,1.5
		L335.8,134.4z M297.1,140c-0.2,0.1-0.5,0.3-0.7,0.4c-2.2,1.3-4.7,3.1-7.7,5.4c-1.3,0.9-2.6,2-3.9,3.1c0.5-3.5-0.5-7.1-2.7-9.8
		l2.5-4.1l-1.7-1l0.9-1.5l1.7,1l0.4,0.2l0,0c-0.3,2.2,0.7,4.4,2.7,5.6c2,1.2,4.4,1.1,6.2-0.1L297.1,140z M282.2,127.1l-3.2-1.9
		c0.1-0.1,0.2-0.3,0.3-0.4c0.4-0.7,0.3-1-0.1-1.4c-1.9-1.6-3.7-3.2-5.6-4.8c-0.4-0.3-1.1-0.2-1.6,0.5c-1.3,2.1-2.2,3.6-3.5,5.7
		c-0.3,0.7-0.2,1.4,0.3,1.6c2.3,1,4.5,1.9,6.8,2.9c0.5,0.2,1.1,0,1.3-0.5c0.1-0.2,0.2-0.3,0.3-0.4l3.6,2.3l-0.9,1.5l-1.7-1l-2.5,4.1
		c-5-1.2-10.5,0.8-13.4,5.5l-4,6.4c-1.8-0.2-3.1,0-3.6,0.8c-0.1,0.2-0.2,0.4-0.2,0.7c-0.1,0.8,0.3,1.8,1.1,2.9c0,0,0,0,0,0
		l-10.4,16.8c-3.1-2.1-5.7-4.5-7.6-7.4c-10.8-15.9-6.2-37.9,10.3-49.1c9.4-6.4,20.2-4.9,26.7-0.5C280.1,115,282.9,120.8,282.2,127.1
		z M292.2,128.7l0.1,0.1c-1.8-0.2-3.6,0.4-4.8,1.7l-0.1-0.1v0l-1.7-1l0.8-1.3c0.3-0.2,0.6-0.4,0.8-0.8c0.5-0.8,0.4-1.7-0.1-2.4
		c0.1-2.8,0.9-4.9,2.3-6c0.8-0.6,1.6-0.7,2.1-0.5c0.5,0.2,1.8,0.8,2.3,2.2C294.7,122.5,294.1,125.3,292.2,128.7z M298.7,124.1
		c1,2,2.4,4,4.1,6c0,0.1,0.1,0.1,0.1,0.2c0.6,1.2,1,2.3,0.8,3.6c-0.2,1-1.2,2.4-2.7,3.8l-4.1-1.3c0.7-1.9,0.3-4-1-5.5l0.2,0.1
		C297.6,128.5,298.4,126.2,298.7,124.1z M334.3,118.9c0,0-0.6,0.1-1.3,0.2c-2.6,0.4-8.1,0.8-9.4-0.3c-1.9-1.6-2.7-7.8,0.7-9
		c2.2-0.8,5.5-1.2,7.5-1.1c0.9,0,1.6,0.2,1.8,0.4C334.8,110.1,335.4,117.9,334.3,118.9z M343.1,126.5c-0.2,0.7-0.9,1.3-1.8,1.7
		c-0.2,0.1-0.4,0.1-0.8,0.2c-0.1-1-0.4-1.7-1.1-2c0,0-0.1,0-0.1,0c0,0-0.1,0-0.1,0l-3-1.2c-0.6-0.2-1.2,0-1.5,0.6l-0.5,1.3l-0.9-0.4
		l0.3-0.6l-0.9-0.4c0.1-1.2,0.2-2.4,0.2-3.7c4.7-0.3,8.7,1.2,9.8,2.5C343.1,124.8,343.4,125.4,343.1,126.5z"/>
</g>
</svg>
