<?xml version="1.0" encoding="utf-8"?>
<!-- Generator: Adobe Illustrator 24.3.0, SVG Export Plug-In . SVG Version: 6.00 Build 0)  -->
<svg version="1.1" id="Layer_1" xmlns="http://www.w3.org/2000/svg" xmlns:xlink="http://www.w3.org/1999/xlink" x="0px" y="0px"
	 viewBox="0 0 138.2 134" style="enable-background:new 0 0 138.2 134;" xml:space="preserve">
<style type="text/css">
	.st0{fill-rule:evenodd;clip-rule:evenodd;fill:#1E599F;}
	.st1{opacity:0.56;fill-rule:evenodd;clip-rule:evenodd;fill:#3EAFD6;}
	.st2{fill-rule:evenodd;clip-rule:evenodd;fill:#3888E8;}
	.st3{fill:#F2C91C;}
	.st4{opacity:0.7;fill:#CEA809;enable-background:new    ;}
	.st5{fill:#FFDD50;}
	.st6{fill:#FFFFFF;}
	.st7{opacity:0.1;fill:url(#SVGID_1_);enable-background:new    ;}
	.st8{opacity:0.1;fill:url(#SVGID_2_);enable-background:new    ;}
	.st9{fill:#DBDBD9;}
	.st10{opacity:0.1;fill:url(#SVGID_3_);enable-background:new    ;}
	.st11{opacity:0.7;fill:#999999;enable-background:new    ;}
	.st12{fill:#E72D00;}
	.st13{fill:#333333;}
	.st14{fill:#CCCCCC;}
	.st15{fill:#999999;}
	.st16{fill:#FEFEFE;}
	.st17{fill:none;stroke:#000000;stroke-miterlimit:10;}
	.st18{clip-path:url(#SVGID_5_);}
	.st19{enable-background:new    ;}
	.st20{filter:url(#Adobe_OpacityMaskFilter);}
	.st21{clip-path:url(#SVGID_7_);}
	.st22{clip-path:url(#SVGID_9_);}
	.st23{clip-path:url(#SVGID_7_);mask:url(#Layer_1_copy_2_);}
	.st24{fill-rule:evenodd;clip-rule:evenodd;fill:#3EAFD6;}
	.st25{fill-rule:evenodd;clip-rule:evenodd;fill:url(#SVGID_13_);}
	.st26{fill:#082647;}
	.st27{clip-path:url(#SVGID_14_);}
	.st28{fill:#D4ECFF;}
	.st29{fill:#1C88FF;}
	.st30{fill:#3E90DC;}
	.st31{fill:#2A7D9E;}
	.st32{fill:#196389;}
	.st33{fill:#80E67B;}
	.st34{fill:#0277BD;}
	.st35{fill:#E1F5FE;}
	.st36{fill:#014073;}
	.st37{fill:#F5FF88;}
	.st38{fill:#53AAE0;}
	.st39{fill:#2A7BB7;}
	.st40{fill:#85D1FF;}
	.st41{fill:url(#SVGID_15_);}
	.st42{fill:url(#SVGID_16_);}
	.st43{fill:url(#SVGID_17_);}
	.st44{fill:url(#SVGID_18_);}
	.st45{fill:url(#SVGID_19_);}
	.st46{fill:url(#SVGID_20_);}
	.st47{fill:url(#SVGID_21_);}
	.st48{fill:url(#SVGID_22_);}
	.st49{fill:url(#SVGID_23_);}
	.st50{fill:url(#SVGID_24_);}
	.st51{fill:url(#SVGID_25_);}
	.st52{fill:url(#SVGID_26_);}
	.st53{fill:url(#SVGID_27_);}
	.st54{fill:url(#SVGID_28_);}
	.st55{fill:url(#SVGID_29_);}
	.st56{fill:#0A315C;}
	.st57{fill:#45B5FF;}
	.st58{opacity:0.1;fill:url(#SVGID_30_);enable-background:new    ;}
	.st59{opacity:0.1;fill:url(#SVGID_31_);enable-background:new    ;}
	.st60{opacity:0.1;fill:url(#SVGID_32_);enable-background:new    ;}
	.st61{fill:url(#SVGID_33_);}
	.st62{fill:url(#SVGID_34_);}
	.st63{fill:url(#SVGID_35_);}
	.st64{fill:url(#SVGID_36_);}
	.st65{fill:url(#SVGID_37_);}
	.st66{fill:url(#SVGID_38_);}
	.st67{opacity:0.5;}
	.st68{fill:#E8C42A;}
	.st69{opacity:0.46;}
	.st70{fill:url(#XMLID_3_);}
	.st71{fill:url(#XMLID_5_);}
	.st72{fill:url(#XMLID_6_);}
	.st73{fill:url(#XMLID_7_);}
	.st74{fill:url(#XMLID_8_);}
	.st75{fill:url(#XMLID_9_);}
	.st76{fill:url(#XMLID_10_);}
	.st77{fill:url(#XMLID_11_);}
</style>
<g>
	<g class="st67">
		<path d="M85.2,80.9c-1.3,0-2.5,0.2-3.7,0.6V61.8c1.2,0.4,2.5,0.6,3.7,0.6h0c3.3,0,6.4-1.3,8.8-3.6c2.3-2.3,3.6-5.5,3.6-8.8
			c0-3.3-1.3-6.4-3.6-8.8L77.9,25.1c-1.7-1.7-3.9-2.9-6.3-3.4c-0.8-0.2-1.7-0.3-2.5-0.3c-3.3,0-6.4,1.3-8.8,3.6L44.2,41.2
			c-2.3,2.3-3.6,5.5-3.6,8.8c0,3.3,1.3,6.4,3.6,8.8c2.3,2.3,5.5,3.6,8.8,3.6c1.3,0,2.5-0.2,3.7-0.6v19.7c-1.2-0.4-2.5-0.6-3.7-0.6h0
			c-3.3,0-6.4,1.3-8.8,3.6c-2.3,2.3-3.6,5.5-3.6,8.8c0,3.3,1.3,6.4,3.6,8.8l16.1,16.1c1.7,1.7,3.9,2.9,6.3,3.4
			c0.8,0.2,1.7,0.3,2.5,0.3h0c3.3,0,6.4-1.3,8.8-3.6L94,102.1c2.3-2.3,3.6-5.5,3.6-8.8c0-3.3-1.3-6.4-3.6-8.8
			C91.7,82.2,88.5,80.9,85.2,80.9z"/>
		<path d="M69.1,121.8L69.1,121.8c3.3,0,6.4-1.3,8.8-3.6L94,102.1c2.3-2.3,3.6-5.5,3.6-8.8c0-3.3-1.3-6.4-3.6-8.8
			c-2.3-2.3-5.5-3.6-8.8-3.6c-1.3,0-2.5,0.2-3.7,0.6V61.8c1.2,0.4,2.5,0.6,3.7,0.6h0c3.3,0,6.4-1.3,8.8-3.6c2.3-2.3,3.6-5.5,3.6-8.8
			c0-3.3-1.3-6.4-3.6-8.8L77.9,25.1c-1.7-1.7-3.9-2.9-6.3-3.4c-0.8-0.2-1.7-0.3-2.5-0.3L69.1,121.8z"/>
	</g>
	<g>
		<path class="st5" d="M85.2,71.7c-1.3,0-2.5,0.2-3.7,0.6V52.5c1.2,0.4,2.5,0.6,3.7,0.6h0c3.3,0,6.4-1.3,8.8-3.6
			c2.3-2.3,3.6-5.5,3.6-8.8c0-3.3-1.3-6.4-3.6-8.8L77.9,15.9c-1.7-1.7-3.9-2.9-6.3-3.4c-0.8-0.2-1.7-0.3-2.5-0.3
			c-3.3,0-6.4,1.3-8.8,3.6L44.2,32c-2.3,2.3-3.6,5.5-3.6,8.8c0,3.3,1.3,6.4,3.6,8.8c2.3,2.3,5.5,3.6,8.8,3.6c1.3,0,2.5-0.2,3.7-0.6
			v19.7c-1.2-0.4-2.5-0.6-3.7-0.6h0c-3.3,0-6.4,1.3-8.8,3.6c-2.3,2.3-3.6,5.5-3.6,8.8c0,3.3,1.3,6.4,3.6,8.8l16.1,16.1
			c1.7,1.7,3.9,2.9,6.3,3.4c0.8,0.2,1.7,0.3,2.5,0.3h0c3.3,0,6.4-1.3,8.8-3.6L94,92.8c2.3-2.3,3.6-5.5,3.6-8.8
			c0-3.3-1.3-6.4-3.6-8.8C91.7,73,88.5,71.7,85.2,71.7z"/>
		<path class="st68" d="M69.1,112.6L69.1,112.6c3.3,0,6.4-1.3,8.8-3.6L94,92.8c2.3-2.3,3.6-5.5,3.6-8.8c0-3.3-1.3-6.4-3.6-8.8
			c-2.3-2.3-5.5-3.6-8.8-3.6c-1.3,0-2.5,0.2-3.7,0.6V52.5c1.2,0.4,2.5,0.6,3.7,0.6h0c3.3,0,6.4-1.3,8.8-3.6c2.3-2.3,3.6-5.5,3.6-8.8
			c0-3.3-1.3-6.4-3.6-8.8L77.9,15.9c-1.7-1.7-3.9-2.9-6.3-3.4c-0.8-0.2-1.7-0.3-2.5-0.3L69.1,112.6z"/>
	</g>
</g>
</svg>
