<?xml version="1.0" encoding="utf-8"?>
<!-- Generator: Adobe Illustrator 24.3.0, SVG Export Plug-In . SVG Version: 6.00 Build 0)  -->
<svg version="1.1" id="Layer_1" xmlns="http://www.w3.org/2000/svg" xmlns:xlink="http://www.w3.org/1999/xlink" x="0px" y="0px"
	 viewBox="0 0 1920 1080" style="enable-background:new 0 0 1920 1080;" xml:space="preserve">
<style type="text/css">
	.st0{fill-rule:evenodd;clip-rule:evenodd;fill:url(#SVGID_1_);}
	.st1{opacity:0.56;fill-rule:evenodd;clip-rule:evenodd;fill:#3EAFD6;}
	.st2{fill-rule:evenodd;clip-rule:evenodd;fill:#3888E8;}
	.st3{fill:#F2C91C;}
	.st4{opacity:0.7;fill:#CEA809;enable-background:new    ;}
	.st5{fill:#FFDD50;}
	.st6{fill:#FFFFFF;}
	.st7{opacity:0.1;fill:url(#SVGID_2_);enable-background:new    ;}
	.st8{opacity:0.1;fill:url(#SVGID_3_);enable-background:new    ;}
	.st9{fill:#DBDBD9;}
	.st10{opacity:0.1;fill:url(#SVGID_4_);enable-background:new    ;}
	.st11{opacity:0.7;fill:#999999;enable-background:new    ;}
	.st12{fill:#E72D00;}
	.st13{fill:#333333;}
	.st14{fill:#CCCCCC;}
	.st15{fill:#999999;}
	.st16{fill:#FEFEFE;}
	.st17{fill:none;stroke:#000000;stroke-miterlimit:10;}
	.st18{clip-path:url(#SVGID_6_);}
	.st19{enable-background:new    ;}
	.st20{filter:url(#Adobe_OpacityMaskFilter);}
	.st21{clip-path:url(#SVGID_8_);}
	.st22{clip-path:url(#SVGID_10_);}
	.st23{clip-path:url(#SVGID_8_);mask:url(#Layer_1_copy_2_);}
	.st24{fill-rule:evenodd;clip-rule:evenodd;fill:#3EAFD6;}
	.st25{fill-rule:evenodd;clip-rule:evenodd;fill:url(#SVGID_14_);}
	.st26{fill:#082647;}
	.st27{clip-path:url(#SVGID_15_);}
	.st28{fill:#D4ECFF;}
	.st29{fill:#1C88FF;}
	.st30{fill:#3E90DC;}
	.st31{fill:#2A7D9E;}
	.st32{fill:#196389;}
	.st33{fill:#80E67B;}
	.st34{fill:#0277BD;}
	.st35{fill:#E1F5FE;}
	.st36{fill:#014073;}
	.st37{fill:#F5FF88;}
	.st38{fill:#53AAE0;}
	.st39{fill:#2A7BB7;}
	.st40{fill:#85D1FF;}
	.st41{fill:url(#SVGID_16_);}
	.st42{fill:url(#SVGID_17_);}
	.st43{fill:url(#SVGID_18_);}
	.st44{fill:url(#SVGID_19_);}
	.st45{fill:url(#SVGID_20_);}
	.st46{fill:url(#SVGID_21_);}
	.st47{fill:url(#SVGID_22_);}
	.st48{fill:url(#SVGID_23_);}
	.st49{fill:url(#SVGID_24_);}
	.st50{fill:url(#SVGID_25_);}
	.st51{fill:url(#SVGID_26_);}
	.st52{fill:url(#SVGID_27_);}
	.st53{fill:url(#SVGID_28_);}
	.st54{fill:url(#SVGID_29_);}
	.st55{fill:url(#SVGID_30_);}
	.st56{fill:#0A315C;}
	.st57{fill:#45B5FF;}
	.st58{opacity:0.1;fill:url(#SVGID_31_);enable-background:new    ;}
	.st59{opacity:0.1;fill:url(#SVGID_32_);enable-background:new    ;}
	.st60{opacity:0.1;fill:url(#SVGID_33_);enable-background:new    ;}
	.st61{fill:url(#SVGID_34_);}
	.st62{fill:url(#SVGID_35_);}
	.st63{fill:url(#SVGID_36_);}
	.st64{fill:url(#SVGID_37_);}
	.st65{fill:url(#SVGID_38_);}
	.st66{fill:url(#SVGID_39_);}
	.st67{opacity:0.5;}
	.st68{fill:#E8C42A;}
	.st69{opacity:0.46;}
	.st70{fill:url(#XMLID_20_);}
	.st71{fill:url(#XMLID_21_);}
	.st72{fill:url(#XMLID_22_);}
	.st73{fill:url(#XMLID_23_);}
	.st74{fill:url(#XMLID_24_);}
	.st75{fill:url(#XMLID_25_);}
	.st76{fill:url(#XMLID_26_);}
	.st77{fill:url(#XMLID_27_);}
	.st78{fill:#FDD400;}
	.st79{fill:#FFE800;}
	.st80{fill:url(#SVGID_40_);}
	.st81{fill:#FED900;}
	.st82{fill:#FCC600;}
	.st83{fill:url(#SVGID_41_);}
	.st84{fill:url(#SVGID_42_);}
	.st85{fill:url(#SVGID_43_);}
	.st86{fill:url(#SVGID_44_);}
	.st87{fill:url(#SVGID_45_);}
	.st88{fill:url(#SVGID_46_);}
	.st89{fill:url(#SVGID_47_);}
	.st90{fill:url(#SVGID_48_);}
	.st91{fill:#FFF284;}
	.st92{fill:#FFFDEE;}
	.st93{fill:#C7FFA6;}
	.st94{fill:#E0FFCC;}
	.st95{fill:#A6CEFF;}
	.st96{fill:#C0E0FF;}
	.st97{fill:url(#SVGID_49_);}
	.st98{fill:url(#SVGID_50_);}
	.st99{fill:url(#SVGID_51_);}
	.st100{fill:url(#SVGID_52_);}
	.st101{fill:url(#SVGID_53_);}
	.st102{fill:url(#SVGID_54_);}
	.st103{fill:url(#SVGID_55_);}
	.st104{fill:url(#SVGID_56_);}
	.st105{fill:url(#SVGID_57_);}
	.st106{fill:url(#SVGID_58_);}
	.st107{fill:url(#SVGID_59_);}
	.st108{fill:url(#SVGID_60_);}
	.st109{fill:url(#SVGID_61_);}
	.st110{fill:url(#SVGID_62_);}
	.st111{fill:url(#SVGID_63_);}
	.st112{fill:url(#SVGID_64_);}
	.st113{fill:url(#SVGID_65_);}
	.st114{fill:url(#SVGID_66_);}
	.st115{fill:url(#SVGID_67_);}
	.st116{fill:url(#SVGID_68_);}
	.st117{fill:url(#SVGID_69_);}
	.st118{fill:url(#SVGID_70_);}
	.st119{fill:url(#SVGID_71_);}
	.st120{fill:url(#SVGID_72_);}
	.st121{fill:url(#SVGID_73_);}
	.st122{fill:url(#SVGID_74_);}
	.st123{fill:url(#SVGID_75_);}
	.st124{fill:url(#SVGID_76_);}
	.st125{fill:url(#SVGID_77_);}
	.st126{fill:url(#SVGID_78_);}
	.st127{fill:url(#SVGID_79_);}
	.st128{fill:url(#SVGID_80_);}
	.st129{fill:url(#SVGID_81_);}
	.st130{fill:url(#XMLID_28_);}
	.st131{fill:url(#XMLID_29_);}
	.st132{fill:url(#SVGID_82_);}
	.st133{fill:url(#SVGID_83_);}
	.st134{fill:url(#SVGID_84_);}
	.st135{fill:url(#SVGID_85_);}
	.st136{fill:url(#SVGID_86_);}
	.st137{fill:url(#SVGID_87_);}
	.st138{fill:url(#SVGID_88_);}
	.st139{opacity:0.2;}
	.st140{opacity:0.1;}
	.st141{fill:url(#SVGID_89_);}
	.st142{fill:url(#SVGID_90_);}
	.st143{fill:url(#SVGID_91_);}
	.st144{fill:url(#SVGID_92_);}
	.st145{fill:url(#SVGID_93_);}
	.st146{fill:url(#SVGID_94_);}
	.st147{fill:url(#SVGID_95_);}
	.st148{fill:url(#SVGID_96_);}
	.st149{fill:url(#SVGID_97_);}
	.st150{fill:url(#SVGID_98_);}
	.st151{fill:url(#SVGID_99_);}
	.st152{fill:url(#SVGID_100_);}
	.st153{fill:url(#SVGID_101_);}
	.st154{fill:url(#SVGID_102_);}
	.st155{fill:#DFEEF4;}
	.st156{fill:#F45858;}
	.st157{fill:#F2DA30;}
	.st158{fill:#3EA2E5;}
	.st159{fill:url(#SVGID_103_);}
	.st160{fill:url(#SVGID_104_);}
	.st161{fill:url(#SVGID_105_);}
	.st162{fill:#F6E08A;}
	.st163{fill:#FFF7D7;}
	.st164{fill:#FFF0A3;}
	.st165{fill:#C9B866;}
	.st166{fill:#E3D17D;}
	.st167{fill:#B29E47;}
	.st168{fill:url(#SVGID_106_);}
	.st169{fill:#F1F2F2;}
	.st170{fill:url(#SVGID_107_);}
	.st171{fill:url(#SVGID_108_);}
	.st172{fill:url(#SVGID_109_);}
	.st173{fill:url(#SVGID_110_);}
	.st174{fill:url(#SVGID_111_);}
	.st175{fill:url(#SVGID_112_);}
	.st176{fill:url(#SVGID_113_);}
	.st177{fill:url(#SVGID_114_);}
	.st178{fill:url(#SVGID_115_);}
	.st179{fill:url(#SVGID_116_);}
	.st180{fill:url(#SVGID_117_);}
	.st181{fill:url(#SVGID_118_);}
	.st182{fill:url(#SVGID_119_);}
	.st183{fill:url(#SVGID_120_);}
	.st184{fill:url(#SVGID_121_);}
	.st185{fill:url(#SVGID_122_);}
	.st186{fill:url(#SVGID_123_);}
	.st187{fill:url(#SVGID_124_);}
	.st188{fill:url(#SVGID_125_);}
	.st189{fill:url(#SVGID_126_);}
	.st190{fill:url(#SVGID_127_);}
	.st191{fill:url(#SVGID_128_);}
	.st192{fill:url(#SVGID_129_);}
	.st193{fill:url(#SVGID_130_);}
	.st194{fill:url(#SVGID_131_);}
	.st195{fill:url(#SVGID_132_);}
	.st196{fill:url(#SVGID_133_);}
	.st197{fill:url(#SVGID_134_);}
	.st198{fill:url(#SVGID_135_);}
	.st199{fill:url(#SVGID_136_);}
	.st200{fill:url(#SVGID_137_);}
	.st201{fill:url(#SVGID_138_);}
	.st202{fill:url(#SVGID_139_);}
	.st203{fill:url(#SVGID_140_);}
	.st204{fill:url(#SVGID_141_);}
	.st205{fill:url(#SVGID_142_);}
	.st206{fill:url(#SVGID_143_);}
	.st207{fill:url(#SVGID_144_);}
	.st208{fill:url(#SVGID_145_);}
	.st209{fill:url(#SVGID_146_);}
	.st210{fill:url(#SVGID_147_);}
	.st211{fill:url(#SVGID_148_);}
	.st212{fill:url(#SVGID_149_);}
	.st213{fill:url(#SVGID_150_);}
	.st214{fill:url(#SVGID_151_);}
	.st215{fill:url(#SVGID_152_);}
	.st216{fill:url(#SVGID_153_);}
	.st217{fill:url(#SVGID_154_);}
	.st218{fill:url(#SVGID_155_);}
</style>
<g>
	<g class="st69">
		<path class="st78" d="M1810.5,512.3c0,0,1,7.5,1.9,7.7l0,0c0.2-1.6,0.9-6.2,1.4-10.8C1813.7,509.4,1810.5,512.3,1810.5,512.3
			L1810.5,512.3z"/>
		<path class="st79" d="M1812.4,520.1c0.9,0.2,3.8-4.8,3.8-4.8l-2.4-6C1813.4,513.9,1812.7,518.5,1812.4,520.1L1812.4,520.1z"/>
		<path class="st78" d="M1816.2,515.3c0,0,6.1,1.9,6.7,0.7l-9.1-6.7L1816.2,515.3L1816.2,515.3z"/>
		<path class="st79" d="M1805.2,508.4c0,0.8,5.3,3.9,5.3,3.9s3.2-2.9,3.3-3.1l-8.6-1L1805.2,508.4L1805.2,508.4z"/>
		<path class="st78" d="M1811,505.9c-2,0.6-5.5,1.6-5.7,2.4l8.6,1L1811,505.9L1811,505.9z"/>
		<path class="st78" d="M1813.8,509.3c0.1-0.2,4-5.2,4-5.2c-0.8-1.2-3.5-5.1-4.2-4.6C1814,502.3,1814,507.5,1813.8,509.3
			L1813.8,509.3z"/>
		<path class="st79" d="M1811,505.9l2.9,3.4c0.1-1.8,0.2-7-0.1-9.8C1812.5,500.2,1811.2,505.2,1811,505.9L1811,505.9z"/>
		<path class="st79" d="M1823.7,504.3L1823.7,504.3c-0.2-0.4-5.3-0.3-5.8-0.2c0,0-3.9,5-4,5.2L1823.7,504.3L1823.7,504.3z"/>
		<path class="st79" d="M1822.9,516c0.6-1.2-2.8-5.7-2.8-5.7l-6.2-1L1822.9,516L1822.9,516z"/>
		<path class="st78" d="M1820.1,510.3c0,0,3.9-5.2,3.6-6l-9.8,5L1820.1,510.3L1820.1,510.3z"/>
		
			<radialGradient id="SVGID_1_" cx="-3340.9158" cy="-712.177" r="0.6208" gradientTransform="matrix(100.2262 -368.1305 -368.1305 -100.2262 74733.375 -1300690.125)" gradientUnits="userSpaceOnUse">
			<stop  offset="0" style="stop-color:#013556"/>
			<stop  offset="0.5" style="stop-color:#013556"/>
			<stop  offset="1" style="stop-color:#797670"/>
		</radialGradient>
		<path style="fill:url(#SVGID_1_);" d="M1816.2,515.3c0.1,0.1,0.6,0.2,1.1,0.3C1816.7,515.4,1816.2,515.3,1816.2,515.3
			L1816.2,515.3L1816.2,515.3z"/>
		<path class="st81" d="M1815.1,512.5c0.5,1.3,1,2.5,1.1,2.8l0,0l0,0l0,0L1815.1,512.5L1815.1,512.5z"/>
		<path class="st82" d="M1814.1,509.4c0,0.3,0.5,1.7,1,3l1.1,2.8l0,0c0,0,0.4,0.1,1.1,0.3c0.9,0.2,2,0.4,2.3,0.5
			C1819.6,516.1,1814.5,511.8,1814.1,509.4L1814.1,509.4L1814.1,509.4z"/>
		<path class="st81" d="M1814.1,509.4C1814.1,509.4,1814.1,509.4,1814.1,509.4L1814.1,509.4C1814.1,509.4,1814.1,509.4,1814.1,509.4
			L1814.1,509.4z"/>
		<path class="st81" d="M1814.1,509.4c0,0,3.3,0.5,5,0.7l-4.6-0.8C1814.4,509.4,1814.2,509.4,1814.1,509.4L1814.1,509.4z"/>
		<path class="st82" d="M1814.5,509.4l4.6,0.8c0.5,0.1,0.9,0.1,1,0.2c0.1-0.1,1.9-2.6,2-2.9C1821.9,507.2,1819.5,508.8,1814.5,509.4
			L1814.5,509.4z"/>
		
			<radialGradient id="SVGID_2_" cx="-3342.0615" cy="-712.2856" r="1.294" gradientTransform="matrix(100.2262 -368.1305 -368.1305 -100.2262 74733.375 -1300690.125)" gradientUnits="userSpaceOnUse">
			<stop  offset="0" style="stop-color:#013556"/>
			<stop  offset="0.5" style="stop-color:#013556"/>
			<stop  offset="1" style="stop-color:#797670"/>
		</radialGradient>
		<path style="fill:url(#SVGID_2_);" d="M1817.2,503.1c0.3,0.4,0.5,0.7,0.7,1C1817.8,503.9,1817.5,503.6,1817.2,503.1L1817.2,503.1z
			"/>
		<path class="st82" d="M1815.6,501c0,0.1,0.3,2.1-0.5,5.3c-0.2,0.8-0.5,1.7-1,2.7c0.9-1.1,3.8-4.9,3.8-4.9l0,0l0,0
			c-0.2-0.2-0.4-0.6-0.7-1C1816.6,502.3,1815.7,501.2,1815.6,501L1815.6,501z"/>
		<path class="st81" d="M1814,509.2c0,0,3.6-4.7,3.9-5.1c0,0-2.9,3.8-3.8,4.9C1814.1,509,1814,509.1,1814,509.2L1814,509.2z"/>
		
			<radialGradient id="SVGID_3_" cx="-3341.9685" cy="-712.2703" r="1.2154" gradientTransform="matrix(100.2262 -368.1305 -368.1305 -100.2262 74733.375 -1300690.125)" gradientUnits="userSpaceOnUse">
			<stop  offset="0" style="stop-color:#013556"/>
			<stop  offset="0.5" style="stop-color:#013556"/>
			<stop  offset="1" style="stop-color:#797670"/>
		</radialGradient>
		<path style="fill:url(#SVGID_3_);" d="M1808,506.7C1808,506.7,1808,506.7,1808,506.7c1.1-0.3,2.1-0.6,3-0.9
			C1810.9,505.9,1808.6,506.5,1808,506.7L1808,506.7z"/>
		<path class="st82" d="M1808.1,506.7c0.6,0.3,4.7,1.5,5.8,2.5l-2.9-3.4l0,0l0,0C1810.1,506.1,1809.1,506.4,1808.1,506.7
			L1808.1,506.7z"/>
		<path class="st82" d="M1810.5,512.3L1810.5,512.3c0.1,0.5,0.6,3.9,0.7,4.1c0-0.7,0.1-1.5,0.3-2.3c0.7-2.5,2.3-4.8,2.3-4.8
			c0,0-0.1,0.1-0.2,0.1C1812.8,510.3,1810.5,512.3,1810.5,512.3L1810.5,512.3z"/>
		<path class="st81" d="M1810.5,512.3L1810.5,512.3c0,0,2.3-2.1,3.1-2.8C1813,510,1811,511.9,1810.5,512.3L1810.5,512.3z"/>
		<path class="st6" d="M1812,506.4l-0.5-0.5c0-0.2,0.8-3.1,0.9-3.4C1812.7,501.6,1812,506.4,1812,506.4z"/>
		<path class="st6" d="M1817.8,505.1c0,0,0.2-0.5,0.3-0.6c0-0.2,1.6-0.2,3.6-0.3C1822.1,504.2,1817.8,505.1,1817.8,505.1z"/>
		<path class="st6" d="M1819.2,510.6c0,0,0.5-0.2,0.7-0.1c0.2,0.1,1.1,1.5,2,3C1822.1,513.8,1819.2,510.6,1819.2,510.6z"/>
		<path class="st6" d="M1815.2,514.9c0,0,0.4,0.4,0.3,0.6c-0.1,0.2-1.8,2.7-2,3C1813.4,518.9,1815.2,514.9,1815.2,514.9z"/>
		<path class="st6" d="M1810.5,511.1l-0.6,0.3c-0.3-0.2-2-1.1-3-1.9C1806.6,509.3,1810.5,511.1,1810.5,511.1z"/>
	</g>
	<g class="st69">
		<path class="st78" d="M196.8,249.9c0,0,0.1,0.7,0.2,0.7h0c0-0.1,0.1-0.5,0.1-1C197.1,249.6,196.8,249.9,196.8,249.9L196.8,249.9z"
			/>
		<path class="st79" d="M197,250.6c0.1,0,0.3-0.4,0.3-0.4l-0.2-0.5C197.1,250,197,250.4,197,250.6L197,250.6z"/>
		<path class="st78" d="M197.3,250.1c0,0,0.5,0.2,0.6,0.1l-0.8-0.6L197.3,250.1L197.3,250.1z"/>
		<path class="st79" d="M196.4,249.5c0,0.1,0.5,0.3,0.5,0.3s0.3-0.3,0.3-0.3L196.4,249.5L196.4,249.5L196.4,249.5z"/>
		<path class="st78" d="M196.9,249.3c-0.2,0-0.5,0.1-0.5,0.2l0.8,0.1L196.9,249.3L196.9,249.3z"/>
		<path class="st78" d="M197.1,249.6c0,0,0.4-0.5,0.4-0.5c-0.1-0.1-0.3-0.4-0.4-0.4C197.1,249,197.1,249.5,197.1,249.6L197.1,249.6z
			"/>
		<path class="st79" d="M196.9,249.3l0.3,0.3c0-0.2,0-0.6,0-0.9C197,248.8,196.9,249.3,196.9,249.3L196.9,249.3z"/>
		<path class="st79" d="M198,249.2L198,249.2c0,0-0.5,0-0.5,0c0,0-0.3,0.4-0.4,0.5L198,249.2L198,249.2z"/>
		<path class="st79" d="M197.9,250.2c0.1-0.1-0.2-0.5-0.2-0.5l-0.5-0.1L197.9,250.2L197.9,250.2z"/>
		<path class="st78" d="M197.7,249.7c0,0,0.3-0.5,0.3-0.5l-0.9,0.4L197.7,249.7L197.7,249.7z"/>
		
			<radialGradient id="SVGID_4_" cx="-3341.3599" cy="-707.2966" r="5.521142e-02" gradientTransform="matrix(100.2262 -368.1305 -368.1305 -100.2262 74733.375 -1300690.125)" gradientUnits="userSpaceOnUse">
			<stop  offset="0" style="stop-color:#013556"/>
			<stop  offset="0.5" style="stop-color:#013556"/>
			<stop  offset="1" style="stop-color:#797670"/>
		</radialGradient>
		<path style="fill:url(#SVGID_4_);" d="M197.3,250.1C197.3,250.2,197.4,250.2,197.3,250.1C197.4,250.2,197.3,250.1,197.3,250.1
			L197.3,250.1L197.3,250.1z"/>
		<path class="st81" d="M197.2,249.9c0,0.1,0.1,0.2,0.1,0.2l0,0l0,0l0,0L197.2,249.9L197.2,249.9z"/>
		<path class="st82" d="M197.1,249.6c0,0,0,0.1,0.1,0.3l0.1,0.2l0,0c0,0,0,0,0.1,0c0.1,0,0.2,0,0.2,0
			C197.6,250.2,197.2,249.8,197.1,249.6L197.1,249.6L197.1,249.6z"/>
		<path class="st81" d="M197.1,249.6c0,0,0.3,0,0.4,0.1L197.1,249.6C197.2,249.6,197.2,249.6,197.1,249.6L197.1,249.6z"/>
		<path class="st82" d="M197.2,249.6l0.4,0.1c0,0,0.1,0,0.1,0c0,0,0.2-0.2,0.2-0.3C197.8,249.4,197.6,249.6,197.2,249.6L197.2,249.6
			z"/>
		
			<radialGradient id="SVGID_6_" cx="-3341.4622" cy="-707.3054" r="0.1149" gradientTransform="matrix(100.2262 -368.1305 -368.1305 -100.2262 74733.375 -1300690.125)" gradientUnits="userSpaceOnUse">
			<stop  offset="0" style="stop-color:#013556"/>
			<stop  offset="0.5" style="stop-color:#013556"/>
			<stop  offset="1" style="stop-color:#797670"/>
		</radialGradient>
		<path style="fill:url(#SVGID_6_);" d="M197.4,249.1C197.4,249.1,197.5,249.1,197.4,249.1C197.5,249.1,197.4,249.1,197.4,249.1
			L197.4,249.1z"/>
		<path class="st82" d="M197.3,248.9c0,0,0,0.2,0,0.5c0,0.1,0,0.2-0.1,0.2c0.1-0.1,0.3-0.4,0.3-0.4l0,0l0,0c0,0,0-0.1-0.1-0.1
			C197.4,249,197.3,248.9,197.3,248.9L197.3,248.9z"/>
		<path class="st81" d="M197.1,249.6c0,0,0.3-0.4,0.3-0.4C197.5,249.2,197.2,249.5,197.1,249.6C197.1,249.6,197.1,249.6,197.1,249.6
			L197.1,249.6z"/>
		
			<radialGradient id="SVGID_8_" cx="-3341.4531" cy="-707.304" r="0.1072" gradientTransform="matrix(100.2262 -368.1305 -368.1305 -100.2262 74733.375 -1300690.125)" gradientUnits="userSpaceOnUse">
			<stop  offset="0" style="stop-color:#013556"/>
			<stop  offset="0.5" style="stop-color:#013556"/>
			<stop  offset="1" style="stop-color:#797670"/>
		</radialGradient>
		<path style="fill:url(#SVGID_8_);" d="M196.6,249.4C196.6,249.4,196.6,249.4,196.6,249.4c0.1,0,0.2-0.1,0.3-0.1
			C196.9,249.3,196.7,249.4,196.6,249.4L196.6,249.4z"/>
		<path class="st82" d="M196.6,249.4c0.1,0,0.4,0.1,0.5,0.2l-0.3-0.3l0,0l0,0C196.8,249.3,196.7,249.4,196.6,249.4L196.6,249.4z"/>
		<path class="st82" d="M196.8,249.9L196.8,249.9c0,0,0.1,0.3,0.1,0.4c0-0.1,0-0.1,0-0.2c0.1-0.2,0.2-0.4,0.2-0.4c0,0,0,0,0,0
			C197,249.7,196.8,249.9,196.8,249.9L196.8,249.9z"/>
		<path class="st81" d="M196.8,249.9L196.8,249.9c0,0,0.2-0.2,0.3-0.2C197,249.7,196.9,249.8,196.8,249.9L196.8,249.9z"/>
		<path class="st6" d="M197,249.4L197,249.4c0-0.1,0-0.3,0-0.3C197,248.9,197,249.4,197,249.4z"/>
		<path class="st6" d="M197.5,249.3C197.5,249.3,197.5,249.2,197.5,249.3c0-0.1,0.2-0.1,0.3-0.1
			C197.8,249.2,197.5,249.3,197.5,249.3z"/>
		<path class="st6" d="M197.6,249.7C197.6,249.7,197.6,249.7,197.6,249.7c0.1,0,0.2,0.1,0.2,0.3C197.8,250,197.6,249.7,197.6,249.7z
			"/>
		<path class="st6" d="M197.2,250.1C197.2,250.1,197.3,250.2,197.2,250.1c0,0.1-0.1,0.3-0.1,0.3
			C197.1,250.5,197.2,250.1,197.2,250.1z"/>
		<path class="st6" d="M196.8,249.8L196.8,249.8c-0.1,0-0.2-0.1-0.3-0.1C196.5,249.6,196.8,249.8,196.8,249.8z"/>
	</g>
	<g class="st69">
		<path class="st78" d="M577.5,575.3c0,0,1.5,11,2.8,11.4l0,0c0.4-2.3,1.4-9.1,2.1-15.9C582.2,571.1,577.5,575.3,577.5,575.3
			L577.5,575.3z"/>
		<path class="st79" d="M580.3,586.7c1.3,0.3,5.6-7.1,5.6-7.1l-3.5-8.8C581.7,577.6,580.6,584.5,580.3,586.7L580.3,586.7z"/>
		<path class="st78" d="M585.9,579.7c0,0,9,2.8,9.9,1.1l-13.4-9.9L585.9,579.7L585.9,579.7z"/>
		<path class="st79" d="M569.6,569.6c0,1.2,7.8,5.8,7.8,5.8s4.7-4.3,4.9-4.5l-12.7-1.4L569.6,569.6L569.6,569.6z"/>
		<path class="st78" d="M578.1,565.8c-2.9,0.8-8.1,2.3-8.4,3.6l12.7,1.4L578.1,565.8L578.1,565.8z"/>
		<path class="st78" d="M582.4,570.8c0.2-0.3,5.9-7.6,5.9-7.6c-1.2-1.7-5.1-7.5-6.1-6.8C582.7,560.5,582.5,568.1,582.4,570.8
			L582.4,570.8z"/>
		<path class="st79" d="M578.1,565.8l4.3,5c0.2-2.7,0.3-10.3-0.2-14.4C580.3,557.5,578.5,564.9,578.1,565.8L578.1,565.8z"/>
		<path class="st79" d="M596.9,563.5L596.9,563.5c-0.2-0.6-7.8-0.4-8.6-0.3c0,0-5.7,7.4-5.9,7.6L596.9,563.5L596.9,563.5z"/>
		<path class="st79" d="M595.7,580.7c0.9-1.8-4.2-8.4-4.2-8.4l-9.2-1.5L595.7,580.7L595.7,580.7z"/>
		<path class="st78" d="M591.5,572.3c0,0,5.8-7.7,5.3-8.9l-14.5,7.4L591.5,572.3L591.5,572.3z"/>
		
			<radialGradient id="SVGID_10_" cx="-3341.9258" cy="-709.4238" r="0.915" gradientTransform="matrix(100.2262 -368.1305 -368.1305 -100.2262 74733.375 -1300690.125)" gradientUnits="userSpaceOnUse">
			<stop  offset="0" style="stop-color:#013556"/>
			<stop  offset="0.5" style="stop-color:#013556"/>
			<stop  offset="1" style="stop-color:#797670"/>
		</radialGradient>
		<path style="fill:url(#SVGID_10_);" d="M585.9,579.7c0.2,0.1,0.9,0.3,1.6,0.5C586.5,579.9,585.9,579.7,585.9,579.7L585.9,579.7
			L585.9,579.7z"/>
		<path class="st81" d="M584.2,575.5c0.7,1.9,1.4,3.7,1.6,4.1l0,0l0,0l0,0L584.2,575.5L584.2,575.5z"/>
		<path class="st82" d="M582.7,571.1c0,0.4,0.8,2.4,1.5,4.4l1.6,4.1l0,0c0,0,0.7,0.2,1.6,0.5c1.3,0.3,3,0.6,3.4,0.7
			C590.9,580.8,583.3,574.5,582.7,571.1L582.7,571.1L582.7,571.1z"/>
		<path class="st81" d="M582.7,571C582.7,571.1,582.7,571.1,582.7,571L582.7,571C582.7,571.1,582.7,571.1,582.7,571L582.7,571z"/>
		<path class="st81" d="M582.7,571c0,0,4.8,0.7,7.4,1.1l-6.8-1.1C583.1,571,582.9,571,582.7,571L582.7,571z"/>
		<path class="st82" d="M583.3,571l6.8,1.1c0.7,0.1,1.3,0.2,1.4,0.2c0.1-0.2,2.8-3.9,3-4.3C594.2,567.8,590.7,570.2,583.3,571
			L583.3,571z"/>
		
			<radialGradient id="SVGID_13_" cx="-3343.6113" cy="-709.5834" r="1.9045" gradientTransform="matrix(100.2262 -368.1305 -368.1305 -100.2262 74733.375 -1300690.125)" gradientUnits="userSpaceOnUse">
			<stop  offset="0" style="stop-color:#013556"/>
			<stop  offset="0.5" style="stop-color:#013556"/>
			<stop  offset="1" style="stop-color:#797670"/>
		</radialGradient>
		<path style="fill:url(#SVGID_13_);" d="M587.3,561.8c0.4,0.6,0.7,1.1,1,1.4C588.1,562.9,587.8,562.4,587.3,561.8L587.3,561.8z"/>
		<path class="st82" d="M584.9,558.6c0,0.2,0.5,3.2-0.8,7.8c-0.3,1.2-0.8,2.6-1.4,4c1.3-1.7,5.6-7.2,5.6-7.2l0,0l0,0
			c-0.2-0.3-0.6-0.8-1-1.4C586.4,560.5,585.1,558.9,584.9,558.6L584.9,558.6z"/>
		<path class="st81" d="M582.6,570.6c0,0,5.3-6.9,5.7-7.5c0,0-4.3,5.5-5.6,7.2C582.7,570.5,582.6,570.6,582.6,570.6L582.6,570.6z"/>
		
			<radialGradient id="SVGID_14_" cx="-3343.4766" cy="-709.5607" r="1.7904" gradientTransform="matrix(100.2262 -368.1305 -368.1305 -100.2262 74733.375 -1300690.125)" gradientUnits="userSpaceOnUse">
			<stop  offset="0" style="stop-color:#013556"/>
			<stop  offset="0.5" style="stop-color:#013556"/>
			<stop  offset="1" style="stop-color:#797670"/>
		</radialGradient>
		<path style="fill:url(#SVGID_14_);" d="M573.8,567.1C573.8,567.1,573.8,567.1,573.8,567.1c1.6-0.5,3.1-0.9,4.4-1.3
			C578,565.8,574.6,566.8,573.8,567.1L573.8,567.1z"/>
		<path class="st82" d="M573.8,567.1c0.9,0.4,6.9,2.2,8.5,3.7l-4.3-5l0,0l0,0C576.9,566.1,575.3,566.6,573.8,567.1L573.8,567.1z"/>
		<path class="st82" d="M577.5,575.3L577.5,575.3c0.2,0.7,0.9,5.7,1,6c-0.1-1.1,0.1-2.2,0.4-3.3c1-3.6,3.3-7,3.3-7
			c0,0-0.1,0.1-0.2,0.2C580.8,572.3,577.5,575.3,577.5,575.3L577.5,575.3z"/>
		<path class="st81" d="M577.5,575.3L577.5,575.3c0,0,3.4-3,4.5-4.1C581.1,571.9,578.2,574.6,577.5,575.3L577.5,575.3z"/>
		<path class="st6" d="M579.6,566.6l-0.7-0.7c0-0.3,1.2-4.5,1.4-5.1C580.7,559.5,579.6,566.6,579.6,566.6z"/>
		<path class="st6" d="M588.3,564.7c0,0,0.3-0.7,0.4-0.9c0.1-0.3,2.4-0.3,5.2-0.5C594.5,563.3,588.3,564.7,588.3,564.7z"/>
		<path class="st6" d="M590.3,572.7c0,0,0.7-0.3,1-0.1c0.3,0.2,1.5,2.1,2.9,4.4C594.5,577.5,590.3,572.7,590.3,572.7z"/>
		<path class="st6" d="M584.4,579.2c0,0,0.6,0.6,0.5,0.9c-0.1,0.3-2.7,4-2.9,4.4C581.7,585,584.4,579.2,584.4,579.2z"/>
		<path class="st6" d="M577.4,573.6l-0.9,0.5c-0.5-0.3-2.9-1.7-4.4-2.8C571.6,570.9,577.4,573.6,577.4,573.6z"/>
	</g>
	<g class="st69">
		<path class="st91" d="M167.9,314.2c0-0.1,0-0.2,0.1-0.2c0.1,0,0.2,0,0.2,0.1c0,0.1,0,0.2-0.1,0.2
			C168,314.3,167.9,314.3,167.9,314.2z"/>
		<path class="st92" d="M168,314.1C168,314.1,168,314.1,168,314.1C168,314,168,314.1,168,314.1C168,314.1,168,314.1,168,314.1
			C168,314.1,168,314.1,168,314.1z"/>
	</g>
	<g class="st69">
		<path class="st91" d="M178.4,340c-0.4-1.1,0.1-2.4,1.3-2.8c1.1-0.4,2.4,0.1,2.8,1.3c0.4,1.1-0.1,2.4-1.3,2.8
			C180.1,341.7,178.8,341.1,178.4,340z"/>
		<path class="st92" d="M180.1,338.1c-0.1-0.2,0-0.5,0.3-0.6c0.2-0.1,0.5,0,0.6,0.3c0.1,0.2,0,0.5-0.3,0.6
			C180.5,338.5,180.2,338.4,180.1,338.1z"/>
	</g>
	<g class="st69">
		<path class="st91" d="M144.6,286c-0.4-1.2,0.1-2.5,1.3-2.9c1.2-0.4,2.5,0.1,2.9,1.3c0.4,1.2-0.1,2.5-1.3,2.9
			C146.3,287.8,145,287.2,144.6,286z"/>
		<path class="st92" d="M146.4,284.1c-0.1-0.3,0-0.5,0.3-0.6c0.3-0.1,0.5,0,0.6,0.3c0.1,0.3,0,0.5-0.3,0.6S146.5,284.3,146.4,284.1z
			"/>
	</g>
	<g class="st69">
		<path class="st91" d="M161,252.3c-0.5-1.2,0.1-2.7,1.4-3.1c1.2-0.5,2.7,0.1,3.1,1.4c0.5,1.2-0.1,2.7-1.4,3.1
			C162.8,254.2,161.4,253.5,161,252.3z"/>
		<path class="st92" d="M162.9,250.2c-0.1-0.3,0-0.6,0.3-0.7c0.3-0.1,0.6,0,0.7,0.3c0.1,0.3,0,0.6-0.3,0.7
			C163.3,250.6,163,250.5,162.9,250.2z"/>
	</g>
	<g class="st69">
		<path class="st93" d="M152.1,225.1c-0.1,0-0.1-0.1-0.1-0.2c0-0.1,0.1-0.1,0.2-0.1c0.1,0,0.1,0.1,0.1,0.2S152.2,225.1,152.1,225.1z
			"/>
		<path class="st94" d="M152.1,224.9C152.1,224.9,152.1,224.9,152.1,224.9C152.1,224.8,152.1,224.8,152.1,224.9
			C152.1,224.8,152.2,224.9,152.1,224.9C152.1,224.9,152.1,224.9,152.1,224.9z"/>
	</g>
	<g class="st69">
		<path class="st93" d="M162.6,177.8c-0.1,0-0.1-0.2-0.1-0.3c0.1-0.1,0.2-0.1,0.3-0.1c0.1,0.1,0.1,0.2,0.1,0.3
			C162.8,177.9,162.7,177.9,162.6,177.8z"/>
		<path class="st94" d="M162.6,177.6C162.6,177.6,162.6,177.6,162.6,177.6C162.6,177.5,162.6,177.5,162.6,177.6
			C162.7,177.5,162.7,177.6,162.6,177.6C162.6,177.6,162.6,177.6,162.6,177.6z"/>
	</g>
	<g class="st69">
		<path class="st95" d="M180.9,225c-0.2,0.5-0.8,0.7-1.3,0.5c-0.5-0.2-0.7-0.8-0.5-1.3c0.2-0.5,0.8-0.7,1.3-0.5
			C180.9,223.9,181.1,224.5,180.9,225z"/>
		<path class="st96" d="M179.7,225c0,0.1-0.2,0.1-0.3,0.1c-0.1,0-0.1-0.2-0.1-0.3c0-0.1,0.2-0.1,0.3-0.1
			C179.7,224.8,179.8,224.9,179.7,225z"/>
	</g>
	<g class="st69">
		<path class="st78" d="M78,328.2c0,0,0.6,4.2,1.1,4.3l0,0c0.1-0.9,0.5-3.5,0.8-6C79.8,326.6,78,328.2,78,328.2L78,328.2z"/>
		<path class="st79" d="M79.1,332.5c0.5,0.1,2.1-2.7,2.1-2.7l-1.3-3.4C79.6,329.1,79.2,331.7,79.1,332.5L79.1,332.5z"/>
		<path class="st78" d="M81.2,329.9c0,0,3.4,1.1,3.7,0.4l-5.1-3.8L81.2,329.9L81.2,329.9z"/>
		<path class="st79" d="M75,326c0,0.4,3,2.2,3,2.2s1.8-1.6,1.9-1.7L75,326L75,326L75,326z"/>
		<path class="st78" d="M78.2,324.6c-1.1,0.3-3.1,0.9-3.2,1.4l4.8,0.5L78.2,324.6L78.2,324.6z"/>
		<path class="st78" d="M79.9,326.5c0.1-0.1,2.2-2.9,2.2-2.9c-0.4-0.6-1.9-2.8-2.3-2.6C80,322.6,79.9,325.5,79.9,326.5L79.9,326.5z"
			/>
		<path class="st79" d="M78.2,324.6l1.6,1.9c0.1-1,0.1-3.9-0.1-5.5C79.1,321.4,78.4,324.2,78.2,324.6L78.2,324.6z"/>
		<path class="st79" d="M85.4,323.7L85.4,323.7c-0.1-0.2-3-0.1-3.3-0.1c0,0-2.2,2.8-2.2,2.9L85.4,323.7L85.4,323.7z"/>
		<path class="st79" d="M84.9,330.3c0.3-0.7-1.6-3.2-1.6-3.2l-3.5-0.6L84.9,330.3L84.9,330.3z"/>
		<path class="st78" d="M83.4,327.1c0,0,2.2-2.9,2-3.4l-5.5,2.8L83.4,327.1L83.4,327.1z"/>
		
			<radialGradient id="SVGID_15_" cx="-3341.6416" cy="-707.3696" r="0.3473" gradientTransform="matrix(100.2262 -368.1305 -368.1305 -100.2262 74733.375 -1300690.125)" gradientUnits="userSpaceOnUse">
			<stop  offset="0" style="stop-color:#013556"/>
			<stop  offset="0.5" style="stop-color:#013556"/>
			<stop  offset="1" style="stop-color:#797670"/>
		</radialGradient>
		<path style="fill:url(#SVGID_15_);" d="M81.2,329.9c0.1,0,0.3,0.1,0.6,0.2C81.4,329.9,81.2,329.9,81.2,329.9L81.2,329.9
			L81.2,329.9z"/>
		<path class="st81" d="M80.6,328.3c0.3,0.7,0.5,1.4,0.6,1.6l0,0l0,0l0,0L80.6,328.3L80.6,328.3z"/>
		<path class="st82" d="M80,326.6c0,0.2,0.3,0.9,0.6,1.7l0.6,1.6l0,0c0,0,0.2,0.1,0.6,0.2c0.5,0.1,1.1,0.2,1.3,0.3
			C83.1,330.3,80.2,327.9,80,326.6L80,326.6L80,326.6z"/>
		<path class="st81" d="M80,326.6C80,326.6,80,326.6,80,326.6L80,326.6C80,326.6,80,326.6,80,326.6L80,326.6z"/>
		<path class="st81" d="M80,326.6c0,0,1.8,0.3,2.8,0.4l-2.6-0.4C80.1,326.6,80.1,326.6,80,326.6L80,326.6z"/>
		<path class="st82" d="M80.2,326.6l2.6,0.4c0.3,0,0.5,0.1,0.5,0.1c0-0.1,1.1-1.5,1.1-1.6C84.4,325.3,83,326.2,80.2,326.6
			L80.2,326.6z"/>
		
			<radialGradient id="SVGID_16_" cx="-3342.2825" cy="-707.4304" r="0.724" gradientTransform="matrix(100.2262 -368.1305 -368.1305 -100.2262 74733.375 -1300690.125)" gradientUnits="userSpaceOnUse">
			<stop  offset="0" style="stop-color:#013556"/>
			<stop  offset="0.5" style="stop-color:#013556"/>
			<stop  offset="1" style="stop-color:#797670"/>
		</radialGradient>
		<path class="st41" d="M81.7,323.1c0.2,0.2,0.3,0.4,0.4,0.5C82.1,323.5,81.9,323.3,81.7,323.1L81.7,323.1z"/>
		<path class="st82" d="M80.8,321.9c0,0.1,0.2,1.2-0.3,2.9c-0.1,0.5-0.3,1-0.5,1.5c0.5-0.6,2.1-2.7,2.1-2.7l0,0l0,0
			c-0.1-0.1-0.2-0.3-0.4-0.5C81.4,322.6,80.9,322,80.8,321.9L80.8,321.9z"/>
		<path class="st81" d="M80,326.4c0,0,2-2.6,2.2-2.8c0,0-1.6,2.1-2.1,2.7C80,326.4,80,326.4,80,326.4L80,326.4z"/>
		
			<radialGradient id="SVGID_17_" cx="-3342.2305" cy="-707.4218" r="0.68" gradientTransform="matrix(100.2262 -368.1305 -368.1305 -100.2262 74733.375 -1300690.125)" gradientUnits="userSpaceOnUse">
			<stop  offset="0" style="stop-color:#013556"/>
			<stop  offset="0.5" style="stop-color:#013556"/>
			<stop  offset="1" style="stop-color:#797670"/>
		</radialGradient>
		<path class="st42" d="M76.6,325.1C76.6,325.1,76.6,325.1,76.6,325.1c0.6-0.2,1.2-0.4,1.7-0.5C78.2,324.6,76.9,325,76.6,325.1
			L76.6,325.1z"/>
		<path class="st82" d="M76.6,325.1c0.3,0.1,2.6,0.9,3.2,1.4l-1.6-1.9l0,0l0,0C77.8,324.7,77.2,324.9,76.6,325.1L76.6,325.1z"/>
		<path class="st82" d="M78,328.2L78,328.2c0.1,0.3,0.3,2.2,0.4,2.3c0-0.4,0-0.8,0.2-1.3c0.4-1.4,1.3-2.7,1.3-2.7c0,0,0,0-0.1,0.1
			C79.3,327.1,78,328.2,78,328.2L78,328.2z"/>
		<path class="st81" d="M78,328.2L78,328.2c0,0,1.3-1.2,1.7-1.6C79.4,326.9,78.3,327.9,78,328.2L78,328.2z"/>
		<path class="st6" d="M78.8,324.9l-0.3-0.3c0-0.1,0.5-1.7,0.5-1.9C79.2,322.2,78.8,324.9,78.8,324.9z"/>
		<path class="st6" d="M82.1,324.2c0,0,0.1-0.3,0.1-0.3c0-0.1,0.9-0.1,2-0.2C84.5,323.6,82.1,324.2,82.1,324.2z"/>
		<path class="st6" d="M82.9,327.2c0,0,0.3-0.1,0.4,0c0.1,0.1,0.6,0.8,1.1,1.7C84.5,329,82.9,327.2,82.9,327.2z"/>
		<path class="st6" d="M80.6,329.7c0,0,0.2,0.2,0.2,0.3c0,0.1-1,1.5-1.1,1.7C79.6,331.9,80.6,329.7,80.6,329.7z"/>
		<path class="st6" d="M78,327.5l-0.3,0.2c-0.2-0.1-1.1-0.6-1.7-1.1C75.8,326.5,78,327.5,78,327.5z"/>
	</g>
	<g class="st69">
		<path class="st78" d="M639.6,268.3c0,0-0.7,0.1-0.7,0.2v0c0.1,0,0.6,0.1,1,0.1C639.9,268.6,639.6,268.3,639.6,268.3L639.6,268.3z"
			/>
		<path class="st79" d="M638.9,268.5c0,0.1,0.4,0.4,0.4,0.4l0.6-0.2C639.5,268.6,639,268.5,638.9,268.5L638.9,268.5z"/>
		<path class="st78" d="M639.3,268.9c0,0-0.2,0.6-0.1,0.6l0.6-0.8L639.3,268.9L639.3,268.9z"/>
		<path class="st79" d="M640,267.9c-0.1,0-0.4,0.5-0.4,0.5s0.3,0.3,0.3,0.3L640,267.9L640,267.9L640,267.9z"/>
		<path class="st78" d="M640.2,268.4c-0.1-0.2-0.1-0.5-0.2-0.5l-0.1,0.8L640.2,268.4L640.2,268.4z"/>
		<path class="st78" d="M639.9,268.7c0,0,0.5,0.4,0.5,0.4c0.1-0.1,0.5-0.3,0.4-0.4C640.5,268.7,640.1,268.7,639.9,268.7L639.9,268.7
			z"/>
		<path class="st79" d="M640.2,268.4l-0.3,0.3c0.2,0,0.6,0,0.9,0C640.7,268.5,640.3,268.4,640.2,268.4L640.2,268.4z"/>
		<path class="st79" d="M640.3,269.6L640.3,269.6c0,0,0-0.5,0-0.5c0,0-0.5-0.4-0.5-0.4L640.3,269.6L640.3,269.6z"/>
		<path class="st79" d="M639.3,269.5c0.1,0.1,0.5-0.3,0.5-0.3l0.1-0.6L639.3,269.5L639.3,269.5z"/>
		<path class="st78" d="M639.8,269.2c0,0,0.5,0.4,0.6,0.3l-0.5-0.9L639.8,269.2L639.8,269.2z"/>
		
			<radialGradient id="SVGID_18_" cx="-3332.6411" cy="-698.5542" r="5.521142e-02" gradientTransform="matrix(387.4988 105.4994 105.4994 -387.4988 1365724.625 81194.3047)" gradientUnits="userSpaceOnUse">
			<stop  offset="0" style="stop-color:#013556"/>
			<stop  offset="0.5" style="stop-color:#013556"/>
			<stop  offset="1" style="stop-color:#797670"/>
		</radialGradient>
		<path class="st43" d="M639.3,268.9c0,0,0,0.1,0,0.1C639.3,268.9,639.3,268.9,639.3,268.9L639.3,268.9L639.3,268.9z"/>
		<path class="st81" d="M639.6,268.8c-0.1,0-0.2,0.1-0.3,0.1l0,0l0,0l0,0L639.6,268.8L639.6,268.8z"/>
		<path class="st82" d="M639.9,268.7c0,0-0.2,0-0.3,0.1l-0.3,0.1l0,0c0,0,0,0,0,0.1c0,0.1,0,0.2,0,0.2
			C639.3,269.2,639.7,268.7,639.9,268.7L639.9,268.7L639.9,268.7z"/>
		<path class="st81" d="M639.9,268.7c0,0,0,0.3-0.1,0.5L639.9,268.7C639.9,268.7,639.9,268.7,639.9,268.7L639.9,268.7z"/>
		<path class="st82" d="M639.9,268.7l-0.1,0.4c0,0,0,0.1,0,0.1c0,0,0.2,0.2,0.3,0.2C640.1,269.4,639.9,269.2,639.9,268.7
			L639.9,268.7z"/>
		
			<radialGradient id="SVGID_19_" cx="-3332.7434" cy="-698.563" r="0.1149" gradientTransform="matrix(387.4988 105.4994 105.4994 -387.4988 1365724.625 81194.3047)" gradientUnits="userSpaceOnUse">
			<stop  offset="0" style="stop-color:#013556"/>
			<stop  offset="0.5" style="stop-color:#013556"/>
			<stop  offset="1" style="stop-color:#797670"/>
		</radialGradient>
		<path class="st44" d="M640.5,269C640.4,269,640.4,269,640.5,269C640.4,269,640.4,269,640.5,269L640.5,269z"/>
		<path class="st82" d="M640.7,268.8c0,0-0.2,0-0.5,0c-0.1,0-0.2,0-0.3-0.1c0.1,0.1,0.5,0.3,0.5,0.3l0,0l0,0c0,0,0.1,0,0.1-0.1
			C640.5,268.9,640.6,268.8,640.7,268.8L640.7,268.8z"/>
		<path class="st81" d="M639.9,268.7c0,0,0.4,0.3,0.5,0.4C640.4,269,640,268.8,639.9,268.7C639.9,268.7,639.9,268.7,639.9,268.7
			L639.9,268.7z"/>
		
			<radialGradient id="SVGID_20_" cx="-3332.7341" cy="-698.5616" r="0.1072" gradientTransform="matrix(387.4988 105.4994 105.4994 -387.4988 1365724.625 81194.3047)" gradientUnits="userSpaceOnUse">
			<stop  offset="0" style="stop-color:#013556"/>
			<stop  offset="0.5" style="stop-color:#013556"/>
			<stop  offset="1" style="stop-color:#797670"/>
		</radialGradient>
		<path class="st45" d="M640.1,268.1C640.1,268.1,640.1,268.1,640.1,268.1c0,0.1,0.1,0.2,0.1,0.3
			C640.2,268.4,640.1,268.2,640.1,268.1L640.1,268.1z"/>
		<path class="st82" d="M640.1,268.1c0,0.1-0.1,0.4-0.2,0.5l0.3-0.3l0,0l0,0C640.2,268.3,640.2,268.2,640.1,268.1L640.1,268.1z"/>
		<path class="st82" d="M639.6,268.3L639.6,268.3c0,0-0.4,0.1-0.4,0.1c0.1,0,0.1,0,0.2,0c0.2,0.1,0.4,0.2,0.4,0.2c0,0,0,0,0,0
			C639.8,268.6,639.6,268.3,639.6,268.3L639.6,268.3z"/>
		<path class="st81" d="M639.6,268.3L639.6,268.3c0,0,0.2,0.2,0.3,0.3C639.8,268.6,639.6,268.4,639.6,268.3L639.6,268.3z"/>
		<path class="st6" d="M640.2,268.5L640.2,268.5c0.1,0,0.3,0,0.4,0C640.6,268.6,640.2,268.5,640.2,268.5z"/>
		<path class="st6" d="M640.3,269C640.3,269,640.3,269,640.3,269c0.1,0,0.1,0.2,0.1,0.4C640.4,269.4,640.3,269,640.3,269z"/>
		<path class="st6" d="M639.8,269.2C639.8,269.2,639.8,269.2,639.8,269.2c0,0.1-0.1,0.2-0.3,0.2
			C639.5,269.4,639.8,269.2,639.8,269.2z"/>
		<path class="st6" d="M639.4,268.8C639.4,268.8,639.3,268.8,639.4,268.8c-0.1,0-0.3-0.1-0.3-0.2C639,268.6,639.4,268.8,639.4,268.8
			z"/>
		<path class="st6" d="M639.7,268.3L639.7,268.3c0-0.1,0.1-0.2,0.1-0.3C639.9,268,639.7,268.3,639.7,268.3z"/>
	</g>
	<g class="st69">
		<path class="st78" d="M820.4,326.5c0,0-11.6,1.5-12,2.9l0,0c2.4,0.4,9.6,1.5,16.8,2.2C824.8,331.4,820.4,326.5,820.4,326.5
			L820.4,326.5z"/>
		<path class="st79" d="M808.4,329.4c-0.3,1.4,7.5,5.9,7.5,5.9l9.3-3.7C817.9,330.9,810.8,329.8,808.4,329.4L808.4,329.4z"/>
		<path class="st78" d="M815.8,335.3c0,0-3,9.4-1.1,10.4l10.4-14.1L815.8,335.3L815.8,335.3z"/>
		<path class="st79" d="M826.5,318.2c-1.2,0-6.1,8.2-6.1,8.2s4.5,5,4.7,5.1l1.5-13.4L826.5,318.2L826.5,318.2z"/>
		<path class="st78" d="M830.4,327.1c-0.9-3.1-2.4-8.5-3.8-8.9l-1.5,13.4L830.4,327.1L830.4,327.1z"/>
		<path class="st78" d="M825.1,331.6c0.3,0.2,8,6.2,8,6.2c1.8-1.2,7.9-5.4,7.1-6.4C836,331.9,827.9,331.8,825.1,331.6L825.1,331.6z"
			/>
		<path class="st79" d="M830.4,327.1l-5.3,4.5c2.8,0.2,10.9,0.3,15.2-0.2C839.1,329.5,831.4,327.5,830.4,327.1L830.4,327.1z"/>
		<path class="st79" d="M832.9,346.9L832.9,346.9c0.6-0.3,0.4-8.3,0.3-9c0,0-7.8-6-8-6.2L832.9,346.9L832.9,346.9z"/>
		<path class="st79" d="M814.7,345.7c1.9,0.9,8.8-4.4,8.8-4.4l1.6-9.7L814.7,345.7L814.7,345.7z"/>
		<path class="st78" d="M823.5,341.3c0,0,8.1,6.1,9.3,5.6l-7.7-15.3L823.5,341.3L823.5,341.3z"/>
		
			<radialGradient id="SVGID_21_" cx="-3332.1736" cy="-699.5161" r="0.915" gradientTransform="matrix(387.4988 105.4994 105.4994 -387.4988 1365724.625 81194.3047)" gradientUnits="userSpaceOnUse">
			<stop  offset="0" style="stop-color:#013556"/>
			<stop  offset="0.5" style="stop-color:#013556"/>
			<stop  offset="1" style="stop-color:#797670"/>
		</radialGradient>
		<path class="st46" d="M815.8,335.3c-0.1,0.2-0.3,0.9-0.5,1.7C815.6,336,815.8,335.3,815.8,335.3L815.8,335.3L815.8,335.3z"/>
		<path class="st81" d="M820.2,333.6c-2,0.7-3.9,1.5-4.4,1.7l0,0l0,0l0,0L820.2,333.6L820.2,333.6z"/>
		<path class="st82" d="M824.8,332c-0.4,0-2.6,0.8-4.7,1.6l-4.4,1.7l0,0c0,0-0.2,0.7-0.5,1.7c-0.3,1.4-0.6,3.1-0.7,3.6
			C814.6,340.6,821.2,332.6,824.8,332L824.8,332L824.8,332z"/>
		<path class="st81" d="M824.9,332C824.9,332,824.9,332,824.9,332L824.9,332C824.9,332,824.9,332,824.9,332L824.9,332z"/>
		<path class="st81" d="M824.9,332c0,0-0.7,5.1-1.1,7.8l1.2-7.2C824.9,332.4,824.9,332.2,824.9,332L824.9,332z"/>
		<path class="st82" d="M824.9,332.6l-1.2,7.2c-0.1,0.8-0.2,1.3-0.3,1.5c0.2,0.1,4.1,3,4.5,3.1C828.3,344.1,825.8,340.3,824.9,332.6
			L824.9,332.6z"/>
		
			<radialGradient id="SVGID_22_" cx="-3333.8591" cy="-699.6756" r="1.9045" gradientTransform="matrix(387.4988 105.4994 105.4994 -387.4988 1365724.625 81194.3047)" gradientUnits="userSpaceOnUse">
			<stop  offset="0" style="stop-color:#013556"/>
			<stop  offset="0.5" style="stop-color:#013556"/>
			<stop  offset="1" style="stop-color:#797670"/>
		</radialGradient>
		<path class="st47" d="M834.6,336.8c-0.6,0.4-1.1,0.8-1.5,1C833.4,337.7,834,337.3,834.6,336.8L834.6,336.8z"/>
		<path class="st82" d="M838,334.3c-0.2,0-3.3,0.5-8.2-0.8c-1.3-0.4-2.7-0.8-4.2-1.5c1.7,1.3,7.6,5.9,7.6,5.9l0,0l0,0
			c0.4-0.2,0.9-0.6,1.5-1C836,335.8,837.7,334.5,838,334.3L838,334.3z"/>
		<path class="st81" d="M825.3,331.8c0,0,7.3,5.6,7.9,6c0,0-5.8-4.5-7.6-5.9C825.5,331.9,825.4,331.9,825.3,331.8L825.3,331.8z"/>
		
			<radialGradient id="SVGID_23_" cx="-3333.7244" cy="-699.6529" r="1.7904" gradientTransform="matrix(387.4988 105.4994 105.4994 -387.4988 1365724.625 81194.3047)" gradientUnits="userSpaceOnUse">
			<stop  offset="0" style="stop-color:#013556"/>
			<stop  offset="0.5" style="stop-color:#013556"/>
			<stop  offset="1" style="stop-color:#797670"/>
		</radialGradient>
		<path class="st48" d="M829.1,322.5C829.1,322.5,829,322.6,829.1,322.5c0.5,1.6,1,3.3,1.3,4.6C830.4,327,829.4,323.4,829.1,322.5
			L829.1,322.5z"/>
		<path class="st82" d="M829,322.6c-0.4,0.9-2.4,7.3-3.9,9l5.3-4.5l0,0l0,0C830,325.8,829.6,324.2,829,322.6L829,322.6z"/>
		<path class="st82" d="M820.4,326.5L820.4,326.5c-0.7,0.2-6,0.9-6.4,1.1c1.1-0.1,2.3,0.1,3.5,0.4c3.8,1,7.4,3.5,7.4,3.5
			c0,0-0.1-0.1-0.2-0.3C823.6,330,820.4,326.5,820.4,326.5L820.4,326.5z"/>
		<path class="st81" d="M820.4,326.5L820.4,326.5c0,0,3.2,3.5,4.3,4.7C824,330.2,821.1,327.2,820.4,326.5L820.4,326.5z"/>
		<path class="st6" d="M829.6,328.7l0.7-0.8c0.3,0,4.7,1.3,5.3,1.5C837.1,329.9,829.6,328.7,829.6,328.7z"/>
		<path class="st6" d="M831.5,337.8c0,0,0.8,0.4,1,0.4c0.3,0.1,0.3,2.5,0.5,5.5C833.1,344.4,831.5,337.8,831.5,337.8z"/>
		<path class="st6" d="M823.1,339.9c0,0,0.3,0.8,0.1,1c-0.2,0.3-2.3,1.6-4.6,3.1C818.1,344.4,823.1,339.9,823.1,339.9z"/>
		<path class="st6" d="M816.3,333.8c0,0-0.6,0.6-0.9,0.5c-0.3-0.1-4.2-2.8-4.6-3C810.2,330.9,816.3,333.8,816.3,333.8z"/>
		<path class="st6" d="M822.2,326.4l-0.5-0.9c0.3-0.5,1.8-3,3-4.7C825,320.3,822.2,326.4,822.2,326.4z"/>
	</g>
	<g class="st69">
		<path class="st91" d="M571.9,237.9c0.1,0,0.2,0,0.2,0.1c0,0.1,0,0.2-0.1,0.2c-0.1,0-0.2,0-0.2-0.1
			C571.8,238,571.8,237.9,571.9,237.9z"/>
		<path class="st92" d="M572,238C572,238,572.1,238,572,238C572.1,238,572.1,238,572,238C572,238.1,572,238,572,238
			C572,238,572,238,572,238z"/>
	</g>
	<g class="st69">
		<path class="st91" d="M544.7,248.9c1.2-0.5,2.5,0.1,3,1.3c0.5,1.2-0.1,2.5-1.3,3c-1.2,0.5-2.5-0.1-3-1.3
			C543,250.7,543.6,249.4,544.7,248.9z"/>
		<path class="st92" d="M546.7,250.7c0.3-0.1,0.5,0,0.6,0.3c0.1,0.3,0,0.5-0.3,0.6c-0.3,0.1-0.5,0-0.6-0.3
			C546.3,251.1,546.5,250.8,546.7,250.7z"/>
	</g>
	<g class="st69">
		<path class="st91" d="M601.6,213.4c1.2-0.5,2.6,0.1,3.1,1.4c0.5,1.2-0.1,2.6-1.4,3.1c-1.2,0.5-2.6-0.1-3.1-1.4
			C599.7,215.2,600.4,213.8,601.6,213.4z"/>
		<path class="st92" d="M603.6,215.2c0.3-0.1,0.6,0,0.7,0.3c0.1,0.3,0,0.6-0.3,0.7c-0.3,0.1-0.6,0-0.7-0.3
			C603.2,215.6,603.4,215.3,603.6,215.2z"/>
	</g>
	<g class="st69">
		<path class="st91" d="M637.1,230.6c1.3-0.5,2.8,0.2,3.3,1.5c0.5,1.3-0.1,2.8-1.5,3.3c-1.3,0.5-2.8-0.2-3.3-1.5
			C635.1,232.6,635.8,231.1,637.1,230.6z"/>
		<path class="st92" d="M639.3,232.6c0.3-0.1,0.6,0,0.7,0.3c0.1,0.3,0,0.6-0.3,0.7c-0.3,0.1-0.6,0-0.7-0.3
			C638.8,233,639,232.7,639.3,232.6z"/>
	</g>
	<g class="st69">
		<path class="st93" d="M665.7,221.3c0-0.1,0.1-0.1,0.2-0.1c0.1,0,0.1,0.1,0.1,0.2c0,0.1-0.1,0.1-0.2,0.1S665.7,221.4,665.7,221.3z"
			/>
		<path class="st94" d="M665.9,221.3C665.9,221.3,665.9,221.3,665.9,221.3C666,221.3,666,221.3,665.9,221.3
			C666,221.3,665.9,221.3,665.9,221.3C665.9,221.3,665.9,221.3,665.9,221.3z"/>
	</g>
	<g class="st69">
		<path class="st93" d="M643.8,556.5c0.1-0.1,0.2-0.2,0.3-0.1c0.1,0.1,0.2,0.2,0.1,0.3c-0.1,0.1-0.2,0.2-0.3,0.1
			C643.8,556.7,643.8,556.6,643.8,556.5z"/>
		<path class="st94" d="M644.1,556.5C644.1,556.5,644.1,556.4,644.1,556.5C644.2,556.5,644.2,556.5,644.1,556.5
			C644.2,556.5,644.1,556.5,644.1,556.5C644.1,556.5,644.1,556.5,644.1,556.5z"/>
	</g>
	<g class="st69">
		<path class="st95" d="M665.8,251.5c-0.5-0.2-0.7-0.8-0.5-1.3c0.2-0.5,0.8-0.7,1.3-0.5c0.5,0.2,0.7,0.8,0.5,1.3
			C666.9,251.6,666.3,251.8,665.8,251.5z"/>
		<path class="st96" d="M665.8,250.4c-0.1-0.1-0.2-0.2-0.1-0.3c0.1-0.1,0.2-0.2,0.3-0.1c0.1,0.1,0.2,0.2,0.1,0.3
			C666,250.4,665.9,250.4,665.8,250.4z"/>
	</g>
	<g class="st69">
		<path class="st78" d="M1729.8,585.6c0,0-4.2,0.6-4.3,1.1l0,0c0.9,0.1,3.5,0.5,6,0.8C1731.4,587.4,1729.8,585.6,1729.8,585.6
			L1729.8,585.6z"/>
		<path class="st79" d="M1725.5,586.7c-0.1,0.5,2.7,2.1,2.7,2.1l3.4-1.3C1729,587.2,1726.4,586.8,1725.5,586.7L1725.5,586.7z"/>
		<path class="st78" d="M1728.2,588.8c0,0-1.1,3.4-0.4,3.7l3.8-5.1L1728.2,588.8L1728.2,588.8z"/>
		<path class="st79" d="M1732,582.7c-0.4,0-2.2,3-2.2,3s1.6,1.8,1.7,1.9L1732,582.7L1732,582.7L1732,582.7z"/>
		<path class="st78" d="M1733.4,585.9c-0.3-1.1-0.9-3.1-1.4-3.2l-0.5,4.8L1733.4,585.9L1733.4,585.9z"/>
		<path class="st78" d="M1731.5,587.5c0.1,0.1,2.9,2.2,2.9,2.2c0.6-0.4,2.8-1.9,2.6-2.3C1735.5,587.6,1732.6,587.6,1731.5,587.5
			L1731.5,587.5z"/>
		<path class="st79" d="M1733.4,585.9l-1.9,1.6c1,0.1,3.9,0.1,5.5-0.1C1736.6,586.7,1733.8,586,1733.4,585.9L1733.4,585.9z"/>
		<path class="st79" d="M1734.3,593L1734.3,593c0.2-0.1,0.1-3,0.1-3.3c0,0-2.8-2.2-2.9-2.2L1734.3,593L1734.3,593z"/>
		<path class="st79" d="M1727.8,592.6c0.7,0.3,3.2-1.6,3.2-1.6l0.6-3.5L1727.8,592.6L1727.8,592.6z"/>
		<path class="st78" d="M1731,591c0,0,2.9,2.2,3.4,2l-2.8-5.5L1731,591L1731,591z"/>
		
			<radialGradient id="SVGID_24_" cx="-3330.0808" cy="-697.7491" r="0.3473" gradientTransform="matrix(368.1305 100.2262 100.2262 -368.1305 1297528 77623.8906)" gradientUnits="userSpaceOnUse">
			<stop  offset="0" style="stop-color:#013556"/>
			<stop  offset="0.5" style="stop-color:#013556"/>
			<stop  offset="1" style="stop-color:#797670"/>
		</radialGradient>
		<path class="st49" d="M1728.2,588.8c0,0.1-0.1,0.3-0.2,0.6C1728.1,589.1,1728.2,588.8,1728.2,588.8L1728.2,588.8L1728.2,588.8z"/>
		<path class="st81" d="M1729.8,588.2c-0.7,0.3-1.4,0.5-1.6,0.6l0,0l0,0l0,0L1729.8,588.2L1729.8,588.2z"/>
		<path class="st82" d="M1731.4,587.6c-0.2,0-0.9,0.3-1.7,0.6l-1.6,0.6l0,0c0,0-0.1,0.2-0.2,0.6c-0.1,0.5-0.2,1.1-0.3,1.3
			C1727.7,590.7,1730.1,587.9,1731.4,587.6L1731.4,587.6L1731.4,587.6z"/>
		<path class="st81" d="M1731.5,587.6C1731.5,587.6,1731.4,587.6,1731.5,587.6L1731.5,587.6C1731.4,587.6,1731.5,587.6,1731.5,587.6
			L1731.5,587.6z"/>
		<path class="st81" d="M1731.5,587.6c0,0-0.3,1.8-0.4,2.8l0.4-2.6C1731.5,587.8,1731.5,587.7,1731.5,587.6L1731.5,587.6z"/>
		<path class="st82" d="M1731.5,587.8l-0.4,2.6c0,0.3-0.1,0.5-0.1,0.5c0.1,0,1.5,1.1,1.6,1.1C1732.7,592,1731.8,590.6,1731.5,587.8
			L1731.5,587.8z"/>
		
			<radialGradient id="SVGID_25_" cx="-3330.7217" cy="-697.8099" r="0.724" gradientTransform="matrix(368.1305 100.2262 100.2262 -368.1305 1297528 77623.8906)" gradientUnits="userSpaceOnUse">
			<stop  offset="0" style="stop-color:#013556"/>
			<stop  offset="0.5" style="stop-color:#013556"/>
			<stop  offset="1" style="stop-color:#797670"/>
		</radialGradient>
		<path class="st50" d="M1735,589.4c-0.2,0.2-0.4,0.3-0.5,0.4C1734.5,589.7,1734.7,589.5,1735,589.4L1735,589.4z"/>
		<path class="st82" d="M1736.2,588.5c-0.1,0-1.2,0.2-2.9-0.3c-0.5-0.1-1-0.3-1.5-0.5c0.6,0.5,2.7,2.1,2.7,2.1l0,0l0,0
			c0.1-0.1,0.3-0.2,0.5-0.4C1735.5,589,1736.1,588.5,1736.2,588.5L1736.2,588.5z"/>
		<path class="st81" d="M1731.6,587.6c0,0,2.6,2,2.8,2.2c0,0-2.1-1.6-2.7-2.1C1731.7,587.6,1731.6,587.6,1731.6,587.6L1731.6,587.6z
			"/>
		
			<radialGradient id="SVGID_26_" cx="-3330.6697" cy="-697.8013" r="0.68" gradientTransform="matrix(368.1305 100.2262 100.2262 -368.1305 1297528 77623.8906)" gradientUnits="userSpaceOnUse">
			<stop  offset="0" style="stop-color:#013556"/>
			<stop  offset="0.5" style="stop-color:#013556"/>
			<stop  offset="1" style="stop-color:#797670"/>
		</radialGradient>
		<path class="st51" d="M1733,584.2C1733,584.2,1733,584.2,1733,584.2c0.2,0.6,0.4,1.2,0.5,1.7
			C1733.4,585.9,1733.1,584.5,1733,584.2L1733,584.2z"/>
		<path class="st82" d="M1733,584.3c-0.1,0.3-0.9,2.6-1.4,3.2l1.9-1.6l0,0l0,0C1733.3,585.4,1733.1,584.8,1733,584.3L1733,584.3z"/>
		<path class="st82" d="M1729.8,585.6L1729.8,585.6c-0.3,0.1-2.2,0.3-2.3,0.4c0.4,0,0.8,0,1.3,0.2c1.4,0.4,2.7,1.3,2.7,1.3
			c0,0,0,0-0.1-0.1C1731,586.9,1729.8,585.6,1729.8,585.6L1729.8,585.6z"/>
		<path class="st81" d="M1729.8,585.6L1729.8,585.6c0,0,1.2,1.3,1.6,1.7C1731.1,587,1730.1,585.9,1729.8,585.6L1729.8,585.6z"/>
		<path class="st6" d="M1733.2,586.5l0.3-0.3c0.1,0,1.7,0.5,1.9,0.5C1735.9,586.9,1733.2,586.5,1733.2,586.5z"/>
		<path class="st6" d="M1733.9,589.7c0,0,0.3,0.1,0.3,0.1c0.1,0,0.1,0.9,0.2,2C1734.4,592.1,1733.9,589.7,1733.9,589.7z"/>
		<path class="st6" d="M1730.8,590.5c0,0,0.1,0.3,0,0.4c-0.1,0.1-0.8,0.6-1.7,1.1C1729,592.1,1730.8,590.5,1730.8,590.5z"/>
		<path class="st6" d="M1728.4,588.3c0,0-0.2,0.2-0.3,0.2c-0.1,0-1.5-1-1.7-1.1C1726.2,587.3,1728.4,588.3,1728.4,588.3z"/>
		<path class="st6" d="M1730.5,585.6l-0.2-0.3c0.1-0.2,0.6-1.1,1.1-1.7C1731.5,583.4,1730.5,585.6,1730.5,585.6z"/>
	</g>
	<g class="st69">
		<path class="st78" d="M1823.5,208.1c0,0,1.7,12.1,3.2,12.5l0,0c0.4-2.5,1.6-10,2.4-17.5C1828.9,203.4,1823.5,208.1,1823.5,208.1
			L1823.5,208.1z"/>
		<path class="st79" d="M1826.8,220.6c1.6,0.3,6.5-7.8,6.5-7.8l-4.1-9.7C1828.3,210.6,1827.2,218.1,1826.8,220.6L1826.8,220.6z"/>
		<path class="st78" d="M1833.2,212.8c0,0,10.4,3.1,11.4,1.2l-15.4-10.9L1833.2,212.8L1833.2,212.8z"/>
		<path class="st79" d="M1814.5,201.7c0,1.3,9,6.4,9,6.4s5.4-4.7,5.6-5l-14.7-1.6L1814.5,201.7L1814.5,201.7z"/>
		<path class="st78" d="M1824.2,197.6c-3.4,0.9-9.3,2.6-9.7,4l14.7,1.6L1824.2,197.6L1824.2,197.6z"/>
		<path class="st78" d="M1829.1,203.1c0.2-0.3,6.8-8.4,6.8-8.4c-1.4-1.9-5.9-8.2-7.1-7.4C1829.5,191.8,1829.3,200.2,1829.1,203.1
			L1829.1,203.1z"/>
		<path class="st79" d="M1824.2,197.6l4.9,5.5c0.2-2.9,0.3-11.4-0.2-15.9C1826.8,188.5,1824.7,196.6,1824.2,197.6L1824.2,197.6z"/>
		<path class="st79" d="M1845.9,195L1845.9,195c-0.3-0.7-9.1-0.4-9.9-0.3c0,0-6.6,8.1-6.8,8.4L1845.9,195L1845.9,195z"/>
		<path class="st79" d="M1844.6,214c1-1.9-4.8-9.2-4.8-9.2l-10.6-1.7L1844.6,214L1844.6,214z"/>
		<path class="st78" d="M1839.7,204.8c0,0,6.6-8.4,6.1-9.7l-16.7,8.1L1839.7,204.8L1839.7,204.8z"/>
		
			<radialGradient id="SVGID_27_" cx="-3340.1836" cy="-705.8589" r="0.6208" gradientTransform="matrix(170.4064 -596.3541 -625.9021 -162.3617 129637.9375 -2106216)" gradientUnits="userSpaceOnUse">
			<stop  offset="0" style="stop-color:#013556"/>
			<stop  offset="0.5" style="stop-color:#013556"/>
			<stop  offset="1" style="stop-color:#797670"/>
		</radialGradient>
		<path class="st52" d="M1833.2,212.8c0.2,0.1,1,0.3,1.9,0.5C1834,213.1,1833.2,212.8,1833.2,212.8L1833.2,212.8L1833.2,212.8z"/>
		<path class="st81" d="M1831.3,208.3c0.8,2.1,1.7,4.1,1.9,4.5l0,0l0,0l0,0L1831.3,208.3L1831.3,208.3z"/>
		<path class="st82" d="M1829.5,203.4c0,0.4,0.9,2.7,1.8,4.9l1.9,4.5l0,0c0,0,0.8,0.2,1.9,0.5c1.5,0.3,3.4,0.7,3.9,0.8
			C1839,214.1,1830.2,207.2,1829.5,203.4L1829.5,203.4L1829.5,203.4z"/>
		<path class="st81" d="M1829.5,203.4C1829.5,203.4,1829.5,203.4,1829.5,203.4L1829.5,203.4C1829.6,203.4,1829.5,203.4,1829.5,203.4
			L1829.5,203.4z"/>
		<path class="st81" d="M1829.5,203.4c0,0,5.6,0.7,8.5,1.2l-7.9-1.2C1830,203.3,1829.8,203.3,1829.5,203.4L1829.5,203.4z"/>
		<path class="st82" d="M1830.2,203.3l7.9,1.2c0.8,0.1,1.4,0.2,1.7,0.3c0.1-0.2,3.3-4.3,3.4-4.8
			C1842.9,199.7,1838.7,202.4,1830.2,203.3L1830.2,203.3z"/>
		
			<radialGradient id="SVGID_28_" cx="-3341.3291" cy="-705.9676" r="1.294" gradientTransform="matrix(170.4064 -596.3541 -625.9021 -162.3617 129637.9375 -2106216)" gradientUnits="userSpaceOnUse">
			<stop  offset="0" style="stop-color:#013556"/>
			<stop  offset="0.5" style="stop-color:#013556"/>
			<stop  offset="1" style="stop-color:#797670"/>
		</radialGradient>
		<path class="st53" d="M1834.8,193.2c0.5,0.6,0.9,1.2,1.1,1.6C1835.8,194.4,1835.4,193.8,1834.8,193.2L1834.8,193.2z"/>
		<path class="st82" d="M1832.1,189.7c0,0.2,0.6,3.5-0.9,8.5c-0.4,1.3-0.9,2.8-1.6,4.4c1.5-1.8,6.4-7.9,6.4-7.9l0,0l0,0
			c-0.3-0.4-0.7-0.9-1.1-1.6C1833.8,191.8,1832.3,190,1832.1,189.7L1832.1,189.7z"/>
		<path class="st81" d="M1829.4,202.9c0,0,6.2-7.6,6.6-8.2c0,0-4.9,6.1-6.4,7.9C1829.5,202.7,1829.5,202.8,1829.4,202.9
			L1829.4,202.9z"/>
		
			<radialGradient id="SVGID_29_" cx="-3341.2363" cy="-705.9522" r="1.2154" gradientTransform="matrix(170.4064 -596.3541 -625.9021 -162.3617 129637.9375 -2106216)" gradientUnits="userSpaceOnUse">
			<stop  offset="0" style="stop-color:#013556"/>
			<stop  offset="0.5" style="stop-color:#013556"/>
			<stop  offset="1" style="stop-color:#797670"/>
		</radialGradient>
		<path class="st54" d="M1819.2,199C1819.2,199,1819.2,199,1819.2,199c1.8-0.5,3.6-1,5-1.4C1824.1,197.6,1820.2,198.7,1819.2,199
			L1819.2,199z"/>
		<path class="st82" d="M1819.3,199c1,0.4,8,2.5,9.9,4.1l-4.9-5.5l0,0l0,0C1822.8,198,1821,198.5,1819.3,199L1819.3,199z"/>
		<path class="st82" d="M1823.5,208.1L1823.5,208.1c0.2,0.7,1,6.3,1.2,6.7c-0.1-1.2,0.1-2.4,0.5-3.7c1.1-4,3.8-7.7,3.8-7.7
			c-0.1,0-0.1,0.1-0.3,0.2C1827.4,204.7,1823.5,208.1,1823.5,208.1L1823.5,208.1z"/>
		<path class="st81" d="M1823.5,208.1L1823.5,208.1c0,0,3.9-3.3,5.2-4.5C1827.7,204.3,1824.3,207.3,1823.5,208.1L1823.5,208.1z"/>
		<path class="st6" d="M1826,198.4l-0.8-0.7c0-0.3,1.4-4.9,1.6-5.6C1827.3,190.6,1826,198.4,1826,198.4z"/>
		<path class="st6" d="M1835.9,196.4c0,0,0.4-0.8,0.4-1c0.1-0.3,2.8-0.3,6.1-0.5C1843.1,194.8,1835.9,196.4,1835.9,196.4z"/>
		<path class="st6" d="M1838.3,205.2c0,0,0.8-0.3,1.1-0.1c0.3,0.2,1.8,2.4,3.4,4.8C1843.1,210.5,1838.3,205.2,1838.3,205.2z"/>
		<path class="st6" d="M1831.5,212.3c0,0,0.6,0.6,0.5,1c-0.1,0.3-3.1,4.4-3.3,4.8C1828.4,218.7,1831.5,212.3,1831.5,212.3z"/>
		<path class="st6" d="M1823.4,206.1l-1,0.5c-0.5-0.3-3.3-1.9-5.1-3.1C1816.8,203.2,1823.4,206.1,1823.4,206.1z"/>
	</g>
	<g class="st69">
		<path class="st78" d="M1342.9,336.6c0,0,0.1,1.1,0.3,1.1h0c0-0.2,0.1-0.9,0.2-1.5C1343.4,336.2,1342.9,336.6,1342.9,336.6
			L1342.9,336.6z"/>
		<path class="st79" d="M1343.2,337.7c0.1,0,0.6-0.7,0.6-0.7l-0.4-0.9C1343.4,336.8,1343.3,337.5,1343.2,337.7L1343.2,337.7z"/>
		<path class="st78" d="M1343.8,337c0,0,0.9,0.3,1,0.1l-1.4-1L1343.8,337L1343.8,337z"/>
		<path class="st79" d="M1342.1,336.1c0,0.1,0.8,0.6,0.8,0.6s0.5-0.4,0.5-0.4L1342.1,336.1L1342.1,336.1L1342.1,336.1z"/>
		<path class="st78" d="M1343,335.7c-0.3,0.1-0.8,0.2-0.9,0.3l1.3,0.1L1343,335.7L1343,335.7z"/>
		<path class="st78" d="M1343.4,336.2c0,0,0.6-0.7,0.6-0.7c-0.1-0.2-0.5-0.7-0.6-0.7C1343.5,335.2,1343.4,335.9,1343.4,336.2
			L1343.4,336.2z"/>
		<path class="st79" d="M1343,335.7l0.4,0.5c0-0.3,0-1,0-1.4C1343.2,334.9,1343,335.6,1343,335.7L1343,335.7z"/>
		<path class="st79" d="M1344.9,335.5L1344.9,335.5c0-0.1-0.8,0-0.9,0c0,0-0.6,0.7-0.6,0.7L1344.9,335.5L1344.9,335.5z"/>
		<path class="st79" d="M1344.8,337.1c0.1-0.2-0.4-0.8-0.4-0.8l-0.9-0.1L1344.8,337.1L1344.8,337.1z"/>
		<path class="st78" d="M1344.4,336.3c0,0,0.6-0.7,0.5-0.9l-1.5,0.7L1344.4,336.3L1344.4,336.3z"/>
		
			<radialGradient id="SVGID_30_" cx="-3340.5757" cy="-704.5801" r="5.521142e-02" gradientTransform="matrix(170.4064 -596.3541 -625.9021 -162.3617 129637.9375 -2106216)" gradientUnits="userSpaceOnUse">
			<stop  offset="0" style="stop-color:#013556"/>
			<stop  offset="0.5" style="stop-color:#013556"/>
			<stop  offset="1" style="stop-color:#797670"/>
		</radialGradient>
		<path class="st55" d="M1343.8,337c0,0,0.1,0,0.2,0C1343.9,337.1,1343.8,337,1343.8,337L1343.8,337L1343.8,337z"/>
		<path class="st81" d="M1343.6,336.6c0.1,0.2,0.1,0.4,0.2,0.4l0,0l0,0l0,0L1343.6,336.6L1343.6,336.6z"/>
		<path class="st82" d="M1343.5,336.2c0,0,0.1,0.2,0.2,0.4l0.2,0.4l0,0c0,0,0.1,0,0.2,0c0.1,0,0.3,0.1,0.3,0.1
			C1344.3,337.2,1343.5,336.5,1343.5,336.2L1343.5,336.2L1343.5,336.2z"/>
		<path class="st81" d="M1343.5,336.2c0,0,0.5,0.1,0.8,0.1L1343.5,336.2C1343.5,336.2,1343.5,336.2,1343.5,336.2L1343.5,336.2z"/>
		<path class="st82" d="M1343.5,336.2l0.7,0.1c0.1,0,0.1,0,0.1,0c0,0,0.3-0.4,0.3-0.4C1344.6,335.9,1344.3,336.1,1343.5,336.2
			L1343.5,336.2z"/>
		
			<radialGradient id="SVGID_31_" cx="-3340.6777" cy="-704.5889" r="0.1149" gradientTransform="matrix(170.4064 -596.3541 -625.9021 -162.3617 129637.9375 -2106216)" gradientUnits="userSpaceOnUse">
			<stop  offset="0" style="stop-color:#013556"/>
			<stop  offset="0.5" style="stop-color:#013556"/>
			<stop  offset="1" style="stop-color:#797670"/>
		</radialGradient>
		<path style="fill:url(#SVGID_31_);" d="M1343.9,335.3c0,0.1,0.1,0.1,0.1,0.1C1344,335.4,1344,335.4,1343.9,335.3L1343.9,335.3z"/>
		<path class="st82" d="M1343.7,335c0,0,0.1,0.3-0.1,0.8c0,0.1-0.1,0.2-0.1,0.4c0.1-0.2,0.6-0.7,0.6-0.7l0,0l0,0
			c0,0-0.1-0.1-0.1-0.1C1343.8,335.2,1343.7,335,1343.7,335L1343.7,335z"/>
		<path class="st81" d="M1343.4,336.2c0,0,0.5-0.7,0.6-0.7C1344,335.4,1343.6,336,1343.4,336.2
			C1343.5,336.1,1343.5,336.2,1343.4,336.2L1343.4,336.2z"/>
		
			<radialGradient id="SVGID_32_" cx="-3340.6687" cy="-704.5875" r="0.1072" gradientTransform="matrix(170.4064 -596.3541 -625.9021 -162.3617 129637.9375 -2106216)" gradientUnits="userSpaceOnUse">
			<stop  offset="0" style="stop-color:#013556"/>
			<stop  offset="0.5" style="stop-color:#013556"/>
			<stop  offset="1" style="stop-color:#797670"/>
		</radialGradient>
		<path style="fill:url(#SVGID_32_);" d="M1342.5,335.8C1342.6,335.8,1342.6,335.8,1342.5,335.8c0.2,0,0.3-0.1,0.4-0.1
			C1343,335.7,1342.6,335.8,1342.5,335.8L1342.5,335.8z"/>
		<path class="st82" d="M1342.6,335.8c0.1,0,0.7,0.2,0.9,0.4l-0.4-0.5l0,0l0,0C1342.9,335.7,1342.7,335.8,1342.6,335.8L1342.6,335.8
			z"/>
		<path class="st82" d="M1342.9,336.6L1342.9,336.6c0,0.1,0.1,0.6,0.1,0.6c0-0.1,0-0.2,0-0.3c0.1-0.4,0.3-0.7,0.3-0.7c0,0,0,0,0,0
			C1343.3,336.3,1342.9,336.6,1342.9,336.6L1342.9,336.6z"/>
		<path class="st81" d="M1342.9,336.6L1342.9,336.6c0,0,0.3-0.3,0.5-0.4C1343.3,336.3,1343,336.6,1342.9,336.6L1342.9,336.6z"/>
		<path class="st6" d="M1343.1,335.8L1343.1,335.8c-0.1-0.1,0-0.5,0.1-0.6C1343.3,335.1,1343.1,335.8,1343.1,335.8z"/>
		<path class="st6" d="M1344,335.6C1344,335.6,1344.1,335.5,1344,335.6c0-0.1,0.3-0.1,0.6-0.1C1344.7,335.5,1344,335.6,1344,335.6z"
			/>
		<path class="st6" d="M1344.2,336.4C1344.2,336.4,1344.3,336.3,1344.2,336.4c0.1,0,0.3,0.2,0.4,0.4
			C1344.7,336.8,1344.2,336.4,1344.2,336.4z"/>
		<path class="st6" d="M1343.6,337C1343.6,337,1343.7,337,1343.6,337c0,0.1-0.2,0.5-0.2,0.5C1343.4,337.6,1343.6,337,1343.6,337z"/>
		<path class="st6" d="M1342.9,336.4L1342.9,336.4c-0.1,0-0.4-0.1-0.5-0.2C1342.3,336.2,1342.9,336.4,1342.9,336.4z"/>
	</g>
	<g class="st69">
		<path class="st78" d="M1098.8,228.5c0,0,1.7,12.4,3.3,12.9l0,0c0.4-2.6,1.6-10.3,2.5-18C1104.4,223.7,1098.8,228.5,1098.8,228.5
			L1098.8,228.5z"/>
		<path class="st79" d="M1102.2,241.4c1.6,0.3,6.6-8,6.6-8l-4.2-10C1103.8,231.1,1102.6,238.8,1102.2,241.4L1102.2,241.4z"/>
		<path class="st78" d="M1108.8,233.4c0,0,10.6,3.2,11.7,1.2l-15.8-11.2L1108.8,233.4L1108.8,233.4z"/>
		<path class="st79" d="M1089.5,222c0,1.3,9.3,6.5,9.3,6.5s5.6-4.8,5.8-5.1l-15-1.6L1089.5,222L1089.5,222z"/>
		<path class="st78" d="M1099.6,217.7c-3.4,0.9-9.6,2.6-10,4.1l15,1.6L1099.6,217.7L1099.6,217.7z"/>
		<path class="st78" d="M1104.6,223.4c0.2-0.3,7-8.6,7-8.6c-1.4-1.9-6-8.5-7.3-7.6C1105,211.8,1104.8,220.4,1104.6,223.4
			L1104.6,223.4z"/>
		<path class="st79" d="M1099.6,217.7l5.1,5.7c0.2-3,0.3-11.7-0.3-16.3C1102.2,208.4,1100,216.7,1099.6,217.7L1099.6,217.7z"/>
		<path class="st79" d="M1121.8,215.1L1121.8,215.1c-0.3-0.7-9.3-0.4-10.2-0.3c0,0-6.8,8.3-7,8.6L1121.8,215.1L1121.8,215.1z"/>
		<path class="st79" d="M1120.4,234.6c1-2-5-9.5-5-9.5l-10.9-1.7L1120.4,234.6L1120.4,234.6z"/>
		<path class="st78" d="M1115.5,225.1c0,0,6.8-8.7,6.3-10l-17.2,8.3L1115.5,225.1L1115.5,225.1z"/>
		
			<radialGradient id="SVGID_33_" cx="-3340.509" cy="-704.808" r="0.6376" gradientTransform="matrix(170.4064 -596.3541 -625.9021 -162.3617 129637.9375 -2106216)" gradientUnits="userSpaceOnUse">
			<stop  offset="0" style="stop-color:#013556"/>
			<stop  offset="0.5" style="stop-color:#013556"/>
			<stop  offset="1" style="stop-color:#797670"/>
		</radialGradient>
		<path style="fill:url(#SVGID_33_);" d="M1108.8,233.4c0.2,0.1,1,0.3,1.9,0.5C1109.5,233.6,1108.8,233.4,1108.8,233.4L1108.8,233.4
			L1108.8,233.4z"/>
		<path class="st81" d="M1106.8,228.7c0.8,2.1,1.7,4.2,1.9,4.7l0,0l0,0l0,0L1106.8,228.7L1106.8,228.7z"/>
		<path class="st82" d="M1105,223.7c0,0.4,0.9,2.8,1.8,5l1.9,4.7l0,0c0,0,0.8,0.2,1.9,0.5c1.6,0.3,3.5,0.7,4,0.8
			C1114.7,234.7,1105.7,227.6,1105,223.7L1105,223.7L1105,223.7z"/>
		<path class="st81" d="M1105,223.7C1105,223.7,1105,223.7,1105,223.7L1105,223.7C1105,223.7,1105,223.7,1105,223.7L1105,223.7z"/>
		<path class="st81" d="M1105,223.7c0,0,5.7,0.8,8.8,1.2l-8.1-1.3C1105.5,223.6,1105.3,223.6,1105,223.7L1105,223.7z"/>
		<path class="st82" d="M1105.7,223.6l8.1,1.3c0.9,0.1,1.5,0.2,1.7,0.3c0.1-0.2,3.3-4.4,3.5-4.9
			C1118.7,219.9,1114.4,222.7,1105.7,223.6L1105.7,223.6z"/>
		
			<radialGradient id="SVGID_34_" cx="-3341.6833" cy="-704.9193" r="1.3271" gradientTransform="matrix(170.4064 -596.3541 -625.9021 -162.3617 129637.9375 -2106216)" gradientUnits="userSpaceOnUse">
			<stop  offset="0" style="stop-color:#013556"/>
			<stop  offset="0.5" style="stop-color:#013556"/>
			<stop  offset="1" style="stop-color:#797670"/>
		</radialGradient>
		<path class="st61" d="M1110.5,213.2c0.5,0.6,0.9,1.2,1.2,1.6C1111.4,214.5,1111,213.9,1110.5,213.2L1110.5,213.2z"/>
		<path class="st82" d="M1107.6,209.6c0,0.2,0.6,3.6-0.9,8.8c-0.4,1.4-0.9,2.9-1.7,4.5c1.5-1.9,6.6-8.1,6.6-8.1l0,0l0,0
			c-0.3-0.4-0.7-0.9-1.2-1.6C1109.3,211.8,1107.9,209.9,1107.6,209.6L1107.6,209.6z"/>
		<path class="st81" d="M1104.9,223.2c0,0,6.3-7.8,6.7-8.4c0,0-5.1,6.2-6.6,8.1C1105,223,1104.9,223.1,1104.9,223.2L1104.9,223.2z"
			/>
		
			<radialGradient id="SVGID_35_" cx="-3341.5896" cy="-704.9034" r="1.2476" gradientTransform="matrix(170.4064 -596.3541 -625.9021 -162.3617 129637.9375 -2106216)" gradientUnits="userSpaceOnUse">
			<stop  offset="0" style="stop-color:#013556"/>
			<stop  offset="0.5" style="stop-color:#013556"/>
			<stop  offset="1" style="stop-color:#797670"/>
		</radialGradient>
		<path class="st62" d="M1094.4,219.2C1094.4,219.2,1094.5,219.2,1094.4,219.2c1.8-0.5,3.7-1,5.2-1.4
			C1099.5,217.8,1095.4,218.8,1094.4,219.2L1094.4,219.2z"/>
		<path class="st82" d="M1094.5,219.2c1,0.4,8.2,2.5,10.1,4.2l-5.1-5.7l0,0l0,0C1098.1,218.1,1096.2,218.6,1094.5,219.2
			L1094.5,219.2z"/>
		<path class="st82" d="M1098.8,228.5L1098.8,228.5c0.2,0.8,1.1,6.5,1.2,6.8c-0.1-1.2,0.1-2.5,0.5-3.8c1.2-4.1,3.9-7.9,3.9-7.9
			c-0.1,0-0.1,0.1-0.3,0.2C1102.8,225.1,1098.8,228.5,1098.8,228.5L1098.8,228.5z"/>
		<path class="st81" d="M1098.8,228.5L1098.8,228.5c0,0,4-3.4,5.3-4.7C1103.1,224.7,1099.7,227.7,1098.8,228.5L1098.8,228.5z"/>
		<path class="st6" d="M1101.4,218.6l-0.8-0.8c0-0.4,1.4-5.1,1.6-5.7C1102.7,210.6,1101.4,218.6,1101.4,218.6z"/>
		<path class="st6" d="M1111.6,216.5c0,0,0.4-0.8,0.4-1c0.1-0.4,2.9-0.3,6.2-0.6C1119,214.9,1111.6,216.5,1111.6,216.5z"/>
		<path class="st6" d="M1114,225.5c0,0,0.9-0.3,1.2-0.1c0.3,0.2,1.8,2.4,3.5,4.9C1119,231,1114,225.5,1114,225.5z"/>
		<path class="st6" d="M1107,232.8c0,0,0.7,0.6,0.6,1c-0.1,0.3-3.2,4.5-3.4,5C1103.8,239.4,1107,232.8,1107,232.8z"/>
		<path class="st6" d="M1098.8,226.5l-1,0.5c-0.6-0.3-3.4-1.9-5.3-3.2C1091.9,223.5,1098.8,226.5,1098.8,226.5z"/>
	</g>
	<g class="st69">
		<path class="st91" d="M1293.7,440.8c0-0.1,0-0.3,0.1-0.3c0.1,0,0.3,0,0.3,0.1c0,0.1,0,0.3-0.1,0.3
			C1293.9,441,1293.7,440.9,1293.7,440.8z"/>
		<path class="st92" d="M1293.9,440.6C1293.9,440.6,1293.9,440.6,1293.9,440.6C1293.9,440.5,1294,440.6,1293.9,440.6
			C1294,440.6,1294,440.6,1293.9,440.6C1293.9,440.7,1293.9,440.6,1293.9,440.6z"/>
	</g>
	<g class="st69">
		<path class="st91" d="M1311.6,482.6c-0.7-1.8,0.2-3.9,2.1-4.6c1.9-0.7,4.1,0.2,4.8,2c0.7,1.8-0.2,3.9-2.1,4.6
			C1314.4,485.3,1312.3,484.4,1311.6,482.6z"/>
		<path class="st92" d="M1314.5,479.6c-0.2-0.4,0-0.8,0.5-1c0.4-0.2,0.9,0,1,0.4c0.2,0.4,0,0.8-0.5,1
			C1315.1,480.2,1314.6,480,1314.5,479.6z"/>
	</g>
	<g class="st69">
		<path class="st91" d="M1254.1,395.1c-0.8-1.9,0.2-4,2.2-4.7c2-0.7,4.2,0.2,5,2.1c0.8,1.9-0.2,4-2.2,4.7
			C1257.1,398,1254.9,397,1254.1,395.1z"/>
		<path class="st92" d="M1257.1,392c-0.2-0.4,0.1-0.9,0.5-1c0.4-0.2,0.9,0,1.1,0.5c0.2,0.4,0,0.9-0.5,1S1257.3,392.4,1257.1,392z"/>
	</g>
	<g class="st69">
		<path class="st91" d="M1282,340.5c-0.8-2,0.2-4.3,2.4-5.1c2.1-0.8,4.5,0.2,5.3,2.3c0.8,2-0.2,4.3-2.4,5.1
			C1285.2,343.5,1282.8,342.5,1282,340.5z"/>
		<path class="st92" d="M1285.2,337.1c-0.2-0.4,0.1-0.9,0.5-1.1c0.5-0.2,1,0.1,1.2,0.5c0.2,0.4-0.1,0.9-0.5,1.1
			C1285.9,337.8,1285.4,337.6,1285.2,337.1z"/>
	</g>
	<g class="st69">
		<path class="st93" d="M1266.9,296.4c-0.1-0.1-0.2-0.2-0.1-0.3c0.1-0.1,0.2-0.2,0.3-0.1c0.1,0.1,0.2,0.2,0.1,0.3
			C1267.2,296.4,1267,296.5,1266.9,296.4z"/>
		<path class="st94" d="M1266.9,296.1C1266.9,296.1,1266.9,296.1,1266.9,296.1C1266.9,296,1266.9,296,1266.9,296.1
			C1267,296,1267,296.1,1266.9,296.1C1267,296.1,1266.9,296.1,1266.9,296.1z"/>
	</g>
	<g class="st69">
		<path class="st93" d="M1284.7,219.9c-0.2-0.1-0.3-0.3-0.2-0.5c0.1-0.2,0.3-0.2,0.5-0.2c0.2,0.1,0.3,0.3,0.2,0.5
			C1285.1,219.9,1284.9,220,1284.7,219.9z"/>
		<path class="st94" d="M1284.7,219.5c0,0-0.1-0.1,0-0.1c0,0,0.1-0.1,0.1,0c0,0,0.1,0.1,0,0.1
			C1284.8,219.5,1284.8,219.5,1284.7,219.5z"/>
	</g>
	<g class="st69">
		<path class="st95" d="M1315.8,296.3c-0.4,0.8-1.4,1.1-2.2,0.7c-0.8-0.4-1.2-1.3-0.8-2.1c0.4-0.8,1.4-1.1,2.2-0.7
			C1315.8,294.6,1316.2,295.5,1315.8,296.3z"/>
		<path class="st96" d="M1313.9,296.3c-0.1,0.2-0.3,0.2-0.5,0.2c-0.2-0.1-0.3-0.3-0.2-0.4c0.1-0.2,0.3-0.2,0.5-0.2
			C1313.9,296,1314,296.2,1313.9,296.3z"/>
	</g>
	<g class="st69">
		<path class="st78" d="M1140.9,463.5c0,0,1,6.8,1.8,7l0,0c0.2-1.4,0.9-5.6,1.3-9.8C1144,460.9,1140.9,463.5,1140.9,463.5
			L1140.9,463.5z"/>
		<path class="st79" d="M1142.7,470.5c0.9,0.2,3.6-4.4,3.6-4.4l-2.3-5.4C1143.6,464.9,1143,469.1,1142.7,470.5L1142.7,470.5z"/>
		<path class="st78" d="M1146.3,466.2c0,0,5.8,1.7,6.4,0.6l-8.6-6.1L1146.3,466.2L1146.3,466.2z"/>
		<path class="st79" d="M1135.9,459.9c0,0.7,5.1,3.6,5.1,3.6s3-2.6,3.2-2.8L1135.9,459.9L1135.9,459.9L1135.9,459.9z"/>
		<path class="st78" d="M1141.3,457.6c-1.9,0.5-5.2,1.4-5.4,2.2l8.2,0.9L1141.3,457.6L1141.3,457.6z"/>
		<path class="st78" d="M1144.1,460.7c0.1-0.2,3.8-4.7,3.8-4.7c-0.8-1-3.3-4.6-4-4.2C1144.3,454.4,1144.2,459.1,1144.1,460.7
			L1144.1,460.7z"/>
		<path class="st79" d="M1141.3,457.6l2.8,3.1c0.1-1.6,0.2-6.4-0.1-8.9C1142.8,452.5,1141.6,457,1141.3,457.6L1141.3,457.6z"/>
		<path class="st79" d="M1153.4,456.2L1153.4,456.2c-0.2-0.4-5.1-0.2-5.5-0.2c0,0-3.7,4.5-3.8,4.7L1153.4,456.2L1153.4,456.2z"/>
		<path class="st79" d="M1152.7,466.8c0.6-1.1-2.7-5.2-2.7-5.2l-5.9-0.9L1152.7,466.8L1152.7,466.8z"/>
		<path class="st78" d="M1150,461.7c0,0,3.7-4.7,3.4-5.5l-9.4,4.5L1150,461.7L1150,461.7z"/>
		
			<radialGradient id="SVGID_36_" cx="-3340.8572" cy="-704.6531" r="0.3473" gradientTransform="matrix(170.4064 -596.3541 -625.9021 -162.3617 129637.9375 -2106216)" gradientUnits="userSpaceOnUse">
			<stop  offset="0" style="stop-color:#013556"/>
			<stop  offset="0.5" style="stop-color:#013556"/>
			<stop  offset="1" style="stop-color:#797670"/>
		</radialGradient>
		<path class="st63" d="M1146.3,466.2c0.1,0.1,0.6,0.2,1.1,0.3C1146.8,466.3,1146.3,466.2,1146.3,466.2L1146.3,466.2L1146.3,466.2z"
			/>
		<path class="st81" d="M1145.3,463.6c0.5,1.2,0.9,2.3,1.1,2.5l0,0l0,0l0,0L1145.3,463.6L1145.3,463.6z"/>
		<path class="st82" d="M1144.3,460.9c0,0.2,0.5,1.5,1,2.7l1.1,2.5l0,0c0,0,0.4,0.1,1.1,0.3c0.9,0.2,1.9,0.4,2.2,0.4
			C1149.6,466.9,1144.7,463,1144.3,460.9L1144.3,460.9L1144.3,460.9z"/>
		<path class="st81" d="M1144.3,460.9C1144.3,460.9,1144.3,460.9,1144.3,460.9L1144.3,460.9C1144.3,460.9,1144.3,460.9,1144.3,460.9
			L1144.3,460.9z"/>
		<path class="st81" d="M1144.3,460.9c0,0,3.1,0.4,4.8,0.6l-4.4-0.7C1144.5,460.8,1144.4,460.8,1144.3,460.9L1144.3,460.9z"/>
		<path class="st82" d="M1144.7,460.8l4.4,0.7c0.5,0.1,0.8,0.1,0.9,0.1c0.1-0.1,1.8-2.4,1.9-2.7
			C1151.7,458.8,1149.4,460.3,1144.7,460.8L1144.7,460.8z"/>
		
			<radialGradient id="SVGID_37_" cx="-3341.498" cy="-704.7139" r="0.724" gradientTransform="matrix(170.4064 -596.3541 -625.9021 -162.3617 129637.9375 -2106216)" gradientUnits="userSpaceOnUse">
			<stop  offset="0" style="stop-color:#013556"/>
			<stop  offset="0.5" style="stop-color:#013556"/>
			<stop  offset="1" style="stop-color:#797670"/>
		</radialGradient>
		<path class="st64" d="M1147.3,455.1c0.3,0.4,0.5,0.7,0.6,0.9C1147.8,455.9,1147.6,455.5,1147.3,455.1L1147.3,455.1z"/>
		<path class="st82" d="M1145.7,453.2c0,0.1,0.3,1.9-0.5,4.8c-0.2,0.8-0.5,1.6-0.9,2.5c0.8-1,3.6-4.4,3.6-4.4l0,0l0,0
			c-0.2-0.2-0.4-0.5-0.6-0.9C1146.7,454.4,1145.8,453.4,1145.7,453.2L1145.7,453.2z"/>
		<path class="st81" d="M1144.2,460.6c0,0,3.5-4.3,3.7-4.6c0,0-2.8,3.4-3.6,4.4C1144.3,460.5,1144.2,460.6,1144.2,460.6
			L1144.2,460.6z"/>
		
			<radialGradient id="SVGID_38_" cx="-3341.446" cy="-704.7053" r="0.68" gradientTransform="matrix(170.4064 -596.3541 -625.9021 -162.3617 129637.9375 -2106216)" gradientUnits="userSpaceOnUse">
			<stop  offset="0" style="stop-color:#013556"/>
			<stop  offset="0.5" style="stop-color:#013556"/>
			<stop  offset="1" style="stop-color:#797670"/>
		</radialGradient>
		<path class="st65" d="M1138.5,458.4C1138.5,458.4,1138.5,458.4,1138.5,458.4c1-0.3,2-0.6,2.8-0.8
			C1141.3,457.6,1139,458.2,1138.5,458.4L1138.5,458.4z"/>
		<path class="st82" d="M1138.6,458.4c0.6,0.2,4.5,1.4,5.5,2.3l-2.8-3.1l0,0l0,0C1140.5,457.8,1139.5,458.1,1138.6,458.4
			L1138.6,458.4z"/>
		<path class="st82" d="M1140.9,463.5L1140.9,463.5c0.1,0.4,0.6,3.5,0.7,3.7c0-0.7,0.1-1.4,0.3-2.1c0.6-2.2,2.1-4.3,2.1-4.3
			c0,0-0.1,0-0.2,0.1C1143.1,461.6,1140.9,463.5,1140.9,463.5L1140.9,463.5z"/>
		<path class="st81" d="M1140.9,463.5L1140.9,463.5c0,0,2.2-1.9,2.9-2.5C1143.2,461.4,1141.4,463.1,1140.9,463.5L1140.9,463.5z"/>
		<path class="st6" d="M1142.3,458.1l-0.5-0.4c0-0.2,0.8-2.8,0.9-3.1C1143,453.7,1142.3,458.1,1142.3,458.1z"/>
		<path class="st6" d="M1147.9,457c0,0,0.2-0.4,0.2-0.6c0-0.2,1.6-0.2,3.4-0.3C1151.9,456.1,1147.9,457,1147.9,457z"/>
		<path class="st6" d="M1149.2,461.9c0,0,0.5-0.2,0.6-0.1c0.2,0.1,1,1.3,1.9,2.7C1151.9,464.8,1149.2,461.9,1149.2,461.9z"/>
		<path class="st6" d="M1145.4,465.9c0,0,0.4,0.3,0.3,0.5c-0.1,0.2-1.7,2.4-1.9,2.7C1143.7,469.4,1145.4,465.9,1145.4,465.9z"/>
		<path class="st6" d="M1140.9,462.4l-0.6,0.3c-0.3-0.2-1.9-1-2.9-1.7C1137.1,460.8,1140.9,462.4,1140.9,462.4z"/>
	</g>
	<g class="st69">
		<path class="st78" d="M1638.4,386.6c0,0-1.4-10.3-2.7-10.6l0,0c-0.3,2.1-1.3,8.5-2,14.8C1633.8,390.6,1638.4,386.6,1638.4,386.6
			L1638.4,386.6z"/>
		<path class="st79" d="M1635.7,376c-1.3-0.3-5.5,6.6-5.5,6.6l3.4,8.2C1634.3,384.5,1635.3,378.1,1635.7,376L1635.7,376z"/>
		<path class="st78" d="M1630.2,382.6c0,0-8.8-2.6-9.6-1l13.1,9.2L1630.2,382.6L1630.2,382.6z"/>
		<path class="st79" d="M1646.1,392c0-1.1-7.7-5.4-7.7-5.4s-4.6,4-4.8,4.2l12.4,1.3L1646.1,392L1646.1,392z"/>
		<path class="st78" d="M1637.8,395.5c2.8-0.8,7.9-2.2,8.3-3.4l-12.4-1.3L1637.8,395.5L1637.8,395.5z"/>
		<path class="st78" d="M1633.6,390.8c-0.2,0.2-5.8,7.1-5.8,7.1c1.2,1.6,5,7,6,6.3C1633.4,400.4,1633.5,393.3,1633.6,390.8
			L1633.6,390.8z"/>
		<path class="st79" d="M1637.8,395.5l-4.2-4.7c-0.2,2.5-0.3,9.6,0.2,13.4C1635.6,403.2,1637.4,396.4,1637.8,395.5L1637.8,395.5z"/>
		<path class="st79" d="M1619.5,397.7L1619.5,397.7c0.2,0.6,7.7,0.4,8.4,0.3c0,0,5.6-6.9,5.8-7.1L1619.5,397.7L1619.5,397.7z"/>
		<path class="st79" d="M1620.6,381.6c-0.9,1.6,4.1,7.8,4.1,7.8l9,1.4L1620.6,381.6L1620.6,381.6z"/>
		<path class="st78" d="M1624.7,389.4c0,0-5.6,7.1-5.2,8.3l14.2-6.9L1624.7,389.4L1624.7,389.4z"/>
		
			<radialGradient id="SVGID_39_" cx="-3342.9714" cy="-693.1919" r="0.5002" gradientTransform="matrix(-179.3719 627.7298 658.8325 170.904 -141659.375 2217243.25)" gradientUnits="userSpaceOnUse">
			<stop  offset="0" style="stop-color:#013556"/>
			<stop  offset="0.5" style="stop-color:#013556"/>
			<stop  offset="1" style="stop-color:#797670"/>
		</radialGradient>
		<path class="st66" d="M1630.2,382.6c-0.2-0.1-0.8-0.3-1.6-0.4C1629.6,382.4,1630.2,382.6,1630.2,382.6L1630.2,382.6L1630.2,382.6z
			"/>
		<path class="st81" d="M1631.8,386.4c-0.7-1.7-1.4-3.5-1.6-3.9l0,0l0,0l0,0L1631.8,386.4L1631.8,386.4z"/>
		<path class="st82" d="M1633.3,390.6c0-0.4-0.7-2.3-1.5-4.1l-1.6-3.9l0,0c0,0-0.6-0.2-1.6-0.4c-1.3-0.3-2.9-0.6-3.3-0.6
			C1625.3,381.5,1632.7,387.4,1633.3,390.6L1633.3,390.6L1633.3,390.6z"/>
		<path class="st81" d="M1633.3,390.6C1633.3,390.6,1633.3,390.6,1633.3,390.6L1633.3,390.6C1633.3,390.6,1633.3,390.6,1633.3,390.6
			L1633.3,390.6z"/>
		<path class="st81" d="M1633.3,390.6c0,0-4.7-0.6-7.2-1l6.7,1C1632.9,390.6,1633.1,390.6,1633.3,390.6L1633.3,390.6z"/>
		<path class="st82" d="M1632.7,390.7l-6.7-1c-0.7-0.1-1.2-0.2-1.4-0.2c-0.1,0.2-2.8,3.6-2.9,4
			C1622,393.7,1625.5,391.4,1632.7,390.7L1632.7,390.7z"/>
		
			<radialGradient id="SVGID_40_" cx="-3343.8926" cy="-693.2792" r="1.0411" gradientTransform="matrix(-179.3719 627.7298 658.8325 170.904 -141659.375 2217243.25)" gradientUnits="userSpaceOnUse">
			<stop  offset="0" style="stop-color:#013556"/>
			<stop  offset="0.5" style="stop-color:#013556"/>
			<stop  offset="1" style="stop-color:#797670"/>
		</radialGradient>
		<path class="st80" d="M1628.8,399.3c-0.4-0.5-0.7-1-1-1.3C1628,398.2,1628.4,398.7,1628.8,399.3L1628.8,399.3z"/>
		<path class="st82" d="M1631.2,402.2c0-0.2-0.5-2.9,0.7-7.2c0.3-1.1,0.8-2.4,1.4-3.7c-1.2,1.5-5.4,6.7-5.4,6.7l0,0l0,0
			c0.2,0.3,0.6,0.8,1,1.3C1629.7,400.4,1631,402,1631.2,402.2L1631.2,402.2z"/>
		<path class="st81" d="M1633.4,391c0,0-5.2,6.4-5.6,7c0,0,4.2-5.2,5.4-6.7C1633.3,391.1,1633.4,391.1,1633.4,391L1633.4,391z"/>
		
			<radialGradient id="SVGID_41_" cx="-3343.8191" cy="-693.2667" r="0.9788" gradientTransform="matrix(-179.3719 627.7298 658.8325 170.904 -141659.375 2217243.25)" gradientUnits="userSpaceOnUse">
			<stop  offset="0" style="stop-color:#013556"/>
			<stop  offset="0.5" style="stop-color:#013556"/>
			<stop  offset="1" style="stop-color:#797670"/>
		</radialGradient>
		<path class="st83" d="M1642.1,394.3C1642.1,394.3,1642,394.3,1642.1,394.3c-1.5,0.4-3.1,0.9-4.3,1.2
			C1637.9,395.5,1641.3,394.6,1642.1,394.3L1642.1,394.3z"/>
		<path class="st82" d="M1642,394.3c-0.8-0.3-6.8-2.1-8.4-3.5l4.2,4.7l0,0l0,0C1639,395.2,1640.5,394.8,1642,394.3L1642,394.3z"/>
		<path class="st82" d="M1638.4,386.6L1638.4,386.6c-0.2-0.6-0.9-5.3-1-5.6c0.1,1-0.1,2.1-0.4,3.1c-1,3.4-3.2,6.5-3.2,6.5
			c0,0,0.1-0.1,0.2-0.2C1635.1,389.4,1638.4,386.6,1638.4,386.6L1638.4,386.6z"/>
		<path class="st81" d="M1638.4,386.6L1638.4,386.6c0,0-3.3,2.8-4.4,3.8C1634.9,389.8,1637.7,387.3,1638.4,386.6L1638.4,386.6z"/>
		<path class="st6" d="M1636.3,394.8l0.7,0.6c0,0.3-1.2,4.2-1.4,4.7C1635.2,401.4,1636.3,394.8,1636.3,394.8z"/>
		<path class="st6" d="M1627.9,396.5c0,0-0.3,0.7-0.4,0.8c-0.1,0.3-2.4,0.2-5.1,0.5C1621.8,397.8,1627.9,396.5,1627.9,396.5z"/>
		<path class="st6" d="M1625.9,389c0,0-0.7,0.3-1,0.1c-0.2-0.2-1.5-2-2.9-4.1C1621.8,384.6,1625.9,389,1625.9,389z"/>
		<path class="st6" d="M1631.6,383c0,0-0.5-0.5-0.5-0.8c0.1-0.3,2.6-3.7,2.8-4.1C1634.3,377.6,1631.6,383,1631.6,383z"/>
		<path class="st6" d="M1638.5,388.2l0.8-0.5c0.5,0.2,2.8,1.6,4.4,2.6C1644.1,390.8,1638.5,388.2,1638.5,388.2z"/>
	</g>
	<g class="st69">
		<path class="st78" d="M501.4,259.8c0,0,2.1-0.3,2.2-0.5v0c-0.4-0.1-1.8-0.3-3.1-0.4C500.6,258.9,501.4,259.8,501.4,259.8
			L501.4,259.8z"/>
		<path class="st79" d="M503.7,259.3c0.1-0.3-1.4-1.1-1.4-1.1l-1.7,0.7C501.9,259,503.2,259.2,503.7,259.3L503.7,259.3z"/>
		<path class="st78" d="M502.3,258.2c0,0,0.5-1.7,0.2-1.9l-1.9,2.6L502.3,258.2L502.3,258.2z"/>
		<path class="st79" d="M500.3,261.4c0.2,0,1.1-1.5,1.1-1.5s-0.8-0.9-0.9-0.9L500.3,261.4L500.3,261.4L500.3,261.4z"/>
		<path class="st78" d="M499.6,259.7c0.2,0.6,0.5,1.6,0.7,1.6l0.3-2.5L499.6,259.7L499.6,259.7z"/>
		<path class="st78" d="M500.6,258.9c0,0-1.5-1.1-1.5-1.1c-0.3,0.2-1.5,1-1.3,1.2C498.6,258.8,500.1,258.9,500.6,258.9L500.6,258.9z
			"/>
		<path class="st79" d="M499.6,259.7l1-0.8c-0.5,0-2-0.1-2.8,0C498,259.3,499.4,259.6,499.6,259.7L499.6,259.7z"/>
		<path class="st79" d="M499.2,256.1L499.2,256.1c-0.1,0-0.1,1.5-0.1,1.7c0,0,1.4,1.1,1.5,1.1L499.2,256.1L499.2,256.1z"/>
		<path class="st79" d="M502.5,256.3c-0.3-0.2-1.6,0.8-1.6,0.8l-0.3,1.8L502.5,256.3L502.5,256.3z"/>
		<path class="st78" d="M500.9,257.1c0,0-1.5-1.1-1.7-1l1.4,2.8L500.9,257.1L500.9,257.1z"/>
		
			<radialGradient id="SVGID_42_" cx="-3351.0505" cy="-698.9452" r="0.1786" gradientTransform="matrix(-368.1305 -100.2262 -100.2262 368.1305 -1303155.125 -78371.9688)" gradientUnits="userSpaceOnUse">
			<stop  offset="0" style="stop-color:#013556"/>
			<stop  offset="0.5" style="stop-color:#013556"/>
			<stop  offset="1" style="stop-color:#797670"/>
		</radialGradient>
		<path class="st84" d="M502.3,258.2c0,0,0.1-0.2,0.1-0.3C502.3,258.1,502.3,258.2,502.3,258.2L502.3,258.2L502.3,258.2z"/>
		<path class="st81" d="M501.5,258.5c0.4-0.1,0.7-0.3,0.8-0.3l0,0l0,0l0,0L501.5,258.5L501.5,258.5z"/>
		<path class="st82" d="M500.6,258.8c0.1,0,0.5-0.1,0.9-0.3l0.8-0.3l0,0c0,0,0-0.1,0.1-0.3c0.1-0.3,0.1-0.6,0.1-0.7
			C502.5,257.2,501.3,258.7,500.6,258.8L500.6,258.8L500.6,258.8z"/>
		<path class="st81" d="M500.6,258.8c0,0,0.1-0.9,0.2-1.4l-0.2,1.3C500.6,258.8,500.6,258.8,500.6,258.8L500.6,258.8z"/>
		<path class="st82" d="M500.6,258.7l0.2-1.3c0-0.1,0-0.2,0-0.3c0,0-0.8-0.5-0.8-0.6C500,256.6,500.4,257.3,500.6,258.7L500.6,258.7
			z"/>
		
			<radialGradient id="SVGID_43_" cx="-3351.3813" cy="-698.9737" r="0.3717" gradientTransform="matrix(-368.1305 -100.2262 -100.2262 368.1305 -1303155.125 -78371.9688)" gradientUnits="userSpaceOnUse">
			<stop  offset="0" style="stop-color:#013556"/>
			<stop  offset="0.5" style="stop-color:#013556"/>
			<stop  offset="1" style="stop-color:#797670"/>
		</radialGradient>
		<path class="st85" d="M498.8,257.9c0.1-0.1,0.2-0.1,0.3-0.2C499,257.8,498.9,257.9,498.8,257.9L498.8,257.9z"/>
		<path class="st82" d="M498.2,258.4c0,0,0.6-0.1,1.5,0.1c0.2,0.1,0.5,0.2,0.8,0.3c-0.3-0.2-1.4-1.1-1.4-1.1l0,0l0,0
			c-0.1,0-0.2,0.1-0.3,0.2C498.6,258.1,498.3,258.4,498.2,258.4L498.2,258.4z"/>
		<path class="st81" d="M500.5,258.9c0,0-1.3-1-1.4-1.1C499.1,257.8,500.2,258.6,500.5,258.9C500.5,258.8,500.5,258.9,500.5,258.9
			L500.5,258.9z"/>
		
			<radialGradient id="SVGID_44_" cx="-3351.3518" cy="-698.9691" r="0.3469" gradientTransform="matrix(-368.1305 -100.2262 -100.2262 368.1305 -1303155.125 -78371.9688)" gradientUnits="userSpaceOnUse">
			<stop  offset="0" style="stop-color:#013556"/>
			<stop  offset="0.5" style="stop-color:#013556"/>
			<stop  offset="1" style="stop-color:#797670"/>
		</radialGradient>
		<path class="st86" d="M499.8,260.6C499.8,260.6,499.8,260.6,499.8,260.6c-0.1-0.3-0.2-0.6-0.2-0.8
			C499.6,259.7,499.8,260.4,499.8,260.6L499.8,260.6z"/>
		<path class="st82" d="M499.9,260.6c0.1-0.2,0.4-1.3,0.7-1.7l-1,0.8l0,0l0,0C499.7,260,499.8,260.3,499.9,260.6L499.9,260.6z"/>
		<path class="st82" d="M501.4,259.8L501.4,259.8c0.1,0,1.1-0.2,1.2-0.2c-0.2,0-0.4,0-0.6-0.1c-0.7-0.2-1.4-0.6-1.4-0.6
			c0,0,0,0,0,0.1C500.9,259.2,501.4,259.8,501.4,259.8L501.4,259.8z"/>
		<path class="st81" d="M501.4,259.8L501.4,259.8c0,0-0.6-0.6-0.8-0.9C500.8,259.2,501.3,259.7,501.4,259.8L501.4,259.8z"/>
		<path class="st6" d="M499.7,259.4l-0.1,0.1c-0.1,0-0.9-0.2-1-0.3C498.4,259.2,499.7,259.4,499.7,259.4z"/>
		<path class="st6" d="M499.4,257.8c0,0-0.1-0.1-0.2-0.1c-0.1,0,0-0.5-0.1-1C499.1,256.6,499.4,257.8,499.4,257.8z"/>
		<path class="st6" d="M500.9,257.4c0,0-0.1-0.1,0-0.2c0-0.1,0.4-0.3,0.8-0.6C501.9,256.6,500.9,257.4,500.9,257.4z"/>
		<path class="st6" d="M502.2,258.5c0,0,0.1-0.1,0.2-0.1c0.1,0,0.8,0.5,0.8,0.6C503.3,259,502.2,258.5,502.2,258.5z"/>
		<path class="st6" d="M501.1,259.9l0.1,0.2c-0.1,0.1-0.3,0.6-0.5,0.9C500.6,261,501.1,259.9,501.1,259.9z"/>
	</g>
	<g class="st69">
		<path class="st78" d="M126.9,503.9c0,0,11.9-1.6,12.4-3l0,0c-2.5-0.4-9.9-1.5-17.2-2.2C122.3,498.9,126.9,503.9,126.9,503.9
			L126.9,503.9z"/>
		<path class="st79" d="M139.3,500.9c0.3-1.5-7.7-6.1-7.7-6.1l-9.6,3.8C129.4,499.4,136.8,500.5,139.3,500.9L139.3,500.9z"/>
		<path class="st78" d="M131.6,494.9c0,0,3.1-9.7,1.1-10.7L122,498.7L131.6,494.9L131.6,494.9z"/>
		<path class="st79" d="M120.7,512.4c1.3,0,6.3-8.5,6.3-8.5s-4.6-5.1-4.9-5.3l-1.5,13.7L120.7,512.4L120.7,512.4z"/>
		<path class="st78" d="M116.6,503.3c0.9,3.1,2.5,8.7,3.9,9.1l1.5-13.7L116.6,503.3L116.6,503.3z"/>
		<path class="st78" d="M122,498.7c-0.3-0.2-8.3-6.4-8.3-6.4c-1.8,1.3-8.1,5.5-7.3,6.6C110.9,498.3,119.1,498.5,122,498.7L122,498.7
			z"/>
		<path class="st79" d="M116.6,503.3l5.4-4.6c-2.9-0.2-11.2-0.3-15.6,0.2C107.6,500.9,115.6,502.8,116.6,503.3L116.6,503.3z"/>
		<path class="st79" d="M114.1,483L114.1,483c-0.6,0.3-0.4,8.5-0.3,9.3c0,0,8,6.2,8.3,6.4L114.1,483L114.1,483z"/>
		<path class="st79" d="M132.7,484.2c-1.9-0.9-9.1,4.5-9.1,4.5l-1.6,9.9L132.7,484.2L132.7,484.2z"/>
		<path class="st78" d="M123.7,488.7c0,0-8.3-6.2-9.6-5.8l8,15.7L123.7,488.7L123.7,488.7z"/>
		
			<radialGradient id="SVGID_45_" cx="-3350.2761" cy="-698.9583" r="0.9906" gradientTransform="matrix(-368.1305 -100.2262 -100.2262 368.1305 -1303155.125 -78371.9688)" gradientUnits="userSpaceOnUse">
			<stop  offset="0" style="stop-color:#013556"/>
			<stop  offset="0.5" style="stop-color:#013556"/>
			<stop  offset="1" style="stop-color:#797670"/>
		</radialGradient>
		<path class="st87" d="M131.6,494.9c0.1-0.2,0.3-0.9,0.5-1.8C131.8,494.1,131.6,494.9,131.6,494.9L131.6,494.9L131.6,494.9z"/>
		<path class="st81" d="M127.1,496.6c2-0.8,4-1.6,4.5-1.8l0,0l0,0l0,0L127.1,496.6L127.1,496.6z"/>
		<path class="st82" d="M122.3,498.3c0.4,0,2.6-0.8,4.8-1.6l4.5-1.8l0,0c0,0,0.2-0.7,0.5-1.8c0.3-1.4,0.7-3.2,0.8-3.7
			C132.9,489.4,126.1,497.6,122.3,498.3L122.3,498.3L122.3,498.3z"/>
		<path class="st81" d="M122.3,498.3C122.3,498.3,122.3,498.3,122.3,498.3L122.3,498.3C122.3,498.3,122.3,498.3,122.3,498.3
			L122.3,498.3z"/>
		<path class="st81" d="M122.3,498.3c0,0,0.7-5.2,1.1-8l-1.2,7.4C122.2,497.9,122.3,498.1,122.3,498.3L122.3,498.3z"/>
		<path class="st82" d="M122.2,497.6l1.2-7.4c0.1-0.8,0.2-1.4,0.3-1.6c-0.2-0.1-4.2-3.1-4.7-3.2
			C118.7,485.8,121.3,489.7,122.2,497.6L122.2,497.6z"/>
		
			<radialGradient id="SVGID_46_" cx="-3352.1008" cy="-699.131" r="2.0618" gradientTransform="matrix(-368.1305 -100.2262 -100.2262 368.1305 -1303155.125 -78371.9688)" gradientUnits="userSpaceOnUse">
			<stop  offset="0" style="stop-color:#013556"/>
			<stop  offset="0.5" style="stop-color:#013556"/>
			<stop  offset="1" style="stop-color:#797670"/>
		</radialGradient>
		<path class="st88" d="M112.2,493.3c0.6-0.4,1.2-0.8,1.5-1.1C113.5,492.4,112.9,492.8,112.2,493.3L112.2,493.3z"/>
		<path class="st82" d="M108.8,495.9c0.2,0,3.4-0.5,8.4,0.8c1.3,0.4,2.8,0.9,4.3,1.5c-1.8-1.4-7.8-6-7.8-6l0,0l0,0
			c-0.4,0.3-0.9,0.6-1.5,1.1C110.9,494.3,109.1,495.7,108.8,495.9L108.8,495.9z"/>
		<path class="st81" d="M121.8,498.4c0,0-7.5-5.8-8.1-6.2c0,0,6,4.6,7.8,6C121.6,498.3,121.7,498.4,121.8,498.4L121.8,498.4z"/>
		
			<radialGradient id="SVGID_47_" cx="-3351.9548" cy="-699.1064" r="1.9383" gradientTransform="matrix(-368.1305 -100.2262 -100.2262 368.1305 -1303155.125 -78371.9688)" gradientUnits="userSpaceOnUse">
			<stop  offset="0" style="stop-color:#013556"/>
			<stop  offset="0.5" style="stop-color:#013556"/>
			<stop  offset="1" style="stop-color:#797670"/>
		</radialGradient>
		<path class="st89" d="M118,508C118,508,118,507.9,118,508c-0.5-1.7-1-3.4-1.4-4.7C116.6,503.3,117.7,507.1,118,508L118,508z"/>
		<path class="st82" d="M118,507.9c0.4-0.9,2.4-7.5,4-9.2l-5.4,4.6l0,0l0,0C117,504.6,117.5,506.3,118,507.9L118,507.9z"/>
		<path class="st82" d="M126.9,503.9L126.9,503.9c0.7-0.2,6.2-1,6.5-1.1c-1.2,0.1-2.4-0.1-3.6-0.5c-3.9-1.1-7.6-3.6-7.6-3.6
			c0,0,0.1,0.1,0.2,0.3C123.6,500.3,126.9,503.9,126.9,503.9L126.9,503.9z"/>
		<path class="st81" d="M126.9,503.9L126.9,503.9c0,0-3.3-3.6-4.5-4.9C123.2,500,126.1,503.2,126.9,503.9L126.9,503.9z"/>
		<path class="st6" d="M117.4,501.6l-0.7,0.8c-0.3,0-4.9-1.3-5.5-1.5C109.7,500.4,117.4,501.6,117.4,501.6z"/>
		<path class="st6" d="M115.5,492.3c0,0-0.8-0.4-1-0.4c-0.3-0.1-0.3-2.6-0.5-5.7C113.9,485.5,115.5,492.3,115.5,492.3z"/>
		<path class="st6" d="M124.1,490.1c0,0-0.3-0.8-0.1-1.1c0.2-0.3,2.3-1.7,4.7-3.2C129.3,485.5,124.1,490.1,124.1,490.1z"/>
		<path class="st6" d="M131.1,496.4c0,0,0.6-0.6,0.9-0.5c0.3,0.1,4.3,2.9,4.8,3.1C137.4,499.4,131.1,496.4,131.1,496.4z"/>
		<path class="st6" d="M125,504l0.5,0.9c-0.3,0.5-1.8,3.1-3.1,4.8C122.1,510.3,125,504,125,504z"/>
	</g>
</g>
</svg>
